<svg width="14" height="16" viewBox="0 0 14 16" fill="none" xmlns="http://www.w3.org/2000/svg">
<path id="Vector" d="M11.0326 8.44792C11.0258 7.15768 11.5878 6.18386 12.7253 5.46667C12.0888 4.52097 11.1274 4.00065 9.85783 3.8987C8.65601 3.80026 7.34246 4.62643 6.86174 4.62643C6.35392 4.62643 5.18934 3.93386 4.27528 3.93386C2.38621 3.9655 0.378662 5.49831 0.378662 8.61667C0.378662 9.53776 0.541162 10.4893 0.866162 11.4714C1.2995 12.7616 2.86356 15.9257 4.49533 15.8729C5.34845 15.8518 5.95106 15.2436 7.06147 15.2436C8.13804 15.2436 8.69663 15.8729 9.64793 15.8729C11.2932 15.8483 12.7083 12.9725 13.1214 11.6788C10.9141 10.5995 11.0326 8.51472 11.0326 8.44792ZM9.11642 2.67526C10.0406 1.5362 9.95601 0.499091 9.92892 0.126434C9.11304 0.175653 8.16851 0.702997 7.63022 1.35339C7.03778 2.04948 6.68908 2.91081 6.76356 3.88112C7.64715 3.95143 8.45288 3.48034 9.11642 2.67526Z" fill="black"/>
</svg>
