<svg width="172" height="85" viewBox="0 0 172 85" fill="none" xmlns="http://www.w3.org/2000/svg">
<g id="kg 1" clip-path="url(#clip0_9_196)">
<path id="KGZ1115" d="M84.461 10.2461L84.4097 10.3142H84.2729L84.0335 10.2631L83.8283 10.4846L83.7086 10.7572L83.6231 10.8765H83.5205L83.4179 10.7572L83.3324 10.5868L83.3153 10.3142L83.3666 10.1268L83.3495 9.85417L83.1101 9.71786L82.4774 9.18966L82.3064 8.84889L82.5458 8.57628L83.3837 8.37181L83.6744 8.15031L83.8625 7.89474L84.0164 7.53693L84.119 7.571L84.2387 7.94585L84.3755 8.23551L84.632 8.50812L84.8201 8.7637L84.9227 8.96816L84.8714 9.08743L84.7004 9.17263L84.6149 9.36005L84.4439 9.49636L84.4097 9.75194V10.0075L84.461 10.2461Z" fill="#8E8C87"/>
<path id="KGZ1116" d="M124.219 8.11625L124.372 8.64445L124.304 8.96818L124.201 9.00226H124.099L123.877 8.9341H123.791L123.62 9.05337L123.227 9.47933L123.158 9.64972L123.073 10.0246L122.987 10.1609L122.868 10.2631L122.457 10.3994L122.149 10.4676L118.49 10.3824L118.302 10.4165L118.148 10.6209L118.063 10.8935L117.892 11.1491L117.669 11.2173L117.173 11.1491L116.455 10.8424L116.301 10.8083L116.182 10.8424L115.361 11.2854L115.138 11.3365H114.967L114.489 11.1662L114.078 11.1832L113.104 10.9617L112.95 10.9446L112.847 10.9958L112.762 11.081L112.471 11.7455L112.283 11.8477L111.12 12.1203L110.043 12.6144L109.701 12.8189L109.376 13.0745L108.538 14.0968L108.435 14.199L108.059 14.4716L107.905 14.5398L107.768 14.5739L107.546 14.5568L107.358 14.5057L107.101 14.3524H106.742L104.588 14.8806L104.314 14.8976L103.151 14.7954L102.929 14.8294L102.792 14.9146L102.655 15.2724L102.399 15.4599L102.023 15.6302L101.818 15.7666L101.441 16.0903L101.236 16.1584L101.065 16.2096L100.843 16.2266L100.757 16.2948L100.723 16.397V16.7207L100.638 16.9933L100.586 17.0785L100.45 17.1808L99.851 17.5726L99.5603 17.709L99.509 17.7941L99.3038 18.0327L98.5001 18.5609L98.2778 18.629L98.1752 18.612L98.2265 18.1179L98.2094 17.9986L98.141 17.8112L98.0042 17.6578L97.9187 17.6749L97.6622 17.7941L96.5336 18.0668L96.3113 18.0838L96.1916 18.0497L95.5589 17.743L95.3366 17.7941L95.1485 17.9305L94.7039 18.0838L94.5329 18.1179L92.1731 18.0156L91.5575 17.8112L91.3181 17.8793L91.2497 17.9475L91.0445 18.1179L90.5486 18.2883L90.1382 17.7771L89.9843 17.709L89.8475 17.6919L89.6423 17.8793L89.4371 17.9645L87.197 18.3223L87.026 18.4246L87.3167 19.1743L88.0349 20.3329L88.1546 20.6055L88.1717 20.827L88.0862 20.8952L87.9836 20.9122L87.8639 20.8781L87.5219 20.7418H87.4022L86.2052 20.8611L85.8974 21.0144L85.2989 21.8323L84.9398 22.3605L84.7346 22.3775L84.6149 22.0708L84.5294 21.9856L84.1703 21.9686L81.4343 22.3945L81.2633 22.3434L81.0068 22.2242L80.3912 22.1219H80.015L79.7927 22.2071L79.7414 22.4116L79.4678 24.1495L79.4849 24.371L79.5191 24.6096L79.9124 24.7118L80.0492 24.7799L80.1518 24.9163V25.0696L79.9637 25.2059L79.8098 25.3422L79.6217 25.6148L79.4849 25.8534L79.4336 26.0578L79.4165 26.3134L79.4849 26.6542L79.4678 26.8246L79.3994 26.995L79.0061 27.4209L78.8864 27.6083L78.8351 27.7446L78.818 27.898L78.8522 28.2558L78.8009 28.4092L78.6983 28.5455L78.5273 28.6818L78.3563 28.767H78.2366L78.0485 28.6818L77.8433 28.5114L77.6894 28.4773L77.5868 28.5114L77.1593 28.8181L77.0225 28.9544L76.9541 29.0907L76.9199 29.2611L76.8344 29.7722L76.766 29.8915L76.6634 29.9767L76.5266 29.9256L76.4411 29.7552L76.4069 29.4996L76.4924 29.0396L76.4753 28.784L76.3727 28.6647H76.2872L75.911 28.784L75.6545 28.801L75.4151 28.6988L75.227 28.5114L75.056 28.1877L74.8337 27.9661L74.7653 27.8639L74.6285 27.4891L74.4746 27.2335L73.8419 27.7446L73.5512 27.8639L73.2947 27.8469L71.4479 28.0343L71.1914 27.1653L71.0375 26.8757L70.8152 26.7564L70.6784 26.7223L70.3535 26.6542L70.2167 26.6371L70.0286 26.6883L69.6695 26.8757L69.584 26.9438L69.3617 27.2165L69.2933 27.2846L69.1565 27.3528L68.9171 27.3868L68.7461 27.3698L67.3268 26.8075L67.1216 26.7735L66.8993 26.7905L66.4376 26.8927H66.2153L65.7194 26.6883L65.3945 26.6371L64.9499 26.7564L64.8473 26.6542L64.7447 26.2453L64.6763 26.0578L64.5224 25.8704L64.3856 25.7511L64.112 25.5808L63.9239 25.5126L63.7529 25.4615H63.4964L63.3938 25.4104L63.1715 25.1718L62.9834 25.1037L62.2994 24.9844L61.4957 24.6777L61.2905 24.6266H61.1195L61.0169 24.6607L60.8972 24.5244L60.7946 24.2517L60.9485 23.9451L60.9998 23.8258L60.9656 23.6895L60.8459 23.6043L60.2816 23.4339L60.179 23.3487L60.1277 23.2465V22.9909L60.2645 22.3605L60.3158 22.2071L60.4184 22.0879L60.5894 22.0197L61.1024 22.0367L61.3076 22.0027L61.4786 21.8493L61.6496 21.6278L61.7693 21.5256L62.2139 21.3041L62.573 21.2018L62.8637 21.1678L63.1544 21.0826L63.3767 21.0485L63.6674 21.0996L63.8555 21.1678L64.0778 21.2189L64.3172 21.1848L64.9157 20.9292L65.1893 20.8611L65.5484 20.844L66.1298 20.9292L66.2495 20.9803L66.677 21.2189H66.9335L67.2584 21.1337L68.1989 20.7248L68.4212 20.6055L68.8658 20.0092L68.9 19.6684L68.9855 19.481L69.242 19.1231L69.6524 18.7313L69.7208 18.612L69.7721 18.4416L69.755 18.2031L69.7208 18.0497L69.5156 17.7601L69.2762 17.709L68.8316 17.7601H68.6777L68.4212 17.6749L68.2673 17.5386L68.1818 17.3511L68.0792 16.9933L68.0279 16.9252H67.9595L67.8398 17.0785L67.7714 17.2659L67.7372 17.5215L67.8056 17.8282L67.6859 18.0668L67.3097 18.4246L66.8651 18.3564L65.7536 16.2096L65.5142 15.5451L65.3945 14.8465L65.4287 14.0457L65.6168 13.313L66.4376 11.4558L66.848 10.5528L66.8993 10.229L66.848 9.83714L66.6599 9.13856L66.6257 8.78075L66.677 8.42295L66.7967 8.11625L67.1216 7.55398L67.703 5.85013L67.8911 5.52639L68.1305 5.32193L68.8658 4.89597L71.5163 3.78846L71.7728 3.72031L72.4226 3.75439L73.004 3.44769L73.517 1.98238L73.9787 1.62457L74.3036 1.7268L74.8508 2.27203L75.1415 2.35723L77.5697 2.06757L77.8262 1.91422L77.8775 1.62457L77.7065 1.24972L77.279 0.67041L77.7407 0.925988L78.5273 1.64161L78.9548 1.82903L79.4678 1.9483L79.9124 2.1698L80.7161 2.8343L81.0239 3.00469L81.6737 3.07284L82.238 3.43065L82.8707 3.61808L83.1614 3.77142L83.3666 4.04404L83.7599 4.72558L83.9822 4.98116L85.5725 6.20794L86.1026 6.4124L87.8639 6.71909L89.1977 7.36656L89.6423 7.75844L90.0698 7.97994L91.0103 8.2696L91.4549 8.52518L91.814 8.81483L92.7545 9.3771L93.1649 9.47933L94.1909 9.4623L97.6793 9.92234L98.2778 9.85418L98.5856 9.88826L99.5945 10.3142L99.9878 10.2972L100.432 10.0927L100.877 9.78603L101.253 9.39414L101.407 9.12152L101.92 7.77548L102.091 7.62213L102.331 7.55398L103.288 7.48583L103.887 7.57102L105.101 7.92883L105.443 7.94587L106.469 7.6051L106.862 7.58806L107.991 7.87771H109.393L110.727 8.28664L110.898 8.25256L111.205 8.11625L111.394 8.09921L111.547 8.20144L111.718 8.54222L111.872 8.62741L112.146 8.54222L112.608 8.08217L112.898 7.9629L113.309 8.01402L114.112 8.35479L114.506 8.42295L114.831 8.35479L115.429 8.08217L116.113 8.09921L116.421 8.03106L117.002 7.70733L117.071 7.63917L117.122 7.45175L117.242 7.43471L117.515 7.48583H117.618L117.738 7.41767L118.063 7.02578L118.353 6.80428L118.661 6.75317H119.345L119.961 6.49759L120.268 6.44648L120.576 6.58278L122.32 6.87244L122.851 7.0769L123.022 7.23025L123.466 7.86067L123.706 8.0481L123.945 8.09921L124.219 8.11625ZM84.461 10.2461L84.4097 10.0075V9.75195L84.4439 9.49637L84.6149 9.36007L84.7004 9.17264L84.8714 9.08745L84.9227 8.96818L84.8201 8.76372L84.632 8.50814L84.3755 8.23552L84.2387 7.94587L84.119 7.57102L84.0164 7.53694L83.8625 7.89475L83.6744 8.15033L83.3837 8.37183L82.5458 8.57629L82.3064 8.84891L82.4774 9.18968L83.1101 9.71787L83.3495 9.85418L83.3666 10.1268L83.3153 10.3142L83.3324 10.5868L83.4179 10.7572L83.5205 10.8765H83.6231L83.7086 10.7572L83.8283 10.4846L84.0335 10.2631L84.2729 10.3142H84.4097L84.461 10.2461Z" fill="#8E8C87"/>
<path id="KGZ1117" d="M139.985 44.2379L139.66 44.0164L139.489 43.7949L139.403 43.6246L139.284 43.3008L139.164 42.9941L139.061 42.8408L138.942 42.7386L138.651 42.6193H138.394L138.223 42.7045L137.881 42.9089L137.659 43.0964L136.958 43.4883L136.582 43.5905L135.847 43.6757H134.701L132.717 43.1475L131.264 43.1645L131.059 43.1304L130.922 43.0623L130.87 42.9771L130.819 42.7726V42.5511L130.888 42.3126L131.093 41.8526L131.11 41.614L131.059 41.4947L130.922 41.3755L130.682 41.3244L130.169 41.3073L129.998 41.3414L129.468 41.597L126.92 42.3126L126.424 42.3807L126.356 42.3126V42.2274L126.407 42.1252L126.63 41.9207L126.766 41.7503L126.818 41.6311L126.989 40.9665L127.023 40.728L127.074 40.5065L127.331 40.1317L127.382 39.9613L127.365 39.8761L127.16 39.6887L126.647 39.3649L125.86 39.0071L125.638 38.7856L125.621 38.5641L125.552 38.1552L125.313 37.5077L125.364 37.4225L125.535 37.5077L125.672 37.5248L125.775 37.4736L125.894 37.3714L126.168 36.6558L126.288 36.1446L126.373 35.2757L126.253 34.8838H126.1L125.86 35.0542L125.552 35.1734L125.039 35.3098L124.92 35.3779L124.612 35.5994L124.39 35.7016L124.236 35.7357L121.448 35.8039L120.576 35.5824L119.482 35.4801H119.294L119.106 35.5483L118.627 35.7698L118.302 35.855L117.943 35.8891L117.173 35.7868L117.054 35.7357L116.951 35.6846L116.866 35.4972L116.695 35.3268L116.506 35.2416H116.387L116.096 35.3609L115.84 35.429L115.737 35.3949L115.686 35.3098L115.771 35.1053L116.028 34.7304L116.199 34.4067L116.301 34.0319L116.335 33.6741L116.421 33.4185L116.472 33.2992L116.712 32.9073L116.763 32.8051L116.831 32.4302V32.2087L116.729 32.0384L116.387 31.8169L115.976 31.5954L115.737 31.5272L115.566 31.4761L115.463 31.5102L115.207 31.6465L114.899 31.7146L112.83 31.6124L112.762 31.5442L112.693 31.3227L112.437 31.016L112.676 30.573L112.83 30.4367L113.018 30.3345L113.138 30.3004L113.48 30.2663L114.454 30.3345L114.933 30.2834L115.07 30.1982L115.138 30.096L115.19 29.6359L115.327 29.1248L115.634 28.4432L115.583 28.3751H115.412L115.053 28.5625L114.831 28.5795L114.591 28.5114L114.095 28.324L112.83 27.6424L112.591 27.5913L111.445 27.5572L111.325 27.5402L110.863 27.3528L110.521 27.1313L109.923 26.9609L109.684 26.9438L109.307 27.0801L109.085 27.0972L108.914 27.029L108.692 26.9098L108.316 26.6201L108.11 26.5008L107.956 26.4497L107.871 26.4668L107.495 26.6371L106.315 26.9779L106.041 26.9949L105.802 26.9268L105.716 26.8246L105.665 26.7223L105.733 26.5008L105.87 26.3304L106.212 26.1089L106.52 25.8363L106.674 25.683L106.777 25.4785L106.862 25.1037V24.9503L106.828 24.7799L106.674 24.5244L106.435 24.3029L105.87 23.928L105.751 23.7917L105.699 23.6724L105.733 23.3998L105.716 23.2465L105.648 23.1442L105.391 23.0761L105.272 23.025L105.203 22.9398L105.186 22.7183L105.272 22.2071L105.306 22.0878L105.562 21.3552L105.58 21.0996L105.511 20.8951L105.426 20.6907L105.238 20.4862L104.964 20.2988L104.878 20.0943V19.8728L104.827 19.5661L104.759 19.3276L104.656 19.2083L104.519 19.1402L104.126 19.0379H103.904L103.835 19.1231L103.733 19.3276L103.613 19.515L103.476 19.6343L103.203 19.7706L102.074 19.8388L101.937 19.8217L101.8 19.6684L101.561 19.1743L101.373 18.9868L100.928 18.7824L100.826 18.7142L100.603 18.629L100.21 18.5949L100.09 18.4416L99.8852 17.7601L99.851 17.5726L100.45 17.1807L100.586 17.0785L100.638 16.9933L100.723 16.7207V16.397L100.757 16.2947L100.843 16.2266L101.065 16.2095L101.236 16.1584L101.441 16.0903L101.818 15.7665L102.023 15.6302L102.399 15.4599L102.655 15.2724L102.792 14.9146L102.929 14.8294L103.151 14.7954L104.314 14.8976L104.588 14.8805L106.742 14.3524H107.101L107.358 14.5057L107.546 14.5568L107.768 14.5739L107.905 14.5398L108.059 14.4716L108.435 14.199L108.538 14.0968L109.376 13.0745L109.701 12.8189L110.043 12.6144L111.12 12.1203L112.283 11.8477L112.471 11.7455L112.762 11.081L112.847 10.9958L112.95 10.9446L113.104 10.9617L114.078 11.1832L114.489 11.1661L114.967 11.3365H115.138L115.361 11.2854L116.182 10.8424L116.301 10.8083L116.455 10.8424L117.173 11.1491L117.669 11.2173L117.892 11.1491L118.063 10.8935L118.148 10.6209L118.302 10.4164L118.49 10.3824L122.149 10.4676L122.457 10.3994L122.868 10.2631L122.987 10.1609L123.073 10.0246L123.158 9.64971L123.227 9.47933L123.62 9.05336L123.791 8.93409H123.877L124.099 9.00225H124.201L124.304 8.96817L124.372 8.64444L124.219 8.11624H124.492L126.014 8.37182L126.51 8.21848L127.177 7.89474L127.416 7.84363L127.639 7.86067L128.083 8.01401H128.699L128.989 8.16736L129.263 8.38886L129.571 8.57629H129.827L130.631 8.1844L130.956 8.11624L131.982 8.15032L133.025 8.4059L133.111 8.54221L133.179 8.67852L133.282 8.79779L133.47 8.91706L133.863 8.74667L134.119 8.57629L134.256 8.50813L134.615 8.45702L134.957 8.50813L135.316 8.6274L136.189 9.1556L136.873 9.27487L138.531 9.12152L139.249 9.1556L139.951 9.05336L140.258 9.10448L140.891 9.34302L141.216 9.36006L141.49 9.25783L142.037 8.90002L142.362 8.78075L143.046 8.72963L144.072 8.83186L145.594 9.36006L146.226 9.73491L146.773 10.1949L147.03 10.3313L148.911 10.5187L150.142 11.0298L151.168 11.081L151.767 11.3195L152.348 11.3536L153.562 10.7402L154.161 10.6209L154.554 10.7231L154.674 10.9446L154.588 11.7455L154.605 12.2396L154.691 12.6655L154.845 13.0574L155.067 13.4493L155.614 13.9945L156.845 14.5739L157.341 15.102L158.042 16.7889L158.453 17.3511L159.239 17.6919L160.727 17.7771L161.975 17.5386L162.642 17.5556L166.079 18.3053L166.729 18.7483L166.934 18.9868L167.533 19.8728L168.542 20.7929L169.055 21.4574L169.465 22.173L169.927 22.8035L170.594 23.2124L170.696 23.5191L170.748 24.2006L170.816 24.5414L170.987 24.8481L171.175 25.1037L171.312 25.3933L171.329 25.8022L170.919 26.4497L170.166 26.7223L166.267 26.6712L165.481 26.8757L164.917 27.1142L164.66 27.3187L164.455 27.6254L164.318 27.9832L164.13 28.7499L163.993 29.1248L163.446 29.653L162.745 29.7552L162.027 29.7382L161.326 29.9085L160.453 30.5219L159.445 30.8968L158.23 31.7487L157.923 31.868H157.564L156.572 31.5613L156.247 31.6465L155.973 31.8339L155.238 32.5154L154.913 32.754L154.571 32.9073L153.853 33.0777L153.254 33.3162L151.51 34.5771L150.57 34.7475L150.279 34.9008L148.894 35.8891L146.808 36.7069L146.585 36.8262L146.38 37.0136L146.26 37.2351L146.141 37.7463L145.987 37.9507L145.44 38.2063L144.294 38.4448L142.858 39.5524L142.242 39.842L141.968 40.0294L141.712 40.3532L141.661 40.711L141.917 41.5118L141.968 41.8866L141.814 42.2274L141.524 42.4659L140.908 42.8408L140.669 43.0793L140.275 43.6586L139.985 44.2379Z" fill="#8E8C87"/>
<path id="KGZ1118" d="M139.985 44.2379L139.574 45.0388L139.352 45.3625L139.13 45.6181L137.556 46.9641L137.283 47.0663L136.975 47.0323L136.359 46.7596L134.342 46.47L133.794 46.487L133.264 46.6574L131.229 47.7479L130.99 47.8331L130.699 47.8672L129.913 47.816L128.716 48.1568L128.288 48.1398L127.827 47.9012L126.954 47.5264L126.082 47.356L125.586 47.373L124.697 47.6627L122.765 47.5264L122.303 47.373L121.482 46.9471L121.055 46.8619L119.396 47.2538L118.781 47.5093L118.387 47.9012L118.165 48.225L117.584 48.6509L117.327 48.9065L117.173 49.2984L117.242 49.6903L117.344 50.0822L117.396 50.4911L117.259 50.9L117.019 51.1556L116.404 51.4964L115.891 51.9564L115.48 52.5698L115.224 53.3024L115.121 55.3641L115.07 55.7049L114.899 55.9945L114.078 56.625L113.685 57.2554L113.189 58.6866L112.83 59.2659L112.402 59.6749L111.069 60.5609L110.573 61.055L110.316 61.1402L110.094 60.8846L109.854 59.6408L109.701 59.3L109.239 59.1637L108.794 59.6578L108.333 60.3223L107.802 60.6461L107.512 60.5779L106.93 60.2542L106.64 60.1519L106.263 60.186L104.878 60.8676L104.673 61.1402L104.502 61.498L104.246 61.8388L103.938 62.0432L103.613 62.1114L103.271 62.0943L102.279 61.8388L101.937 61.8217L101.612 61.8558L100.894 62.1625L100.535 62.1966L100.278 61.9069L100.142 61.5491L99.9023 60.6631L99.8681 60.2712L99.9878 59.8793L100.193 59.6067L100.347 59.3341L100.313 58.9763L100.159 58.7548L99.7313 58.3459L99.5603 58.0903L99.4406 57.6984L99.3551 56.5568L99.0815 55.6878L98.654 55.2619H98.0897L97.4399 55.6538L94.0712 58.3629L93.9173 58.4481L93.7292 58.4992L93.5411 58.5674L93.4556 58.7207L93.4043 58.9252L93.2846 59.0956L92.9939 59.1637L92.7032 59.0104L92.4125 58.8229L92.1218 58.7037L91.7456 58.7548L90.9932 59.1126L90.5999 59.1637L90.0356 59.0274L89.4713 58.7889L88.1204 57.8688L87.7784 57.6984L87.4535 57.7325L87.4022 57.8006L86.9918 57.6302L85.7948 57.6473L85.5212 57.6132L85.3331 57.5621L85.2476 57.4939L85.0082 57.1702L83.8625 56.9828L83.6402 56.8635L83.5205 56.7442L83.6744 56.2842L83.6915 56.1649V55.9434L83.5547 55.6708L83.3495 55.4663L83.1785 55.3641L81.041 54.5803L80.7161 54.3759L80.0834 53.8477L79.8269 53.541L79.7072 53.3706L79.5875 53.115L79.4678 52.9446L78.3734 51.8883L78.1169 51.7349L77.963 51.5816L77.8775 51.4793L77.8433 51.1215L77.8091 50.9682L77.7236 50.7467L77.6381 50.6104L77.5355 50.5081L77.1422 50.2526L75.4493 48.7532L75.1757 48.3442L76.5437 46.6915L76.7489 46.3678L76.766 46.1974L75.5861 45.2262L75.5519 45.0728L75.5861 44.9365L75.7058 44.6469L75.8084 44.5276L75.9281 44.4594L76.1675 44.4765H76.3214L76.4582 44.4083L76.6292 44.2039L76.8515 44.0505L77.108 43.9994L77.2277 43.9313L77.6381 43.6586L77.7065 43.6416L78.4931 43.6075L79.7243 43.3349L79.9466 43.369L80.2202 43.4883L80.3912 43.5394L80.6135 43.4883L80.7161 43.386L80.528 43.1645L80.1176 42.5682L80.0321 42.4148L79.8269 41.9037V41.7333L79.8953 41.6481L80.0663 41.5629L81.2975 41.1199L81.6908 40.8814L81.9473 40.7791L82.1696 40.711L83.1272 40.5576L83.3837 40.4724L83.9309 40.1998L84.3926 40.0465L84.5294 39.9442L84.6491 39.825L85.1963 39.0753L85.2818 38.8878L85.4699 38.3085L85.658 37.5248L85.7948 37.0988L85.8461 36.8773L85.8803 36.1958L85.9145 35.9913L86.1197 35.5313L86.171 35.3949L86.1539 35.1905L86.0171 35.0542L85.5725 34.7645H85.2647L85.145 34.7986L85.0082 34.9179L84.9569 35.1053L84.7688 35.2586L82.8365 36.0935L82.58 36.1276L82.3235 36.0254L82.1354 36.0083L81.8276 36.0254L81.6737 36.0935L81.3488 36.3661L81.0239 36.5365L80.8187 36.5536L80.6648 36.5024L80.4596 36.3661L79.6217 36.2639L78.8351 36.298L78.476 36.3491L78.2366 36.4343L78.0827 36.5365H77.8775L77.792 36.4854L77.5526 36.2639L77.3816 36.1446L77.1764 36.0594L76.8173 36.0083L76.5608 36.0254L76.0649 36.1787L75.8939 36.1958L75.7058 36.1617L75.3809 35.9913L75.0389 35.6676L74.9705 35.6164L74.6627 35.5313L74.5601 35.4631L74.4062 35.2586L74.3036 35.1394L74.1497 35.0712L73.9616 35.0031L73.688 35.0542L73.6025 34.9008L73.3802 34.3215L73.2263 34.0659H73.1579L73.1237 33.9467L73.2092 33.8785L73.6025 33.5207L73.688 33.4525L73.8932 33.4185L74.5259 33.5037L74.8166 33.5889L74.9534 33.64L75.0902 33.7422L75.227 33.8785L75.3125 34.0319L75.3809 34.2193L75.398 34.3726V34.6452L75.3638 34.9519L75.4664 35.1223L75.6545 35.2586L76.1675 35.429L76.3727 35.4461L76.4753 35.3779V35.2246L76.2872 33.5889L76.2017 33.1459L76.1333 32.9755L76.0649 32.8732L75.9623 32.8221L75.4664 32.7029L74.7995 32.6688L74.2523 32.5495L74.1668 32.4643V32.3621L74.2523 31.2375L74.2352 30.9138L74.201 30.6071L74.0813 30.3345L73.9445 30.2152L73.5854 30.096L73.4144 30.0108L73.2947 29.9937L72.8843 30.2152L72.7817 30.2323L72.6962 30.1982L72.4055 29.9426L71.8925 29.7211L71.8412 29.7552L71.8583 29.9596L71.7899 30.2152L71.7044 30.3345L71.5847 30.4367L71.4479 30.4708L71.3111 30.4538L71.1401 30.3686L70.952 30.2152L70.61 29.7722L70.4903 29.67L70.268 29.4996L70.2338 29.3292L70.3535 29.2611H70.5587L70.7468 29.1929L70.8323 29.1077L70.9862 28.801L71.3453 28.2899L71.4479 28.0343L73.2947 27.8469L73.5512 27.8639L73.8419 27.7446L74.4746 27.2335L74.6285 27.4891L74.7653 27.8639L74.8337 27.9661L75.056 28.1876L75.227 28.5114L75.4151 28.6988L75.6545 28.801L75.911 28.784L76.2872 28.6647H76.3727L76.4753 28.784L76.4924 29.0396L76.4069 29.4996L76.4411 29.7552L76.5266 29.9256L76.6634 29.9767L76.766 29.8915L76.8344 29.7722L76.9199 29.2611L76.9541 29.0907L77.0225 28.9544L77.1593 28.8181L77.5868 28.5114L77.6894 28.4773L77.8433 28.5114L78.0485 28.6818L78.2366 28.767H78.3563L78.5273 28.6818L78.6983 28.5455L78.8009 28.4091L78.8522 28.2558L78.818 27.898L78.8351 27.7446L78.8864 27.6083L79.0061 27.4209L79.3994 26.9949L79.4678 26.8246L79.4849 26.6542L79.4165 26.3134L79.4336 26.0578L79.4849 25.8534L79.6217 25.6148L79.8098 25.3422L79.9637 25.2059L80.1518 25.0696V24.9162L80.0492 24.7799L79.9124 24.7118L79.5191 24.6095L79.4849 24.371L79.4678 24.1495L79.7414 22.4116L79.7927 22.2071L80.015 22.1219H80.3912L81.0068 22.2242L81.2633 22.3434L81.4343 22.3945L84.1703 21.9686L84.5294 21.9856L84.6149 22.0708L84.7346 22.3775L84.9398 22.3605L85.2989 21.8323L85.8974 21.0144L86.2052 20.8611L87.4022 20.7418H87.5219L87.8639 20.8781L87.9836 20.9122L88.0862 20.8951L88.1717 20.827L88.1546 20.6055L88.0349 20.3329L87.3167 19.1743L87.026 18.4246L87.197 18.3223L89.4371 17.9645L89.6423 17.8793L89.8475 17.6919L89.9843 17.7089L90.1382 17.7771L90.5486 18.2883L91.0445 18.1179L91.2497 17.9475L91.3181 17.8793L91.5575 17.8112L92.1731 18.0156L94.5329 18.1179L94.7039 18.0838L95.1485 17.9304L95.3366 17.7941L95.5589 17.743L96.1916 18.0497L96.3113 18.0838L96.5336 18.0667L97.6622 17.7941L97.9187 17.6749L98.0042 17.6578L98.141 17.8112L98.2094 17.9986L98.2265 18.1179L98.1752 18.612L98.2778 18.629L98.5001 18.5609L99.3038 18.0327L99.509 17.7941L99.5603 17.7089L99.851 17.5726L99.8852 17.7601L100.09 18.4416L100.21 18.5949L100.603 18.629L100.826 18.7142L100.928 18.7824L101.373 18.9868L101.561 19.1743L101.8 19.6684L101.937 19.8217L102.074 19.8388L103.203 19.7706L103.476 19.6343L103.613 19.515L103.733 19.3276L103.835 19.1231L103.904 19.0379H104.126L104.519 19.1402L104.656 19.2083L104.759 19.3276L104.827 19.5661L104.878 19.8728V20.0943L104.964 20.2988L105.237 20.4862L105.426 20.6907L105.511 20.8951L105.579 21.0996L105.562 21.3552L105.306 22.0878L105.272 22.2071L105.186 22.7183L105.203 22.9398L105.272 23.025L105.391 23.0761L105.648 23.1442L105.716 23.2465L105.733 23.3998L105.699 23.6724L105.75 23.7917L105.87 23.928L106.434 24.3029L106.674 24.5244L106.828 24.7799L106.862 24.9503V25.1037L106.776 25.4785L106.674 25.683L106.52 25.8363L106.212 26.1089L105.87 26.3304L105.733 26.5008L105.665 26.7223L105.716 26.8246L105.802 26.9268L106.041 26.9949L106.315 26.9779L107.495 26.6371L107.871 26.4667L107.956 26.4497L108.11 26.5008L108.315 26.6201L108.692 26.9098L108.914 27.029L109.085 27.0972L109.307 27.0801L109.683 26.9438L109.923 26.9609L110.521 27.1313L110.863 27.3528L111.325 27.5402L111.445 27.5572L112.59 27.5913L112.83 27.6424L114.095 28.324L114.591 28.5114L114.831 28.5795L115.053 28.5625L115.412 28.3751H115.583L115.634 28.4432L115.326 29.1248L115.19 29.6359L115.138 30.096L115.07 30.1982L114.933 30.2834L114.454 30.3345L113.48 30.2663L113.138 30.3004L113.018 30.3345L112.83 30.4367L112.676 30.573L112.437 31.016L112.693 31.3227L112.761 31.5442L112.83 31.6124L114.899 31.7146L115.207 31.6465L115.463 31.5102L115.566 31.4761L115.737 31.5272L115.976 31.5954L116.387 31.8169L116.729 32.0384L116.831 32.2087V32.4302L116.763 32.8051L116.712 32.9073L116.472 33.2992L116.421 33.4185L116.335 33.6741L116.301 34.0319L116.199 34.4067L116.028 34.7304L115.771 35.1053L115.686 35.3098L115.737 35.3949L115.839 35.429L116.096 35.3609L116.387 35.2416H116.506L116.694 35.3268L116.865 35.4972L116.951 35.6846L117.054 35.7357L117.173 35.7868L117.943 35.8891L118.302 35.855L118.627 35.7698L119.106 35.5483L119.294 35.4801H119.482L120.576 35.5824L121.448 35.8039L124.236 35.7357L124.389 35.7016L124.612 35.5994L124.92 35.3779L125.039 35.3098L125.552 35.1734L125.86 35.0542L126.099 34.8838H126.253L126.373 35.2757L126.288 36.1446L126.168 36.6558L125.894 37.3714L125.775 37.4736L125.672 37.5248L125.535 37.5077L125.364 37.4225L125.313 37.5077L125.552 38.1552L125.621 38.5641L125.638 38.7856L125.86 39.0071L126.647 39.3649L127.16 39.6887L127.365 39.8761L127.382 39.9613L127.331 40.1317L127.074 40.5065L127.023 40.728L126.989 40.9665L126.818 41.631L126.766 41.7503L126.63 41.9207L126.407 42.1252L126.356 42.2274V42.3126L126.424 42.3807L126.92 42.3126L129.468 41.597L129.998 41.3414L130.169 41.3073L130.682 41.3244L130.922 41.3755L131.058 41.4947L131.11 41.614L131.093 41.8526L130.887 42.3126L130.819 42.5511V42.7726L130.87 42.9771L130.922 43.0623L131.058 43.1304L131.264 43.1645L132.717 43.1475L134.701 43.6757H135.846L136.582 43.5905L136.958 43.4883L137.659 43.0964L137.881 42.9089L138.223 42.7045L138.394 42.6193H138.651L138.942 42.7386L139.061 42.8408L139.164 42.9941L139.284 43.3008L139.403 43.6246L139.489 43.7949L139.66 44.0164L139.985 44.2379Z" fill="#8E8C87"/>
<path id="KGZ1119" d="M43.7801 62.7929L44.3444 62.7588L45.0968 62.4692L46.4648 62.0943L46.7042 62.1284L46.8581 62.2817L46.9778 62.5884L46.9607 62.7929L46.8581 63.1677V63.3722L46.8923 63.5426L46.9949 63.7641L46.9607 63.9515L46.8581 64.0878L46.7042 64.173L46.6187 64.2582L46.67 64.3945L46.8068 64.5308L47.4566 64.8034L47.6789 64.9738L47.7815 65.1783L47.7986 65.502L47.696 65.7235L47.3711 66.0132L47.3027 66.0984L47.3369 66.2006L47.8328 66.4391L47.9867 66.5754L48.0722 66.7288L48.0893 66.9333L48.038 67.0696L47.9696 67.2059L47.9525 67.3592L48.0038 67.5637L48.1406 67.8704L48.1748 68.0919L48.1235 68.2793L48.038 68.4497L47.9696 68.6371L47.9354 68.8075L47.9525 68.9438L48.0038 69.0631L48.1748 69.1483L48.5681 69.2335L48.7904 69.3187L49.0469 69.489L49.2179 69.6253L49.3718 69.8639L49.6112 70.358L49.9361 70.8692L50.1926 70.9884H50.3465L50.6201 70.784L50.774 70.7158L50.9279 70.7499L51.0305 70.8692L51.116 71.2951L51.2015 71.4996L51.4067 71.687L51.7487 72.0959L52.0907 72.7434L51.8855 72.999L51.8171 73.2205L51.7487 73.3227L51.5093 73.5101L50.9792 73.7828L50.2097 74.0383L49.4744 74.3791L49.064 74.7369L48.8759 74.8562L48.6536 74.9584L48.1577 75.0947L47.8157 75.2481L47.2685 75.3503L46.2938 75.1799L45.815 75.231L45.5585 75.2992L45.2336 75.4355L45.0626 75.4696L44.9087 75.4525L44.6009 75.2481L44.4812 75.1969L44.2589 75.231L44.0195 75.214L43.6946 75.1458L43.4894 75.0606L43.1474 74.8051L42.9422 74.6517L42.7028 74.5495L40.4285 74.0724L40.1891 73.9872L39.9668 73.8679L39.8471 73.7487L39.7616 73.4761L39.6419 73.3909L39.4196 73.3397H39.146L38.9579 73.4079L38.8211 73.5101L38.6672 73.7487L38.4791 73.9361L38.2055 74.1065L37.0085 74.3961L36.6323 74.7369L36.3074 75.3844L36.2561 75.5207L36.1364 76.083L35.9996 76.4237L35.7431 76.2022L35.213 75.8785L34.9394 75.9126L34.4093 76.1511L33.9647 76.2363L33.8108 76.2874L33.7082 76.3726L33.4859 76.5941L33.3833 76.6963L32.8361 76.986L32.6309 77.1393L32.135 77.7187L31.964 77.8379H31.7759L30.8867 77.6675L30.2369 77.7016L29.5871 77.872L29.0912 78.2128L28.7663 78.775L28.544 79.4225L28.2533 79.9677L27.7574 80.2233L27.3299 80.1041L26.9537 79.8655L26.6117 79.7122L26.321 79.8485L26.1329 80.07L26.0132 80.1041L25.8764 80.087H25.637L25.4489 80.1552L24.9872 80.4107L24.5597 80.4789L24.0809 80.3937L23.6705 80.1552L23.4482 79.7462V79.4907L23.5166 79.2351L23.5508 78.9454L23.4653 78.6728L23.3114 78.5365L22.9523 78.3832L22.7813 78.2468L22.4735 77.2757L22.2683 76.8497L21.8921 76.56L21.6185 76.526L21.0542 76.6282L20.7806 76.6112L20.5925 76.4919L20.2334 76.1852L20.0282 76.1L19.7546 76.1341L19.2587 76.3215L19.0022 76.3726L18.8483 76.4237L18.6773 76.6452L18.5918 76.7134L18.4379 76.6963L18.113 76.6112L17.942 76.5771L17.7539 76.6623L16.3688 77.6675L16.0952 77.7357L15.8216 77.6335L15.8045 77.3608L15.9755 76.6452L15.9584 76.3045L15.89 75.9296L15.7532 75.7251L15.5138 75.9126L15.0692 76.8497L14.9495 77.0371L14.693 77.1223L14.4365 77.0371L13.9235 76.7304L13.5986 76.6452H13.2566L12.9488 76.7475L12.6752 76.986L12.4358 77.3268L12.3161 77.429L11.8373 77.2245L11.2217 77.1564L10.0247 77.3949L9.40909 77.2075L8.77639 76.8497L8.16079 76.6452L7.52809 76.56L6.17719 76.6452L5.90359 76.7645L5.39059 77.2075L5.13409 77.3779L4.84339 77.4801L4.55269 77.5142H4.21069L3.54379 77.6164L3.21889 77.5142L2.84269 77.1223L2.75719 77.0712L2.62039 77.1223L2.51779 77.412L2.43229 77.5653L1.81669 77.8038L1.59439 77.3268L1.67989 74.9414L1.61149 74.5665L1.50889 74.2258L1.28659 73.9531L1.01299 73.7316L0.77359 73.459L0.67099 73.0842L0.72229 72.3004L0.89329 71.5337L1.59439 69.3698L1.90219 68.7053L1.97059 68.5178V68.3815L2.02189 68.3475L2.24419 68.3815L2.70589 68.8927L3.44119 70.1706L4.92889 69.6424L4.91179 69.3698L4.55269 68.7223L4.56979 68.586L4.51849 68.3304L4.46719 68.2111L4.33039 67.5637L4.43299 67.0525L4.68949 66.5925L4.99729 66.1324L5.04859 65.9961L5.11699 65.6383L5.18539 65.5531L5.30509 65.6043L5.47609 65.9109L5.57869 65.9961L5.81809 66.0302L6.07459 65.9961L12.1622 63.8152L12.7094 63.8663L14.9153 65.3146L15.2573 65.4168L16.0268 65.3827L16.3688 65.3998L16.7108 65.5702L16.9331 65.8258L17.1383 66.0984L17.3777 66.371L17.6513 66.5243L18.1985 66.5925L18.797 66.8481L20.0282 67.0355L20.4044 67.1548L20.7635 67.4103L20.9345 67.7681L20.6951 68.2111L20.4557 68.3815L20.1992 68.5178L19.9598 68.6882L19.7546 68.9608L19.6178 69.3357L19.5665 69.6935L19.6862 69.9661L20.0282 70.0854L20.165 69.898L20.2847 69.455L20.3873 69.2846L20.5754 69.1823L21.2252 69.1653L21.5672 69.046L21.875 68.8416L22.1315 68.569L22.3538 68.2111L22.4735 67.5126L22.4564 66.8821L22.5248 66.371L22.9352 65.9791L23.927 65.6383L24.1493 65.5191L24.7478 65.0079L24.9017 64.8205H24.9872L25.124 64.9227L25.3976 64.7864L25.5173 64.6842L25.7225 64.616L26.5433 64.8034L27.0221 64.6331L27.5351 64.2582L27.7916 63.7641L27.4838 63.27L28.031 62.6907L28.9373 62.5373L30.7328 62.8099L31.2287 62.7588L31.4339 62.418L31.5707 61.958L31.8101 61.6002L32.0324 61.532L32.1863 61.6513L32.3402 61.8558L32.4941 62.0602L32.6993 62.1454L32.9558 62.1625L33.4517 62.1114L33.7595 62.1454L34.2383 62.5884L34.9394 62.8099L35.0933 63.0485L35.213 63.3552L35.4866 63.6278L35.8286 63.8322L36.1706 63.9686L36.9059 64.1049L37.2821 64.0708L37.4189 63.8493L37.4531 63.4915L37.5557 63.0996L37.8293 62.861L38.1029 63.0825L38.3252 63.5426L38.4278 63.9515V64.7864L38.5304 65.0931L38.8382 65.2294L39.0434 65.1783L39.8642 64.6842L40.1207 64.4456L40.2746 64.173L40.5653 63.5255L41.0441 63.0485L41.6084 63.0144L42.224 63.1677L42.8396 63.2189L43.0961 63.1507L43.4039 63.2529L43.6604 63.287L43.8656 63.2359L43.9682 63.0144L43.8827 62.861L43.7801 62.7929ZM30.7328 67.2229L30.6131 67.1377L29.7581 66.7799L29.3306 66.4903L29.0741 66.1665L28.8518 65.6043L28.5953 65.1101L28.2362 64.9057L27.7574 65.1613L27.4838 65.7917L27.3983 66.1495L27.3812 66.4903L27.4667 66.814L27.8429 67.6489L28.031 67.9045L28.2362 68.0067L28.6466 68.0919L28.8176 68.2452L28.886 68.8245L28.2362 69.8639L28.2533 70.375L28.4414 70.4773L28.6637 70.341L28.886 70.1365L29.057 70.0172L29.3477 70.0343L29.4161 70.2047L29.4674 70.4262L29.6384 70.5965L29.8778 70.6136L30.596 70.4091H31.1261L31.3313 70.3239L31.5023 70.0854L31.5365 69.455L30.8525 68.7223L30.8183 68.1941L31.0577 67.9556L31.7759 67.4615L31.8785 67.1377L31.7759 66.9503L31.5707 66.9162L31.1774 67.0184L30.9209 67.2059L30.7328 67.2229ZM39.83 70.0343L39.9839 69.7787L40.3259 68.5008L40.2575 68.2963L39.8813 68.4156L39.317 68.8416L39.0434 68.9608L38.6501 68.9949L38.4107 69.2846L38.5646 69.5742L38.8895 69.8128L39.1973 69.9661L39.5906 70.0854L39.83 70.0343ZM22.2341 71.0907L20.3531 70.4602H20.1308L20.1137 70.7669L20.2163 71.0907L20.4215 71.3974L20.9516 71.7552L21.1055 71.9596L21.5501 72.7093L21.6356 72.7775L22.4393 72.13L22.8839 71.9085L23.3798 71.8063L23.5508 71.67L23.5679 71.2951L23.4482 70.9373L23.2601 70.8862L22.7813 71.1077L22.2341 71.0907Z" fill="#8E8C87"/>
<path id="KGZ1120" d="M60.7946 24.2517L60.8972 24.5243L61.0169 24.6606L61.1195 24.6266H61.2905L61.4957 24.6777L62.2994 24.9844L62.9834 25.1036L63.1715 25.1718L63.3938 25.4103L63.4964 25.4615H63.7529L63.9239 25.5126L64.112 25.5807L64.3856 25.7511L64.5224 25.8704L64.6763 26.0578L64.7447 26.2452L64.8473 26.6541L64.9499 26.7564L65.3945 26.6371L65.7194 26.6882L66.2153 26.8927H66.4376L66.8993 26.7905L67.1216 26.7734L67.3268 26.8075L68.7461 27.3698L68.9171 27.3868L69.1565 27.3527L69.2933 27.2846L69.3617 27.2164L69.584 26.9438L69.6695 26.8756L70.0286 26.6882L70.2167 26.6371L70.3535 26.6541L70.6784 26.7223L70.8152 26.7564L71.0375 26.8756L71.1914 27.1653L71.4479 28.0343L71.3453 28.2898L70.9862 28.801L70.8323 29.1077L70.7468 29.1929L70.5587 29.261H70.3535L70.2338 29.3292L70.268 29.4996L70.4903 29.67L70.61 29.7722L70.952 30.2152L71.1401 30.3685L71.3111 30.4537L71.4479 30.4708L71.5847 30.4367L71.7044 30.3345L71.7899 30.2152L71.8583 29.9596L71.8412 29.7552L71.8925 29.7211L72.4055 29.9426L72.6962 30.1982L72.7817 30.2322L72.8843 30.2152L73.2947 29.9937L73.4144 30.0107L73.5854 30.0959L73.9445 30.2152L74.0813 30.3345L74.201 30.6071L74.2352 30.9138L74.2523 31.2375L74.1668 32.3621V32.4643L74.2523 32.5495L74.7995 32.6688L75.4664 32.7028L75.9623 32.8221L76.0649 32.8732L76.1333 32.9754L76.2017 33.1458L76.2872 33.5888L76.4753 35.2245V35.3779L76.3727 35.446L76.1675 35.429L75.6545 35.2586L75.4664 35.1223L75.3638 34.9519L75.398 34.6452V34.3726L75.3809 34.2193L75.3125 34.0318L75.227 33.8785L75.0902 33.7422L74.9534 33.6399L74.8166 33.5888L74.5259 33.5036L73.8932 33.4184L73.688 33.4525L73.6025 33.5207L73.2092 33.8785L73.1237 33.9466L73.1579 34.0659H73.2263L73.3802 34.3215L73.6025 34.9008L73.688 35.0541L73.9616 35.003L74.1497 35.0712L74.3036 35.1393L74.4062 35.2586L74.5601 35.4631L74.6627 35.5312L74.9705 35.6164L75.0389 35.6675L75.3809 35.9913L75.7058 36.1617L75.8939 36.1957L76.0649 36.1787L76.5608 36.0253L76.8173 36.0083L77.1764 36.0594L77.3816 36.1446L77.5526 36.2639L77.792 36.4854L77.8775 36.5365H78.0827L78.2366 36.4343L78.476 36.3491L78.8351 36.298L79.6217 36.2639L80.4596 36.3661L80.6648 36.5024L80.8187 36.5535L81.0239 36.5365L81.3488 36.3661L81.6737 36.0935L81.8276 36.0253L82.1354 36.0083L82.3235 36.0253L82.58 36.1276L82.8365 36.0935L84.7688 35.2586L84.9569 35.1053L85.0082 34.9178L85.145 34.7986L85.2647 34.7645H85.5725L86.0171 35.0541L86.1539 35.1905L86.171 35.3949L86.1197 35.5312L85.9145 35.9913L85.8803 36.1957L85.8461 36.8773L85.7948 37.0988L85.658 37.5247L85.4699 38.3085L85.2818 38.8878L85.1963 39.0752L84.6491 39.8249L84.5294 39.9442L84.3926 40.0464L83.9309 40.1998L83.3837 40.4724L83.1272 40.5576L82.1696 40.7109L81.9473 40.7791L81.6908 40.8813L81.2975 41.1199L80.0663 41.5629L79.8953 41.6481L79.8269 41.7333V41.9036L80.0321 42.4148L80.1176 42.5681L80.528 43.1645L80.7161 43.386L80.6135 43.4882L80.3912 43.5393L80.2202 43.4882L79.9466 43.369L79.7243 43.3349L78.4931 43.6075L77.7065 43.6416L77.6381 43.6586L77.2277 43.9312L77.108 43.9994L76.8515 44.0505L76.6292 44.2038L76.4582 44.4083L76.3214 44.4765H76.1675L75.9281 44.4594L75.8084 44.5276L75.7058 44.6468L75.5861 44.9365L75.5519 45.0728L75.5861 45.2262L76.766 46.1974L76.7489 46.3677L76.5437 46.6915L75.1757 48.3442L73.3973 47.4241L73.3289 47.3219L73.2605 47.1685L73.2263 46.8619L73.2434 46.5892L73.2263 46.4018L73.1579 46.2485L72.8501 46.0099L72.7475 45.8907L72.7133 45.7032L72.7646 45.4136L72.7475 45.3113L72.6791 45.2432L72.5081 45.175L72.2687 45.2091L72.0122 45.5158L71.1914 46.8789L71.0888 46.9811L70.5074 47.373L70.3193 47.5604L70.1825 47.7308L70.1312 47.9012L70.1141 48.0546L70.1312 48.4805L70.1141 48.6679L69.9602 48.7361L69.755 48.685L69.4472 48.4294L69.2591 48.3442L68.9855 48.3101L68.8829 48.259L68.8316 48.1738L68.7803 47.833L68.6606 47.6967L68.2673 47.6627L68.1818 47.5604L68.2673 47.356L68.4554 47.1345L69.7721 45.8907L69.8576 45.7544V45.5499L69.7892 45.3965L69.413 44.9195H69.3275L68.8658 45.0047L68.6948 45.1069L68.6435 45.2773L68.729 45.584L68.7461 45.7544L68.6948 45.8395L68.6093 45.8907L68.387 45.9588L68.216 45.9759L66.8993 45.8566L66.3863 45.8736L66.2153 45.8225L66.0614 45.9929L65.7707 46.47L65.6681 46.6063L65.48 46.7255L65.3603 46.8448L65.2577 47.0322L65.1209 47.3219L64.9841 47.373L64.7618 47.4071L64.6763 47.3219L64.5737 47.1345L64.4198 46.947L64.3514 46.8959L64.1633 46.947L63.3596 47.5434L63.2228 47.6967L63.1031 47.8501L63.0347 48.0886L63.0518 48.259L63.086 48.5487L63.0176 48.9065V49.0087L63.1373 49.3665V49.6051L63.086 49.7243L62.9492 49.8777L62.744 50.0481L61.8377 50.457L61.4102 50.9L61.1366 51.1385L60.7946 51.0533L59.8883 51.1215L59.5634 50.9L59.3582 50.5933L59.1017 50.4229L57.956 50.9511L57.2378 51.4623L57.0497 51.4963L57.0839 51.1556L57.0155 50.5422L56.417 50.3888L54.4334 50.5763L53.7665 50.4911L53.168 50.2184L52.6892 49.6903L52.0223 48.6679L51.7145 48.5487L51.3383 48.5146L51.0647 48.3783V47.9012L51.0818 47.6797L50.9621 47.5264L50.1413 47.4582L49.6967 47.3219L49.3718 47.1174L48.9272 46.4189L48.722 46.2825L48.4484 46.504L48.3629 46.6574L48.1748 47.2026L48.0722 47.2878L47.4908 47.373L46.1399 47.7819L46.3451 47.3049L46.4477 46.93V46.5381L46.3109 45.4647L46.2767 44.8683L46.2083 44.3231L46.0373 43.9312L45.644 43.6927L45.2678 43.7438L44.8916 43.9823L44.5667 44.289L44.105 44.5617L43.8314 44.4253L43.592 44.0846L43.2329 43.7779L42.0017 43.9823L41.5913 43.7949L41.5058 42.926L41.5571 42.0399L41.4545 41.3754L41.2151 40.7621L39.7616 38.5811L39.6419 38.4789L39.5051 38.4278L39.4025 38.513V38.9389L39.2828 39.0582L39.1289 38.99L39.0434 38.6493L38.8724 38.5811L38.804 38.7004L38.7527 38.9219L38.6501 39.0923L38.5133 39.0412L38.4962 38.7856L38.7698 37.627V37.201L38.7014 36.8091L38.4962 36.5195L38.1542 36.4683L37.8122 36.6047L37.6241 36.8432L37.3163 37.627L37.4873 37.9848L37.9148 38.547L37.9661 38.9219L37.8977 39.3308L37.6925 40.0124L37.1624 41.1369L36.7349 41.5799L36.2219 41.6821L35.5379 41.3925L34.8026 40.6939L34.5974 40.6428L34.4948 40.9154L34.6316 44.4594L34.5461 45.158L34.2041 45.4647L33.1439 44.5446L32.7506 45.0558L32.5967 45.4477H32.3915L32.1863 45.2432L32.0324 44.9535L31.8443 44.1868L31.6733 43.9312L31.2971 43.8971L30.9893 44.0846L30.938 44.3572L31.0235 44.732L31.0577 45.158L30.9038 45.5669L30.6473 45.3965L30.2711 44.732L30.0146 44.5276L29.4332 44.4594L29.1596 44.289L28.8347 44.0505L28.4927 43.8801L27.7574 43.7438L27.0905 43.846L26.7827 43.812L26.5091 43.5564L26.2868 43.2497L26.0303 42.9941L25.7567 42.7896L25.466 42.6704L25.1069 42.7045L24.8162 42.8408L24.5597 42.8919L24.3716 42.6022L24.3374 42.2444L24.5768 40.9836L24.5426 40.5576L24.3887 40.1316L23.5166 38.6322L23.2601 38.2744L22.9694 38.087L22.4393 38.1722L20.5583 39.2627L20.0282 39.4671L19.652 39.4501L19.4126 39.2286L19.0364 38.513L18.8141 38.2233L18.5576 37.9848L17.9762 37.627L15.7874 37.3884L15.2231 37.0817L14.9324 36.4172L15.2573 35.889L17.771 34.4067L18.6944 33.674L19.1903 33.4355L19.652 33.1288L20.0282 32.5836L20.4728 31.5953L21.1568 30.8116L22.6787 29.4996L23.1575 29.2099L24.6965 29.0225L25.2266 28.818L25.3976 28.4773L25.4489 27.2846L25.7225 26.5178L26.3552 26.3475L27.1247 26.3815L27.7574 26.2282L29.9462 24.5925L31.2287 24.2176L31.793 23.8257L32.0324 23.042L31.9811 23.0249L32.3744 22.9057L34.4264 23.3657L34.6145 23.3998L34.8368 23.3827L35.4011 23.2124L35.726 23.042L35.8799 22.9909L37.8122 22.9397L38.2397 23.059L40.8218 24.2176L41.0441 24.2858L41.3519 24.2176L41.8478 24.3199L43.5749 25.0355L43.8656 25.1548L44.1563 25.3251L44.5325 25.6659L45.5414 25.7L45.8321 25.6318L46.1228 25.4615L46.4648 25.0525L46.6187 24.6606L46.7726 24.0132L46.8752 23.7406L47.012 23.485L47.2172 23.2805L47.5763 23.1272L47.8499 23.042L49.0127 22.8546H49.5086L49.7138 22.9227L49.9361 23.1442L50.0558 23.3657L50.1413 23.5872L50.3294 23.7065L50.603 23.7746L51.0989 23.7406L51.629 23.7746L52.1591 24.1154L52.4327 24.2006L53.0483 23.9961L53.3048 23.9791L53.8007 24.2858L54.6557 24.6095L54.9806 24.7799L55.2713 25.0014L56.0066 25.7852L56.2289 25.8874L56.4854 25.9045L56.9642 25.8363L57.2891 25.717L57.4772 25.5296L57.5114 25.3422L57.5285 25.1036L57.5627 24.8821L57.8192 24.6606L58.2296 24.4903L59.7173 24.1154L59.837 24.1324L59.9567 24.2688L60.2987 24.4221L60.7946 24.2517Z" fill="#8E8C87"/>
<path id="KGZ1121" d="M66.8651 18.3564L67.3097 18.4245L67.6859 18.0667L67.8056 17.8282L67.7372 17.5215L67.7714 17.2659L67.8398 17.0785L67.9595 16.9251H68.0279L68.0792 16.9933L68.1818 17.3511L68.2673 17.5385L68.4212 17.6748L68.6777 17.76H68.8316L69.2762 17.7089L69.5156 17.76L69.7208 18.0497L69.755 18.203L69.7721 18.4416L69.7208 18.612L69.6524 18.7312L69.242 19.1231L68.9855 19.4809L68.9 19.6684L68.8658 20.0091L68.4212 20.6055L68.1989 20.7247L67.2584 21.1337L66.9335 21.2189H66.677L66.2495 20.9803L66.1298 20.9292L65.5484 20.844L65.1893 20.861L64.9157 20.9292L64.3172 21.1848L64.0778 21.2189L63.8555 21.1677L63.6674 21.0996L63.3767 21.0485L63.1544 21.0826L62.8637 21.1677L62.573 21.2018L62.2139 21.3041L61.7693 21.5256L61.6496 21.6278L61.4786 21.8493L61.3076 22.0026L61.1024 22.0367L60.5894 22.0197L60.4184 22.0878L60.3158 22.2071L60.2645 22.3604L60.1277 22.9909V23.2464L60.179 23.3487L60.2816 23.4339L60.8459 23.6043L60.9656 23.6894L60.9998 23.8258L60.9485 23.945L60.7946 24.2517L60.2987 24.4221L59.9567 24.2688L59.837 24.1324L59.7173 24.1154L58.2296 24.4903L57.8192 24.6606L57.5627 24.8821L57.5285 25.1036L57.5114 25.3422L57.4772 25.5296L57.2891 25.717L56.9642 25.8363L56.4854 25.9045L56.2289 25.8874L56.0066 25.7852L55.2713 25.0014L54.9806 24.7799L54.6557 24.6095L53.8007 24.2858L53.3048 23.9791L53.0483 23.9961L52.4327 24.2006L52.1591 24.1154L51.629 23.7746L51.0989 23.7406L50.603 23.7746L50.3294 23.7065L50.1413 23.5872L50.0558 23.3657L49.9361 23.1442L49.7138 22.9227L49.5086 22.8546H49.0127L47.8499 23.042L47.5763 23.1272L47.2172 23.2805L47.012 23.485L46.8752 23.7406L46.7726 24.0132L46.6187 24.6606L46.4648 25.0525L46.1228 25.4615L45.8321 25.6318L45.5414 25.7L44.5325 25.6659L44.1563 25.3251L43.8656 25.1548L43.5749 25.0355L41.8478 24.3199L41.3519 24.2176L41.0441 24.2858L40.8218 24.2176L38.2397 23.059L37.8122 22.9397L35.8799 22.9909L35.726 23.042L35.4011 23.2124L34.8368 23.3828L34.6145 23.3998L34.4264 23.3657L32.3744 22.9057L31.9811 23.0249L31.4852 22.8546L29.3135 21.3041L28.8176 21.0996L28.3217 21.1677L27.6377 21.6619L27.2957 21.9856L26.8511 21.8834L26.5262 21.713L25.9106 21.0996L25.8251 20.7759L26.0132 20.4521L26.5775 19.9239L27.0734 19.3105L27.176 19.072L27.1418 18.9187L27.0563 18.7823L27.0221 18.5608L27.1247 18.1519L27.2957 17.743L27.518 17.3852L27.7574 17.1637L28.4927 17.6408L28.7492 17.6748L28.9544 17.5556L29.1083 17.3511L29.1425 17.0955L29.0057 16.857L28.4585 16.3799L28.3046 16.1755L28.1678 15.3917L28.7321 15.0339L30.083 14.8294L30.3224 14.5738L30.4079 14.2671L30.3737 13.4322L30.4079 12.9892L30.5447 12.7848L31.1261 12.5803L31.3826 12.4099L31.5707 12.1544L31.9127 11.541L32.1692 11.4047L32.5112 11.5069L32.8874 11.6773L33.2123 11.7454L33.4859 11.6262L33.7253 11.3876L33.9305 11.098L34.1015 10.7742L34.3751 10.5357L34.7513 10.5187L35.4866 10.7742L35.7431 10.655L35.9141 10.6379L36.068 10.7231L36.6836 11.2513L36.8717 11.3195L37.1453 11.2684L38.8382 10.1779L39.3512 10.0075L40.4285 9.95638L40.9757 9.75192L41.2322 9.70081L41.4716 9.82008L41.711 9.97342L41.9675 10.0927L42.908 10.3312L44.7035 11.3195L45.1994 11.4728L45.4388 11.4387L45.8834 11.2172L46.1228 11.1661L48.1064 11.2513L49.1324 11.6602L50.9621 12.887L51.4922 13.0063L52.6208 12.9892L54.8096 13.5174L55.2884 13.7901L55.6646 14.199L56.1947 15.1872L56.588 15.5621L57.1181 15.8006L57.6311 15.9539L58.1612 15.971L60.1448 15.6302L60.8288 15.6643L61.4102 15.9028L61.718 16.1414L61.9745 16.2947L62.2481 16.3629L63.3596 16.4481L63.7187 16.5673L63.941 16.857L63.9068 17.4874L63.9239 17.9475L64.0949 18.2201L65.5142 18.4586L66.4376 18.8335L66.8651 18.7483V18.3564Z" fill="#8E8C87"/>
<path id="KGZ1122" d="M75.1757 48.3442L75.4493 48.7532L77.1422 50.2526L77.5355 50.5081L77.6381 50.6104L77.7236 50.7467L77.8091 50.9682L77.8433 51.1215L77.8775 51.4793L77.963 51.5816L78.1169 51.7349L78.3734 51.8883L79.4678 52.9446L79.5875 53.115L79.7072 53.3706L79.8269 53.541L80.0834 53.8477L80.7161 54.3759L81.041 54.5803L83.1785 55.3641L83.3495 55.4664L83.5547 55.6708L83.6915 55.9434V56.1649L83.6744 56.2842L83.5205 56.7442L83.6402 56.8635L83.8625 56.9828L85.0082 57.1702L85.2476 57.4939L85.3331 57.5621L85.5212 57.6132L85.7948 57.6473L86.9918 57.6302L87.4022 57.8006L87.2141 58.0903L87.1286 58.3629L87.0089 58.7377L86.8208 59.1637L86.7011 59.5726L86.8208 59.8793L87.539 60.5609L87.7271 60.8335L87.8639 61.498L87.3851 61.6173L86.0684 61.2765L85.7264 61.2595L85.4357 61.3787L84.6491 62.1966L84.3926 62.384L83.777 62.7077L83.264 63.0996L81.896 64.599L80.2373 65.9451L79.6901 66.1836L79.2113 66.2688L78.7325 66.1836L78.2024 65.9791L77.6723 65.8599L77.108 65.928L76.5779 66.1666L76.082 66.4903L75.6032 66.7118L74.5772 66.8481L74.1668 67.2059L73.9958 67.4104L73.8761 67.6489L73.7735 67.9215L73.7393 68.2112L73.6538 68.6883L73.3973 69.029L73.0895 69.3357L72.8672 69.7276L72.7475 70.5625L72.6791 70.801L72.5594 70.9714L72.1148 71.3463L71.9267 71.6359L71.7899 71.9937L71.7215 72.3856L71.7386 72.7775L71.8925 73.1694L72.0977 73.3057L72.3542 73.3739L72.662 73.5613L72.8672 73.902L72.9698 74.328L73.0382 75.197L73.3973 76.2704L73.3118 76.4749L72.9698 76.6964L72.7133 76.9008L72.5252 77.1905L72.3371 77.6335L72.1661 78.3321L72.0122 78.6047L71.7557 78.758L68.8316 79.1499L68.4041 78.9284L66.9677 78.7751L66.4376 78.8262L64.7447 79.2522L64.3685 79.5077L64.2488 79.8144L64.2146 80.1041L64.0949 80.3085L63.2228 80.4789L61.6496 81.0071L61.1537 81.0582L60.6065 80.9049L60.35 80.7686L60.1448 80.7004L59.9567 80.7515L59.2043 81.1434L58.9649 81.1605L58.6913 81.0753L57.7337 80.8708L57.4088 80.8367L56.7419 80.9901L56.5025 81.0071L53.6468 80.2404H53.3903L53.1167 80.3085L52.9628 80.4619L52.655 80.8197L52.484 80.939H52.2275L51.8513 80.6834L51.6119 80.6152L51.4409 80.6834L50.9621 81.1945L50.7056 81.2457L50.4491 81.2286L49.9361 81.0923L49.6625 81.1094L49.0811 81.399L48.7562 81.4501L48.4826 81.5524L48.2945 81.842L47.9354 82.9325L47.3027 84.3126L47.1146 84.3296L46.9607 84.0911L46.8239 83.7674L46.7726 83.5799V83.4266L46.7213 83.3073L46.3964 83.1369L46.1741 82.9495L46.0373 82.8643L45.3704 82.7621L45.0455 82.6258L44.9087 82.3191L44.8745 81.8931L44.789 81.382L44.618 80.956L44.3444 80.7515L44.0708 80.7856L43.5236 81.0923L42.9422 81.2116L42.6857 81.3479L41.1638 82.4213L40.5995 82.6599L40.0352 82.728L39.7274 82.6428L39.4538 82.4213L39.2315 82.0976L39.1118 81.7057L39.146 81.2968L39.2999 81.0412L39.5051 80.8367L39.6761 80.53L39.7445 80.1382L39.7103 79.61L39.5564 79.1499L39.317 78.9284L39.0092 78.9455L37.436 79.2692L36.6836 79.2351L36.0509 78.9455L35.726 78.2469L35.8628 77.9402L36.2561 77.3609L36.3245 77.0542L36.239 76.7475L35.9996 76.4238L36.1364 76.083L36.2561 75.5207L36.3074 75.3844L36.6323 74.7369L37.0085 74.3962L38.2055 74.1065L38.4791 73.9361L38.6672 73.7487L38.8211 73.5102L38.9579 73.4079L39.146 73.3398H39.4196L39.6419 73.3909L39.7616 73.4761L39.8471 73.7487L39.9668 73.868L40.1891 73.9872L40.4285 74.0724L42.7028 74.5495L42.9422 74.6517L43.1474 74.8051L43.4894 75.0607L43.6946 75.1459L44.0195 75.214L44.2589 75.2311L44.4812 75.197L44.6009 75.2481L44.9087 75.4526L45.0626 75.4696L45.2336 75.4355L45.5585 75.2992L45.815 75.2311L46.2938 75.1799L47.2685 75.3503L47.8157 75.2481L48.1577 75.0947L48.6536 74.9584L48.8759 74.8562L49.064 74.7369L49.4744 74.3791L50.2097 74.0384L50.9792 73.7828L51.5093 73.5102L51.7487 73.3227L51.8171 73.2205L51.8855 72.999L52.0907 72.7434L51.7487 72.096L51.4067 71.687L51.2015 71.4996L51.116 71.2952L51.0305 70.8692L50.9279 70.7499L50.774 70.7158L50.6201 70.784L50.3465 70.9885H50.1926L49.9361 70.8692L49.6112 70.358L49.3718 69.8639L49.2179 69.6254L49.0469 69.4891L48.7904 69.3187L48.5681 69.2335L48.1748 69.1483L48.0038 69.0631L47.9525 68.9438L47.9354 68.8075L47.9696 68.6371L48.038 68.4497L48.1235 68.2793L48.1748 68.0919L48.1406 67.8704L48.0038 67.5637L47.9525 67.3592L47.9696 67.2059L48.038 67.0696L48.0893 66.9333L48.0722 66.7288L47.9867 66.5755L47.8328 66.4392L47.3369 66.2006L47.3027 66.0984L47.3711 66.0132L47.696 65.7235L47.7986 65.5021L47.7815 65.1783L47.6789 64.9739L47.4566 64.8035L46.8068 64.5309L46.67 64.3945L46.6187 64.2582L46.7042 64.173L46.8581 64.0879L46.9607 63.9515L46.9949 63.7641L46.8923 63.5426L46.8581 63.3722V63.1678L46.9607 62.7929L46.9778 62.5885L46.8581 62.2818L46.7042 62.1284L46.4648 62.0943L45.0968 62.4692L44.3444 62.7588L43.7801 62.7929L43.6775 62.7077L43.2329 62.5033L42.9422 62.2988L42.8225 61.9921L42.908 61.7025L44.2418 61.0209L44.6522 60.612L44.8745 60.0497L44.9771 59.6749L45.1139 59.4534L46.1399 58.8911L46.4135 58.8229L47.2343 58.7718L47.5079 58.8059L47.6618 58.9252L47.5934 59.1296L47.3711 59.2148L47.1146 59.2319L46.9265 59.283L46.8581 59.4704L47.0462 59.5386L47.7473 59.5045L47.9867 59.5897L48.893 60.1349L49.3205 60.2883L49.6796 60.2031L49.9874 59.7771L50.1584 59.2659L50.1755 58.7889L50.0045 58.3799L49.3376 57.9029L49.2008 57.7154V57.4939L49.3034 57.1532V56.7954L48.9785 56.2331L49.0298 55.8923L49.4915 55.6878L50.0045 56.1309L50.5175 56.7442L50.9621 56.9657L51.5606 57.0339L52.6379 57.7836L53.2535 57.7495L53.4929 57.5621L53.6468 57.3065L53.7152 57.0169L53.7323 56.7272L53.852 56.3864H54.1427L54.707 56.642L55.1516 56.4375L55.3397 55.0915L55.7159 54.5122L56.246 54.2907L57.3575 54.001L58.6913 53.1661L60.1448 52.6209L60.8801 52.212L61.3589 51.5816L61.2734 51.1726L61.1366 51.1386L61.4102 50.9L61.8377 50.457L62.744 50.0481L62.9492 49.8777L63.086 49.7244L63.1373 49.6051V49.3665L63.0176 49.0087V48.9065L63.086 48.5487L63.0518 48.259L63.0347 48.0887L63.1031 47.8501L63.2228 47.6968L63.3596 47.5434L64.1633 46.9471L64.3514 46.896L64.4198 46.9471L64.5737 47.1345L64.6763 47.3219L64.7618 47.4071L64.9841 47.373L65.1209 47.3219L65.2577 47.0323L65.3603 46.8448L65.48 46.7256L65.6681 46.6063L65.7707 46.47L66.0614 45.9929L66.2153 45.8225L66.3863 45.8736L66.8993 45.8566L68.216 45.9759L68.387 45.9588L68.6093 45.8907L68.6948 45.8396L68.7461 45.7544L68.729 45.584L68.6435 45.2773L68.6948 45.1069L68.8658 45.0047L69.3275 44.9195H69.413L69.7892 45.3966L69.8576 45.5499V45.7544L69.7721 45.8907L68.4554 47.1345L68.2673 47.356L68.1818 47.5605L68.2673 47.6627L68.6606 47.6968L68.7803 47.8331L68.8316 48.1739L68.8829 48.259L68.9855 48.3102L69.2591 48.3442L69.4472 48.4294L69.755 48.685L69.9602 48.7361L70.1141 48.668L70.1312 48.4805L70.1141 48.0546L70.1312 47.9012L70.1825 47.7309L70.3193 47.5605L70.5074 47.373L71.0888 46.9812L71.1914 46.8789L72.0122 45.5158L72.2687 45.2091L72.5081 45.1751L72.6791 45.2432L72.7475 45.3114L72.7646 45.4136L72.7133 45.7033L72.7475 45.8907L72.8501 46.01L73.1579 46.2485L73.2263 46.4018L73.2434 46.5893L73.2263 46.8619L73.2605 47.1686L73.3289 47.3219L73.3973 47.4242L75.1757 48.3442Z" fill="#8E8C87"/>
</g>
<defs>
<clipPath id="clip0_9_196">
<rect width="171" height="84" fill="white" transform="translate(0.5 0.5)"/>
</clipPath>
</defs>
</svg>
