<svg width="20" height="20" viewBox="0 0 20 20" fill="none" xmlns="http://www.w3.org/2000/svg">
<path d="M10.7667 1.88345L16.1917 4.80845C16.825 5.15011 16.825 6.12511 16.1917 6.46678L10.7667 9.39178C10.2834 9.65011 9.71671 9.65011 9.23337 9.39178L3.80837 6.46678C3.17504 6.12511 3.17504 5.15011 3.80837 4.80845L9.23337 1.88345C9.71671 1.62511 10.2834 1.62511 10.7667 1.88345Z" stroke="#100A14" stroke-width="1.5" stroke-linecap="round" stroke-linejoin="round"/>
<path d="M3.00829 8.44173L8.04996 10.9667C8.67496 11.2834 9.07496 11.9251 9.07496 12.6251V17.3917C9.07496 18.0834 8.34996 18.5251 7.73329 18.2167L2.69163 15.6917C2.06663 15.3751 1.66663 14.7334 1.66663 14.0334V9.26673C1.66663 8.57506 2.39163 8.1334 3.00829 8.44173Z" stroke="#100A14" stroke-width="1.5" stroke-linecap="round" stroke-linejoin="round"/>
<path d="M16.9917 8.44173L11.95 10.9667C11.325 11.2834 10.925 11.9251 10.925 12.6251V17.3917C10.925 18.0834 11.65 18.5251 12.2667 18.2167L17.3084 15.6917C17.9334 15.3751 18.3334 14.7334 18.3334 14.0334V9.26673C18.3334 8.57506 17.6084 8.1334 16.9917 8.44173Z" stroke="#100A14" stroke-width="1.5" stroke-linecap="round" stroke-linejoin="round"/>
</svg>
