<svg width="16" height="16" viewBox="0 0 16 16" fill="none" xmlns="http://www.w3.org/2000/svg">
<path fill-rule="evenodd" clip-rule="evenodd" d="M15.68 8.17998C15.68 7.60998 15.63 7.06998 15.54 6.53998H8V9.63998H12.3C12.2099 10.1289 12.0217 10.5946 11.7467 11.0088C11.4717 11.423 11.1157 11.7772 10.7 12.05V14.06H13.3C14.0865 13.3013 14.7047 12.3858 15.1147 11.3728C15.5247 10.3599 15.7173 9.27211 15.68 8.17998Z" fill="#4285F4"/>
<path fill-rule="evenodd" clip-rule="evenodd" d="M7.99998 16C10.16 16 11.97 15.28 13.3 14.06L10.7 12.06C10.0826 12.4612 9.38128 12.715 8.65017 12.8017C7.91906 12.8885 7.17779 12.8059 6.4837 12.5604C5.78961 12.3148 5.16131 11.9129 4.6474 11.3857C4.13348 10.8585 3.74773 10.2201 3.51998 9.52002H0.849976V11.59C1.51569 12.9157 2.53692 14.0303 3.79955 14.809C5.06218 15.5878 6.51649 16.0002 7.99998 16Z" fill="#34A853"/>
<path fill-rule="evenodd" clip-rule="evenodd" d="M3.52 9.51997C3.35555 9.03003 3.27114 8.51678 3.27 7.99997C3.27 7.46997 3.37 6.95997 3.52 6.47997V4.40997H0.850001C0.290843 5.52407 -0.000229907 6.75343 1.36251e-07 7.99997C1.36251e-07 9.28997 0.31 10.51 0.850001 11.6L3.52 9.51997Z" fill="#FBBC05"/>
<path fill-rule="evenodd" clip-rule="evenodd" d="M7.99998 3.17999C9.17998 3.17999 10.23 3.57999 11.06 4.37999L13.36 2.07999C11.9089 0.720605 9.98818 -0.0247406 7.99998 -1.42496e-05C6.51754 -0.00108355 5.06396 0.409775 3.80142 1.18672C2.53889 1.96366 1.51707 3.07612 0.849976 4.39999L3.51998 6.47999C3.82753 5.53034 4.42525 4.7011 5.22896 4.10909C6.03266 3.51707 7.00184 3.19211 7.99998 3.17999Z" fill="#EA4335"/>
</svg>
