<svg width="691" height="553" viewBox="0 0 691 553" fill="none" xmlns="http://www.w3.org/2000/svg">
<rect x="0.5" y="0.5" width="69" height="69" stroke="#F5F5F5"/>
<rect x="69.5" y="0.5" width="69" height="69" fill="#F6F8F8" stroke="#F5F5F5"/>
<rect x="138.5" y="0.5" width="69" height="69" stroke="#F5F5F5"/>
<rect x="207.5" y="0.5" width="69" height="69" fill="#F6F8F8" stroke="#F5F5F5"/>
<rect x="276.5" y="0.5" width="69" height="69" stroke="#F5F5F5"/>
<rect x="345.5" y="0.5" width="69" height="69" stroke="#F5F5F5"/>
<rect x="414.5" y="0.5" width="69" height="69" stroke="#F5F5F5"/>
<rect x="483.5" y="0.5" width="69" height="69" stroke="#F5F5F5"/>
<rect x="552.5" y="0.5" width="69" height="69" stroke="#F5F5F5"/>
<rect x="621.5" y="0.5" width="69" height="69" stroke="#F5F5F5"/>
<rect x="0.5" y="69.5" width="69" height="69" stroke="#F5F5F5"/>
<rect x="69.5" y="69.5" width="69" height="69" stroke="#F5F5F5"/>
<rect x="138.5" y="69.5" width="69" height="69" stroke="#F5F5F5"/>
<rect x="207.5" y="69.5" width="69" height="69" stroke="#F5F5F5"/>
<rect x="276.5" y="69.5" width="69" height="69" stroke="#F5F5F5"/>
<rect x="345.5" y="69.5" width="69" height="69" stroke="#F5F5F5"/>
<rect x="414.5" y="69.5" width="69" height="69" stroke="#F5F5F5"/>
<rect x="483.5" y="69.5" width="69" height="69" fill="#F6F8F8" stroke="#F5F5F5"/>
<rect x="552.5" y="69.5" width="69" height="69" stroke="#F5F5F5"/>
<rect x="621.5" y="69.5" width="69" height="69" stroke="#F5F5F5"/>
<rect x="0.5" y="138.5" width="69" height="69" stroke="#F5F5F5"/>
<rect x="69.5" y="138.5" width="69" height="69" stroke="#F5F5F5"/>
<rect x="138.5" y="138.5" width="69" height="69" stroke="#F5F5F5"/>
<rect x="207.5" y="138.5" width="69" height="69" fill="#F6F8F8" stroke="#F5F5F5"/>
<rect x="276.5" y="138.5" width="69" height="69" stroke="#F5F5F5"/>
<rect x="345.5" y="138.5" width="69" height="69" stroke="#F5F5F5"/>
<rect x="414.5" y="138.5" width="69" height="69" stroke="#F5F5F5"/>
<rect x="483.5" y="138.5" width="69" height="69" stroke="#F5F5F5"/>
<rect x="552.5" y="138.5" width="69" height="69" stroke="#F5F5F5"/>
<rect x="621.5" y="138.5" width="69" height="69" stroke="#F5F5F5"/>
<rect x="0.5" y="207.5" width="69" height="69" stroke="#F5F5F5"/>
<rect x="69.5" y="207.5" width="69" height="69" stroke="#F5F5F5"/>
<rect x="138.5" y="207.5" width="69" height="69" stroke="#F5F5F5"/>
<rect x="207.5" y="207.5" width="69" height="69" stroke="#F5F5F5"/>
<rect x="276.5" y="207.5" width="69" height="69" stroke="#F5F5F5"/>
<rect x="345.5" y="207.5" width="69" height="69" stroke="#F5F5F5"/>
<rect x="414.5" y="207.5" width="69" height="69" stroke="#F5F5F5"/>
<rect x="483.5" y="207.5" width="69" height="69" stroke="#F5F5F5"/>
<rect x="552.5" y="207.5" width="69" height="69" stroke="#F5F5F5"/>
<rect x="621.5" y="207.5" width="69" height="69" stroke="#F5F5F5"/>
<rect x="0.5" y="276.5" width="69" height="69" stroke="#F5F5F5"/>
<rect x="69.5" y="276.5" width="69" height="69" stroke="#F5F5F5"/>
<rect x="138.5" y="276.5" width="69" height="69" stroke="#F5F5F5"/>
<rect x="207.5" y="276.5" width="69" height="69" stroke="#F5F5F5"/>
<rect x="276.5" y="276.5" width="69" height="69" stroke="#F5F5F5"/>
<rect x="345.5" y="276.5" width="69" height="69" stroke="#F5F5F5"/>
<rect x="414.5" y="276.5" width="69" height="69" fill="#F6F8F8" stroke="#F5F5F5"/>
<rect x="483.5" y="276.5" width="69" height="69" stroke="#F5F5F5"/>
<rect x="552.5" y="276.5" width="69" height="69" stroke="#F5F5F5"/>
<rect x="621.5" y="276.5" width="69" height="69" stroke="#F5F5F5"/>
<rect x="0.5" y="345.5" width="69" height="69" stroke="#F5F5F5"/>
<rect x="69.5" y="345.5" width="69" height="69" stroke="#F5F5F5"/>
<rect x="138.5" y="345.5" width="69" height="69" fill="#F6F8F8" stroke="#F5F5F5"/>
<rect x="207.5" y="345.5" width="69" height="69" stroke="#F5F5F5"/>
<rect x="276.5" y="345.5" width="69" height="69" fill="#F6F8F8" stroke="#F5F5F5"/>
<rect x="345.5" y="345.5" width="69" height="69" stroke="#F5F5F5"/>
<rect x="414.5" y="345.5" width="69" height="69" stroke="#F5F5F5"/>
<rect x="483.5" y="345.5" width="69" height="69" stroke="#F5F5F5"/>
<rect x="552.5" y="345.5" width="69" height="69" stroke="#F5F5F5"/>
<rect x="621.5" y="345.5" width="69" height="69" stroke="#F5F5F5"/>
<rect x="0.5" y="414.5" width="69" height="69" stroke="#F5F5F5"/>
<rect x="69.5" y="414.5" width="69" height="69" stroke="#F5F5F5"/>
<rect x="138.5" y="414.5" width="69" height="69" stroke="#F5F5F5"/>
<rect x="207.5" y="414.5" width="69" height="69" stroke="#F5F5F5"/>
<rect x="276.5" y="414.5" width="69" height="69" stroke="#F5F5F5"/>
<rect x="345.5" y="414.5" width="69" height="69" fill="#F6F8F8" stroke="#F5F5F5"/>
<rect x="414.5" y="414.5" width="69" height="69" stroke="#F5F5F5"/>
<rect x="483.5" y="414.5" width="69" height="69" stroke="#F5F5F5"/>
<rect x="552.5" y="414.5" width="69" height="69" stroke="#F5F5F5"/>
<rect x="621.5" y="414.5" width="69" height="69" stroke="#F5F5F5"/>
<rect x="0.5" y="483.5" width="69" height="69" stroke="#F5F5F5"/>
<rect x="69.5" y="483.5" width="69" height="69" stroke="#F5F5F5"/>
<rect x="138.5" y="483.5" width="69" height="69" stroke="#F5F5F5"/>
<rect x="207.5" y="483.5" width="69" height="69" stroke="#F5F5F5"/>
<rect x="276.5" y="483.5" width="69" height="69" stroke="#F5F5F5"/>
<rect x="345.5" y="483.5" width="69" height="69" stroke="#F5F5F5"/>
<rect x="414.5" y="483.5" width="69" height="69" stroke="#F5F5F5"/>
<rect x="483.5" y="483.5" width="69" height="69" stroke="#F5F5F5"/>
<rect x="552.5" y="483.5" width="69" height="69" fill="#F6F8F8" stroke="#F5F5F5"/>
<rect x="621.5" y="483.5" width="69" height="69" stroke="#F5F5F5"/>
</svg>
