<svg width="163" height="127" viewBox="0 0 163 127" fill="none" xmlns="http://www.w3.org/2000/svg">
<g id="hk 1" clip-path="url(#clip0_9_174)">
<path id="HKG5153" d="M94.8002 88.2537L93.8768 94.7976L90.2156 95.0561L86.4248 92.1639L83.7356 90.7097L79.556 90.6935L79.799 88.7384L84.3026 86.3309L87.17 85.3615L90.2642 86.3309L92.3216 87.5427L94.8002 88.2537Z" fill="#94a3b8"/>
<path id="HKG5154" d="M101.41 94.4421L93.8768 94.7976L94.8002 88.2537H98.5748L100.729 89.514L103.192 89.9987L101.41 94.4421Z" fill="#94a3b8"/>
<path id="HKG5155" d="M119.392 97.6898L113.495 95.0561L104.99 94.329L101.41 94.4421L103.192 89.9987L100.729 89.514L98.5748 88.2537L101.232 85.8462L103.71 84.392L109.105 86.3309L110.871 88.2537L112.685 87.7851L114.904 88.7384L117.14 92.8263L119.392 94.539V97.6898Z" fill="#94a3b8"/>
<path id="HKG5156" d="M92.111 102.99L90.9284 103.216L88.709 101.519L88.061 99.8549L92.111 100.792V102.99ZM93.8768 94.7976L101.41 94.4421L104.99 94.329L113.495 95.0561L119.392 97.6898L117.61 99.8549L118.695 102.747L120.04 105.381L118.695 105.882L120.72 111.682L117.14 112.41L116.233 111.182L114.03 109.243L113.997 105.995L113.09 102.408L111.13 100.792L109.445 102.182L111.13 102.747V105.139L109.98 105.381L108.003 107.805L109.98 110.939L109.105 113.12L110.223 115.302L106.837 116.029L106.367 111.182L107.307 110.471L106.513 108.968L103.5 110.471L102.171 109.727L103.5 108.063L101.491 106.851L102.819 104.912L102.171 103.216L99.6764 102.747L100 100.113L96.3554 102.505L95.2376 104.185H94.5572L93.4394 100.307L90.9284 98.8855L86.279 98.6593L84.3026 97.6898L82.715 93.8281L81.3542 91.4044L79.556 90.6935L83.7356 90.7096L86.4248 92.1638L90.2156 95.0561L93.8768 94.7976Z" fill="#94a3b8"/>
<path id="HKG5157" d="M97.8944 84.6343L96.566 85.3614L95.2376 83.681L95.5292 80.1748L94.5572 77.1695H93.0182V74.9882L97.5542 74.7458L97.376 77.4441L98.0564 80.5787L97.8944 84.6343Z" fill="#94a3b8"/>
<path id="HKG5158" d="M106.108 71.1911L108.003 78.6075L108.894 81.5159H108.214L103.338 76.2323L100.778 79.1731L102.171 81.2736V82.2269L99.9518 81.2736L99.3686 83.6003L97.8944 84.6344L98.0564 80.5788L97.376 77.4442L97.5542 74.7458L97.8296 70.6741L96.0476 68.0242L100.503 67.0386L102.754 71.6435L106.108 71.1911Z" fill="#94a3b8"/>
<path id="HKG5159" d="M87.2348 76.5878L88.9682 76.6847L89.3894 77.6542L87.818 78.6075L86.4896 77.6542L87.2348 76.5878ZM97.5542 74.7458L93.0182 74.9882L90.9284 73.0492L89.0654 71.9828L89.8106 69.8823L93.0182 68.929L96.0476 68.0242L97.8296 70.674L97.5542 74.7458Z" fill="#94a3b8"/>
<path id="HKG5160" d="M114.386 71.6435L106.108 71.1911L102.754 71.6435L100.503 67.0386L111.259 64.6472L114.386 71.6435Z" fill="#94a3b8"/>
<path id="HKG5161" d="M114.386 71.6435L116.622 75.7476L115.05 81.5482L117.091 86.1532L115.795 87.5428L112.685 84.392L108.003 78.6075L106.108 71.1911L114.386 71.6435Z" fill="#94a3b8"/>
<path id="HKG5162" d="M132.141 95.9771V97.9322L132.87 99.6126L131.914 101.277L129.938 102.747L129.047 101.051L127.945 100.792L128.399 97.6898L132.141 95.9771ZM153.428 80.2879L151.63 77.8965L152.31 76.1838L153.428 78.3651V80.2879ZM142.25 73.7925L138.897 74.5196L137.989 70.6417L140.031 69.6722L141.57 70.3832L142.25 73.7925ZM132.141 62.6759V66.78L130.359 65.342L130.149 60.5108L131.234 59.7837L132.141 62.6759ZM141.57 68.7189H135.527L134.863 67.7172L134.652 63.6292L134.199 61.7065L136.418 58.3295H137.989L138.897 63.6292L141.57 66.2953V68.7189ZM117.091 86.1532L115.05 81.5482L116.622 75.7476L114.386 71.6435L111.259 64.6472L115.504 57.8771L119.311 52.335L128.026 50.8808L133.178 47.7462L138.54 45.0801L142.801 47.5038L147.709 49.9113L151.743 47.2614L151.29 40.7337L152.602 36.6135L153.428 38.5524L157.883 38.7948L161.901 39.7481L161.22 42.1394L162.338 46.9867L158.904 45.3871L156.733 45.0317L153.428 51.5594L154.805 50.7677L157.656 54.8556L159.033 61.4803L157.883 60.1715L155.194 60.0261L156.085 62.6759L154.967 65.342L153.428 66.78L150.739 67.7172L149.815 71.8535L148.293 69.6722V65.8105L145.328 67.7172L144.486 65.5843L142.687 63.3869L143.141 58.5719L139.156 56.8915L138.637 54.2254L136.191 55.9543L133.308 56.6329L129.274 53.7245H126.99L124.333 57.6024L125.661 62.1912L127.508 64.8572L126.552 67.0224L123.895 64.6149L123.652 61.4803L121.368 62.6759L120.558 64.5826L123.49 67.5394L125.434 75.4729L130.797 76.7655L131.023 80.2879L134.409 79.8032L136.629 82.7116L134.928 84.7313L132.643 86.3309L130.149 85.8462L130.311 89.9502L133.308 88.9808L134.199 91.4044V93.5857L132.352 94.7814L130.149 92.8263L127.087 91.0166L127.508 88.2537L125.661 83.1963L123.215 81.2735L123.652 76.9271L120.558 74.972L119.392 80.2879L119.829 83.1963L117.091 86.1532Z" fill="#94a3b8"/>
<path id="HKG5163" d="M119.392 41.4285L119.521 47.0191L119.311 52.335L115.504 57.8771L111.259 64.6472L100.503 67.0385L96.0476 68.0241L93.0182 68.929L91.5602 65.1319L90.4424 61.2702L96.9386 52.0926L96.2582 45.4194L99.401 45.3225L106.14 43.2381L108.003 44.5631L107.485 46.9867L108.894 48.1824L107.307 51.3493L109.105 50.8323L111.34 46.292L114.435 43.2705L115.585 39.9904L117.189 39.942L119.392 41.4285Z" fill="#94a3b8"/>
<path id="HKG5164" d="M87.2348 76.5878L86.4896 77.6542L84.3026 76.9271L85.8092 75.7153L87.2348 76.5878ZM77.3528 73.7925L72.8168 74.9882L72.185 69.6722L69.9818 66.5215V64.6149L71.7476 63.6292L76.6886 65.342L78.4706 69.4299L77.3528 73.7925ZM93.0182 68.929L89.8106 69.8823L89.0654 71.9828L82.9418 68.8159L82.715 70.3832L79.799 65.5843L79.5398 64.0332L84.6266 63.193L86.9756 62.1589L85.7444 58.1194L87.98 57.1661L90.4424 61.2702L91.5602 65.1319L93.0182 68.929Z" fill="#94a3b8"/>
<path id="HKG5165" d="M56.0336 76.8786L46.0382 76.9755L47.156 74.9881L52.2752 70.8841L53.1824 73.0492L59.8568 67.7171L61.4444 68.8159L63.0158 70.6417L62.141 73.0492L61.6874 75.7152L60.521 74.7135L56.309 74.2772L56.0336 76.8786ZM65.0084 69.6722H63.4694L63.0158 67.2486L63.9068 65.8105L66.1424 66.78L65.2676 67.7171L65.0084 69.6722ZM90.4424 61.2702L87.98 57.1661L85.7444 58.1194L86.9756 62.1589L84.6266 63.193L79.5398 64.0332L79.1186 61.4802L77.3528 60.2684L75.2468 62.3851L69.9818 61.4802L69.7388 62.4336H67.4708L66.5636 63.6292L63.9068 62.9021L58.7228 64.8572L53.1824 66.2953L56.0012 62.2235L53.5388 59.5736L57.5564 56.439L68.0702 52.5773L80.1554 48.9418L86.6516 47.2614L91.3496 45.5649L96.2582 45.4194L96.9386 52.0926L90.4424 61.2702Z" fill="#94a3b8"/>
<path id="HKG5166" d="M57.5564 56.439L53.5388 59.5737L56.0012 62.2235L53.1824 66.2953L51.5948 65.342V63.6293H46.8968L44.969 62.0458L42.3284 61.2217L40.6274 57.3762L39.5258 57.1338L38.8778 54.9364L37.0796 56.9238L40.0118 59.5898L34.3742 60.2684L31.4744 62.6759L27.4244 60.5108H26.0636L22.7588 58.3295L23.8766 54.694L21.6572 51.3494L17.7692 48.2309L21.3332 45.1771L27.4244 44.8055L30.389 42.6403L36.0914 45.8072L43.916 49.6689H57.3458L57.5564 56.439Z" fill="#94a3b8"/>
<path id="HKG5167" d="M87.3158 29.8595L83.282 34.9331L86.6516 47.2614L80.1554 48.9418L68.0702 52.5773L57.5564 56.439L57.3458 49.6689H43.916L36.0914 45.8072L30.389 42.6403L34.1474 35.6117L40.8542 32.7195L46.8968 23.5257H48.695L50.9306 24.269L50.4932 28.373L51.5948 27.6459L54.9806 26.7088L56.309 25.4808L56.066 21.3606L59.4032 19.664L63.9068 18.4683L65.0084 17.2565L66.1424 15.059L69.7388 13.8634L71.7476 12.8616L73.4486 13.9118L76.5752 29.1324L84.8534 28.1791L87.3158 29.8595Z" fill="#94a3b8"/>
<path id="HKG5168" d="M138.184 14.3481L136.855 16.0123L133.308 17.9836L131.477 16.0123L132.87 15.059L134.199 15.5599L135.738 11.9083L138.184 14.3481ZM130.149 2.50444L132.643 4.42721L135.738 3.23153L137.989 3.94248L134.409 5.15431H131.914L133.518 9.04833L130.149 7.33561L129.274 5.39667L130.149 2.50444ZM142.687 16.2708L137.422 20.4395L132.498 22.8471L128.253 21.8937L121.546 22.6208L115.277 22.8471L112.588 20.1972L108.797 19.9548L99.6116 24.786L98.0564 24.0589L94.703 24.786L94.2494 27.2096L87.3158 29.8595L84.8534 28.1791L76.5752 29.1324L73.4486 13.9118L71.7476 12.8616L70.9052 10.8742L73.5134 9.32301H78.3734L79.9772 11.0519L80.8682 11.4397L84.2378 8.17581L86.9108 7.78802L89.924 8.17581L91.4144 3.91016L93.731 1.21181L96.9548 0.16156L99.7736 2.56907H104.601L110.563 2.89222L114.58 2.56907L110.984 7.12555L108.894 9.29069H107.485L107.307 12.6354L109.769 11.9083L109.98 10.7287L113.349 9.77543L114.467 8.53128L116.686 4.42721L117.804 4.18484L118.695 5.15431L120.267 4.18484L121.158 5.15431L119.894 7.75571L121.611 7.33561L123.442 9.04833L123.312 11.1488L124.705 12.0537L126.99 10.7287L127.508 11.9083V13.8633L126.892 16.3678L129.047 16.5132L130.213 18.3714L132.87 19.664L140.922 17.2565L142.687 16.2708Z" fill="#94a3b8"/>
<path id="HKG5169" d="M152.602 36.6135L151.29 40.7337L151.743 47.2615L147.709 49.9113L142.801 47.5038L138.54 45.0802L133.178 47.7462L128.026 50.8808L119.311 52.335L119.521 47.0191L119.392 41.4285H123.895L124.527 43.0443L123.895 46.0012L125.434 47.9562L126.552 44.8055L130.149 42.8827L126.552 37.3244L130.149 34.4322L133.761 33.4304L133.518 30.7967L140.112 26.1594L140.484 27.6459L142.104 27.9853L140.484 31.0391L143.53 31.8308L144.21 36.5812L142.687 38.5524L144.032 41.1538L145.571 39.2634L146.948 43.836L148.293 43.6098L148.082 38.2454L150.463 31.9924L152.748 33.9151L152.602 36.6135ZM152.051 27.8883L150.253 30.5705L148.503 25.9655L150.026 24.0428L151.403 24.269L152.051 27.8883ZM106.14 43.2382L99.401 45.3225L96.2582 45.4195L91.3496 45.5649L86.6516 47.2615L83.282 34.9331L87.3158 29.8596L94.2494 27.2097L94.703 24.786L98.0564 24.0589L99.6116 24.786L108.797 19.9548L112.588 20.1972L115.277 22.8471L121.546 22.6209L128.253 21.8938L132.498 22.8471L137.422 20.4396L142.687 16.2709L143.368 17.9836L137.989 22.33L134.863 25.2384L127.686 28.373L124.333 30.7967L123.004 32.9618L120.04 34.9169H117.804L113.576 29.3263L109.542 30.0858L108.003 29.084L107.307 30.5705L107.776 33.2042L109.105 33.9151L109.542 36.0964L107.485 35.6117L107.307 34.1898L105.265 32.9618L101.944 33.4304L100.81 34.9169L95.3186 36.0641L97.8944 37.5506L106.14 43.2382Z" fill="#94a3b8"/>
<path id="HKG5170" d="M19.5836 125.643H17.8016L18.5144 124.221L21.6572 123.251V125.643H19.5836ZM123.004 124.431L120.72 126.838L119.149 124.431L120.72 121.555L123.652 119.39L124.543 121.555V123.752L123.004 124.431ZM118.695 119.858L116.913 120.343V117.451L120.04 116.966L120.72 118.404L118.695 119.858ZM44.645 115.302L44.1752 116.966L42.8468 116.497L40.8542 114.833L42.6362 113.12H43.754L44.645 115.302ZM53.6522 110.697L54.9806 111.182H57.1838L56.309 114.074L54.9806 113.12L51.8216 115.302L51.5948 113.363L53.6522 111.925V110.697ZM80.9654 106.043L83.3468 108.645L85.3718 107.805V109.727L83.3468 111.182L90.1994 110.923L91.625 111.682L88.3202 113.993L87.17 115.544L88.9682 119.39L86.684 119.357L79.07 119.891L80.0096 117.208V107.805L77.1908 107.869L77.7902 105.882L77.8874 101.729L79.7666 102.489L80.9654 106.043ZM59.6138 100.065H58.2854L56.309 97.4151L54.0896 95.4924H59.4032L59.6138 100.065ZM61.0232 95.25H59.6138L60.2942 93.5857L62.141 93.8281L61.0232 95.25ZM68.3618 88.0275H67.2764V86.3309L68.621 86.7995L68.3618 88.0275ZM58.9658 84.6343L58.2854 86.3309H59.6138V87.5427L57.1838 88.2537V85.3614L58.9658 84.6343ZM56.0336 76.8786L55.7906 79.0922L50.9306 78.3651V82.4692L53.6522 81.2897L52.34 85.2645L52.7126 92.8263H48.4844L45.9734 91.8407L49.3754 96.688L45.131 100.065L51.5948 104.428L47.3504 107.805L42.1178 110.244L41.7452 108.063V101.277H31.7174L26.7602 105.381H24.7838L23.8766 106.851L26.7602 107.578V109.469L24.1034 111.246L20.426 111.553L16.9268 108.063L16.4732 105.882L14.027 106.609L11.0948 108.758L6.91519 112.361L3.27019 113.702L1.19659 111.278L0.661987 103.943L1.19659 102.23H4.06399V99.1602L6.23479 98.5785V96.6396L4.46899 95.25L9.15079 91.4691L9.34519 90.9359L11.9696 90.4511L14.027 88.2537L16.4732 84.1335H21.8678L24.7838 84.392L26.7602 86.5571L29.7086 85.3614L36.383 81.5159L40.6274 82.4692L42.6362 79.0922L45.131 78.6075L46.0382 76.9756L56.0336 76.8786ZM30.8264 74.9882L29.9354 77.8966L28.9796 78.8499L27.6512 84.1335L27.2138 81.5159L25.4156 78.3651V77.6542L27.2138 76.9271L28.1048 74.9882L28.9796 76.1838L30.8264 74.9882Z" fill="#94a3b8"/>
</g>
<defs>
<clipPath id="clip0_9_174">
<rect width="162" height="127" fill="white" transform="translate(0.5)"/>
</clipPath>         
</defs>
</svg>
