<svg width="189" height="103" viewBox="0 0 189 103" fill="none" xmlns="http://www.w3.org/2000/svg">
<g id="kz 1" clip-path="url(#clip0_9_261)">
<path id="KAZ99" d="M19.488 76.7443H19.4504V76.3136L19.488 76.2574L19.5444 76.3698L19.6384 76.4634H19.7136V76.5009L19.5444 76.632L19.488 76.7443ZM30.6176 66.1447L30.486 66.2196H30.392L30.4296 66.1072L30.674 65.8076L30.7304 65.7889L30.7492 65.8825L30.7304 65.9387L30.6928 66.0323L30.6176 66.1447Z" fill="#94a3b8"/>
<path id="KAZ3195" d="M58.3664 70.7329L58.4604 73.1487L57.0128 72.1749L57.0692 72.0813L57.182 71.8566L57.3512 71.7255L57.5204 71.6131L57.7084 71.4446L57.8776 71.2573L57.9904 71.1262L58.0656 70.9202L58.0844 70.6767L58.0656 70.4895V70.2835L58.1032 70.1898L58.216 70.1337L58.2724 70.0962L58.3288 70.1337V70.1524V70.2647L58.2912 70.4707L58.3288 70.6955L58.3664 70.7329ZM81.0392 54.2529L81.9228 55.7136L82.1108 56.1257L81.6596 56.6126L75.8504 60.8262L75.4368 60.8449L74.9104 60.5827L74.478 60.5266L74.0456 60.3955L74.1396 60.0958L73.444 59.0658L72.7672 58.3916L72.2032 58.2044L71.3384 56.8186H70.0224L68.8944 57.0995L67.898 58.504L67.4656 59.6276L66.3188 61.388L65.266 61.3131L64.8148 61.7626L64.6832 62.5678L63.574 62.83L62.4272 63.6727L61.2804 64.8713L58.7236 68.2797L58.5544 68.9913L58.404 69.01L58.31 68.9726L58.2724 68.8602L58.0468 68.8415L57.9904 68.8602L57.9716 68.9164V68.9726L58.0092 69.0849V69.1036L57.9528 69.1786H57.8776L57.5956 69.1036H57.5768L57.4828 69.1598L57.3888 69.1973L57.3512 69.2347L57.2572 69.4033L57.2008 69.4782L57.1256 69.4969L57.088 69.4782L57.0316 69.4969L56.994 69.5344L56.8436 69.7966L56.8248 69.8715L56.7308 70.1524L56.6556 70.3584L56.6368 70.4333V70.5457L56.618 70.6206L56.5804 70.7891L56.5616 70.9389L56.5428 71.07V71.1824L56.524 71.2947L56.5052 71.3322L56.3924 71.4633L56.3736 71.5007L56.3548 71.6131L56.3172 71.7067L56.2796 71.6693L56.1668 71.6318L56.054 71.6131L55.678 71.7255L54.5688 72.0438L53.516 72.3622L51.2224 73.0551L49.9252 73.4671L48.628 73.8978L47.6692 74.1975V74.16L46.9172 69.0287L46.5976 68.1673L46.3532 67.6991L46.2592 67.2871L46.1652 66.95L45.7892 66.3882L45.6764 65.6953L42.1044 64.3469L41.1644 63.4667L40.6004 62.624L40.1868 61.6127L39.8108 61.0322L39.8296 60.0584L40.168 57.6987L40.1116 56.9122L39.698 55.208L39.2468 54.6649L39.2656 53.9158L39.0964 53.0918L38.8896 52.3427L39.0024 51.4813L39.1152 51.3315L39.134 50.9569L38.9084 50.1891L38.4948 50.1516L38.288 49.9831L38.1376 49.7209L37.8932 49.6835L37.7052 49.8146L37.4984 50.1329L37.2728 50.7509L35.562 50.3576L35.656 50.1142L35.5996 49.7771L35.6184 49.1216L35.4868 48.3351L35.1296 47.4924L34.7912 47.9793L34.622 47.8669L34.5844 47.6609L34.058 47.38L33.7384 47.0804L33.7196 46.3687L33.9452 45.5635L33.9264 45.1327L34.152 45.0766L34.34 44.6646L34.5656 44.4586L35.1296 44.29L35.2612 44.0466L35.5056 44.0278L36.0508 44.084L36.5772 43.8031L36.596 43.5222L36.784 43.26L37.066 42.9978L37.3104 42.642L37.3856 42.2487L37.5924 41.818L37.6488 41.5184L37.7616 41.1064L37.63 40.8442L37.4232 40.6944L37.1788 40.2637L37.2352 39.4958L37.0284 38.7655L37.3292 38.4284L37.4044 38.0726L37.7428 37.5295H37.7616L37.9496 37.4358L38.2128 37.2298L38.3444 37.0051L38.3256 36.7804L38.1752 36.256V36.1062L38.2316 35.8253L38.2128 35.6755L38.194 35.638L38.1376 35.5631L38.1188 35.5069L38.1376 35.432L38.194 35.3009L38.2316 35.2447L38.1752 34.9638L37.912 34.814L37.6488 34.7391L37.5548 34.6455L37.6112 34.5893L37.6864 34.5331L37.7428 34.4769L37.6488 34.196L37.6864 34.1024L37.7804 34.0649L38.1752 33.9338H38.2692L38.382 33.9526L38.476 34.0087L38.664 34.1773L38.9648 34.3271L39.0588 34.4207L39.1904 34.608L39.3408 34.7766L40.0552 34.9638L40.1116 35.1324V35.4133L40.2056 35.6006L41.2396 36.5557L41.3336 36.6306L41.4276 36.6493H41.5028L41.7472 36.5931H41.86L41.9728 36.6118L42.0856 36.7055L42.1608 36.8178L42.1796 36.9302L42.236 37.0238L42.4428 37.1175L42.518 37.1924L42.6684 37.3984L42.8564 37.5295L43.0256 37.4733L43.3452 37.1175L44.116 36.6867L44.7928 36.1249L44.8868 35.9564L45.056 35.0762L45.0936 34.9076L45.15 34.814L45.2252 34.7953L45.6012 34.9638L45.7516 35.0013L45.8644 34.9826L45.9584 34.8889L45.996 34.7766L46.0336 34.5144L46.09 34.4395L46.3344 34.402L46.4096 34.3084V34.2147L46.3532 33.99V33.8964L46.4096 33.8027L46.466 33.7278L46.6164 33.5967L46.748 33.6529L47.1616 34.2522L47.2556 34.2897L47.5752 34.3646L47.6692 34.3458L47.688 34.2709L47.6504 34.1398L47.5564 33.9151V33.7653L47.6128 33.6717L47.7068 33.5967L47.8008 33.5593L47.9136 33.5406L47.9888 33.578L48.158 33.7091L48.2708 33.7653L48.4024 33.7466L48.5152 33.7278L48.628 33.6717L48.7408 33.6342L49.1356 33.6717L49.3424 33.6155L49.6432 33.4282L49.7184 33.4095L49.7936 33.4469L49.85 33.5967L49.8876 33.8776L49.9252 34.0087L50.0004 34.0649H50.1132L50.1884 34.0837L50.2636 34.1586L50.3388 34.2709L50.3764 34.3833L50.4328 34.6455L50.4892 34.7578L50.5456 34.8702L50.6396 34.9638L50.9404 35.1324L51.0532 35.1698L51.166 35.1511L51.2788 35.0949L51.354 35.0013L51.4104 34.8889L51.4668 34.7766L51.5608 34.7204L51.7488 34.7391L52.1812 34.8889L52.3316 34.7953L52.4068 34.5893V34.3458L52.3692 33.8589L52.388 33.5967L52.482 33.4282L52.5384 33.2597L52.67 33.2409L52.8768 33.3533L52.952 33.372H53.2152L53.2716 33.4095L53.3092 33.4469L53.3844 33.5593H53.422L53.5536 33.5031L53.61 33.4844L53.9672 33.4095L54.0048 33.4282L54.0236 33.4657V33.578L54.1364 33.6529L54.2492 33.7278H54.3808L54.4936 33.6529L54.5312 33.5218L54.5876 33.372L54.644 33.2409L54.738 33.1847L54.832 33.1473L55.02 33.0349L55.0952 33.0911L55.2268 33.2409L55.2832 33.3346L55.302 33.4469L55.3208 33.5406L55.3396 33.6155L55.4336 33.6717H55.9976L56.2044 33.7653L56.336 33.9526L56.3736 34.2709L56.3548 34.402L56.2984 34.5144L56.2232 34.5893L56.148 34.6829L56.1292 34.7766V34.9076L56.1856 35.0387L56.242 35.1137L56.3172 35.1324H56.5616L56.5992 35.1886L56.5616 35.4695L56.5804 35.5818L56.6556 35.6567L56.7872 35.6755L56.9188 35.638L57.0504 35.6193L57.1444 35.7129L57.2196 35.9564L57.2572 36.0313L57.3324 36.1249L57.6896 36.3871L57.8588 36.462L59.1184 36.5744L59.2124 36.6118L59.2876 36.7055L59.344 36.8178L59.4004 36.874L59.4568 36.9115H59.532L59.9832 36.8178L60.2088 36.7991L60.3968 36.9302L60.4908 37.0238L60.7352 37.1362L60.7916 37.1737L60.7728 37.3609L60.66 37.4171L60.3968 37.3797L60.284 37.4733L60.2652 37.5856L60.3404 37.698L60.6036 37.9227L60.754 37.8666L60.9044 37.698L61.0548 37.5669L61.2992 37.5295L61.5436 37.5482L61.7692 37.5107L61.9572 37.3047L62.1452 36.874L62.2016 36.7617L62.352 36.5931L62.4084 36.4995L62.4272 36.3684L62.4084 36.1249V35.9751L62.4272 35.844L62.6152 35.3758L62.6528 35.3197L62.6904 35.2635L62.8972 35.1886L63.1792 35.1698L63.4236 35.2635L63.4988 35.5257V35.7878L63.6116 35.9938L63.762 36.1624L63.9312 36.2935L64.1756 36.4246L66.0932 36.6493L66.5632 36.5744L67.8228 36.1437L69.1012 35.7129L69.2516 35.5631L69.3456 35.3384L69.4208 35.0387L69.496 34.3833L69.5336 34.1773L69.7404 32.96L69.8532 32.6229L70.0036 32.4169L70.1916 32.3046L70.436 32.2484L70.3608 32.2109H70.4736L71.1316 32.1735L71.3948 31.9675L71.6392 32.3795L71.6956 32.7727L71.7896 33.1847L72.128 33.6529L72.692 33.3346L73.3312 33.8402L73.1808 34.0462L73.0868 34.5331L73.7072 35.2073L73.3876 35.9189L73.4252 36.3309L73.5944 36.4995L74.0268 36.4807L74.4404 38.1849L75.1736 39.7393L76.076 41.1626L76.17 42.0615L75.7564 42.23L75.2676 41.9866L74.7976 42.3611L74.5532 43.0915L74.102 43.5597L73.8764 44.1589L74.0644 44.7207L73.4628 44.702L73.2748 44.9455L73.3312 45.2638L74.2148 46.7807L73.7448 46.8369L73.256 47.0804L73.7072 47.2115L74.0456 48.0167L75.042 49.234L75.7376 49.4213L76.1512 49.1966L76.7152 49.3277L76.828 49.852L76.7152 50.5262L79.6104 52.0618L81.0392 54.2529Z" fill="#94a3b8"/>
<path id="KAZ3196" d="M90.8152 6.55453V6.57325L91.4168 9.23253L90.8716 9.47598L91.1536 9.86925L91.6988 10.1127L92.0748 10.7682L90.9468 11.2738L90.458 11.6109L90.552 12.2851L90.7964 13.0342L91.0972 13.0903L91.4168 13.5398L91.3228 14.3451L90.9092 14.8133L91.0972 15.4687L91.68 15.5811L91.8304 16.48L91.8492 17.304L92.1124 17.7909L92.5448 18.2029L92.1124 18.5025L91.116 18.6523L90.8528 19.1767L90.9092 19.4576L91.0596 19.6449L91.1912 20.0007V20.3565L91.1348 20.9371L90.7776 21.3303L90.6272 22.5102L90.6084 23.7649L90.5332 25.4503L90.1572 25.8811L89.9128 26.574L89.7248 27.5665L89.0104 28.3343L88.1268 28.634L87.8072 28.5965L87.732 29.046L88.484 29.5516L88.7284 30.0573L88.6344 30.8438L88.5404 31.1247L88.484 31.4056L88.6156 31.5554L88.5028 31.7053L88.296 31.8925L88.0704 32.2109L88.2584 32.4731L88.2208 32.9225L89.0104 34.3271L89.0856 35.6192L89.6684 35.5818L90.082 34.9638L90.6272 34.8702L91.0784 35.1885L91.1724 35.638L91.3416 35.7878L91.7928 35.7691L92.1124 36.2372L92.5448 36.5743L94.1992 37.1174L95.534 36.8927L96.0228 37.3047V37.8665L95.816 38.2411L96.0228 38.5782L96.4928 38.9527L97.0756 38.6156L97.696 38.3722L98.8992 38.2036L99.6512 37.9789L99.9896 37.7167L100.14 37.8103L100.328 38.0538L100.798 38.3909L100.516 38.9527L100.046 39.4396L98.6924 39.8516L98.4292 39.9827V40.2262L98.4856 40.376L98.4292 40.4696L98.3916 40.5445L98.4856 40.7505L98.448 41.1251L97.3576 42.5109L94.3684 45.2825L93.9548 45.8443L93.4284 46.0503L93.2028 46.7433L92.6764 46.9118L91.0972 48.3538L90.176 48.4849L89.5744 48.822L89.142 49.3463L88.1644 49.5523L86.0964 49.234L84.5736 49.4962L84.0472 50.7696L83.502 50.7883L83.5208 50.9756L83.4832 51.3502L83.69 51.8371L83.1448 52.0056L82.1672 52.53L82.1296 53.2416L81.0392 54.2529L79.6104 52.0618L76.7152 50.5262L76.828 49.852L76.7152 49.3276L76.1512 49.1965L75.7376 49.4212L75.042 49.234L74.0456 48.0167L73.7072 47.2114L73.256 47.0803L73.7448 46.8369L74.2148 46.7807L73.3312 45.2638L73.2748 44.9454L73.4628 44.702L74.0644 44.7207L73.8764 44.1589L74.102 43.5596L74.5532 43.0914L74.7976 42.3611L75.2676 41.9865L75.7564 42.23L76.17 42.0614L76.076 41.1625L75.1736 39.7393L74.4404 38.1849L74.0268 36.4807L73.5944 36.4994L73.4252 36.3309L73.3876 35.9189L73.7072 35.2073L73.0868 34.5331L73.1808 34.0462L73.3312 33.8402L72.692 33.3345L72.128 33.6529L71.7896 33.1847L71.6956 32.7727L71.6392 32.3794L71.3948 31.9674L71.1316 32.1734L70.4736 32.2109H70.3608L70.1164 32.0985L69.9848 31.9674L69.872 31.7802L69.684 31.1996L69.5712 31.0123L69.402 30.9749L69.1952 30.8438L69.026 30.7689L68.9696 30.7876L68.8568 30.8251H68.8004L68.7252 30.8063L68.5748 30.7127L68.462 30.694L68.1424 30.7127L68.0484 30.694L67.8604 30.6378L67.7664 30.6191L67.616 30.6378L67.5596 30.6191L67.5032 30.5816L67.4092 30.4692L67.2588 30.3569L67.2024 30.3007L67.1272 30.1509L67.1084 30.0573L67.0896 29.9823V29.7576L67.1084 29.664L67.0332 29.6453L65.172 29.6078L65.1156 29.5891L65.0968 29.5329L65.078 29.4018L65.0216 29.3643L64.5328 29.2707L64.42 29.2145L64.4388 29.0647L64.4952 28.9711L64.7208 28.8587L64.8148 28.7838V28.7276V28.5965L64.8524 28.5591L64.9276 28.4842L64.984 28.428L65.0028 28.3718L64.8712 28.222L64.0628 28.016L63.5928 27.6602L63.4236 27.604L63.386 27.6789L63.3296 27.7913L63.2168 27.8474L63.0852 27.8287L62.9724 27.7351L62.7656 27.2482L62.728 27.1358L62.7468 27.0047L62.8032 26.8362H63.7244L64.4012 26.1058L64.7584 25.8062L65.1156 25.6563H65.3788L65.642 25.7125L65.8864 25.6938L66.112 25.5065L66.3 25.2069L66.394 25.132L66.8264 24.9447L66.9204 24.8698L67.146 24.6076L67.24 24.5327L67.428 24.4203L67.5784 24.2705L67.2212 23.7649L67.1836 23.6338L67.1648 23.3342L67.1272 23.2031L67.0896 23.1282L67.0332 23.0907L66.6196 22.9409L66.5444 22.866L66.5256 22.7536L66.5444 22.3978L66.5256 22.248L66.5068 22.1169L66.488 22.0794L66.4316 22.0607L66.206 22.0982L66.1308 22.0794L66.0744 22.042L66.018 21.8922L65.9428 21.8547L65.9052 21.7985L65.8864 21.7423V21.6674V21.5738L65.9992 21.2742L66.1872 21.1431L66.4128 21.0869L66.6008 20.9933L66.676 20.8996L66.77 20.6749L66.864 20.5813L67.6536 19.8509L67.2776 19.4763H67.6348L67.804 19.4202L67.9544 19.3078L68.1048 19.1767L68.274 19.158L68.4244 19.2142L68.5748 19.3078L68.7064 19.364L68.8568 19.3827L68.9884 19.364L69.12 19.3078L69.3456 19.1205L69.4584 19.1018L69.59 19.158L69.7592 19.3078L70.0224 19.5887L70.1728 19.6449L70.3232 19.5513L70.3984 19.4763L70.4924 19.4576L70.6804 19.4763L71.1504 19.4202L71.3196 19.4763L71.6204 19.7198L71.7896 19.7573L72.1468 19.6074L72.316 19.4951L72.41 19.3078L72.504 18.9333L72.5228 18.7647L72.4852 18.5774L72.3724 18.3902L72.222 18.2965L71.2256 18.1093L70.906 17.9594L70.624 17.6973L70.436 17.4351L70.342 17.3976L69.9096 17.6411L69.7592 17.6598L69.59 17.6223L69.1388 17.2665L68.9696 17.1916H68.5372L68.3304 17.1542L68.1424 16.9669L68.0484 16.7983L68.0108 16.5923L68.0296 16.4051L68.1048 16.2178L68.3116 15.9182L68.3492 15.8245L68.368 15.7309L68.3868 15.4874L68.462 15.4125L68.5936 15.3751L68.7064 15.4125L68.8004 15.4874L68.8944 15.656L69.0072 15.8245L69.1388 15.9182H69.2892L69.402 15.8433L69.6276 15.5811L69.7592 15.4874L69.9472 15.3938L69.8156 14.8694L69.7592 14.7758L69.7028 14.7383L69.1764 14.7571L69.0448 14.7945L68.838 15.0754L68.6876 15.1129L68.0296 14.9443L67.9544 14.8882L67.9168 14.8507L67.8604 14.7196L67.8416 14.6634L67.5972 14.5885L66.958 14.5511L66.8452 14.4013L66.958 14.214L67.428 14.3825L67.5784 14.2327L67.5972 14.1391V14.0454V13.9518L67.6348 13.8582L67.71 13.8207L67.8792 13.7833L67.9168 13.7083L67.9732 13.5211L68.086 13.39L68.2176 13.2589L68.3116 13.1278V12.9593L68.1988 12.8656L68.0484 12.7907L67.9168 12.7158L67.8228 12.566L67.7852 12.5285L67.6912 12.5098L67.3904 12.4911L67.2964 12.4723L67.2588 12.3974V12.3038V12.2102L67.2964 12.1353L67.3716 12.0229L67.4656 11.948L67.6912 11.9105L67.8416 11.8918L68.0484 11.948L68.086 11.9854L68.1424 12.1165L68.1988 12.2102L68.274 12.2851H68.368L68.4432 12.1353V12.0042L68.4244 11.8731L68.3116 11.5734L68.274 11.4236L68.5372 11.4049L68.65 11.33L68.744 11.1989L68.8192 11.0865L68.9508 11.0678L69.308 11.124L69.3832 11.1802L69.5148 11.4798L69.59 11.536L69.9284 11.6109L69.9472 11.8543L69.9848 11.9293L70.06 11.9667L70.154 11.948L70.1916 11.8731L70.2292 11.7607V11.6109H70.6804L70.7368 11.6671L70.7932 11.7045L70.8496 11.6858L70.9624 11.5547H71.0188L71.094 11.5734L71.1504 11.6109L71.188 11.7607L71.2068 11.8731L71.2256 11.948L71.3196 12.0042L71.4888 12.0603L71.9964 12.0791V11.6109V11.5734V11.4236L73.8764 11.3487L73.9704 11.3674L74.0268 11.4423V11.6109L73.82 11.7607L73.7636 11.8543L73.7824 12.0229L73.8576 12.154L74.0832 12.2663L74.1772 12.3787L74.2148 12.4536L74.2712 12.5098L74.3276 12.5473H74.4028L74.478 12.5098L74.4968 12.4723L74.4404 12.2289L74.4216 12.154V12.0978L74.478 12.0042L74.6848 11.7982L74.5908 11.6483L74.572 11.6109L74.5156 11.3487L74.6472 11.1427L74.8728 11.0116L75.0608 10.9554L75.4556 10.918L75.7188 10.8243L75.794 10.8431L76.0008 10.9367L76.1324 10.9554L76.5084 10.8431L76.9596 10.8993L77.0912 10.8243L77.1664 10.6933L77.1476 10.5809L77.11 10.4685L77.0912 10.3187L77.1476 10.2063L77.298 10.1502L77.58 10.1689L78.1064 10.2813H78.2756L78.4072 10.2251L78.6516 10.0191L78.7644 9.96289L79.084 9.94416L79.836 9.60707H79.9864L80.1368 9.68198L80.5128 9.98162L80.6444 10.0191L80.7008 10.0378L80.7572 9.94416L80.8888 9.86925L81.058 9.85053L81.2084 9.77562L81.2836 9.56962L81.1332 9.36362L81.0768 9.23253V9.17634L81.1144 9.15762L81.152 9.10143L81.1896 9.06398L81.2836 9.15762L81.34 9.17634L81.3964 9.19507L81.4528 9.17634L81.4904 9.15762L81.5656 9.06398L81.6032 9.02653H81.6596L81.8664 9.08271L81.9792 9.04525L82.2048 8.93289L82.3552 8.91416L82.4492 8.85798L82.5244 8.8018H82.5808L82.7124 8.85798L83.1636 8.8018L83.22 8.78307L83.314 8.65198H83.3704L83.4644 8.68943L83.5208 8.70816L83.6336 8.67071L83.8216 8.53962L83.8968 8.5958L84.1788 8.83925L84.3104 8.93289L84.4796 8.95162L84.7804 8.8018L85.0624 8.55834L85.3632 8.40853L85.664 8.53962L86.0212 9.02653L86.0964 9.10143L86.1528 9.13889L86.228 9.17634L86.3032 9.15762L86.3408 9.13889L86.3972 9.08271H86.416L86.5664 9.13889H86.604L86.7356 8.87671L86.604 8.03398L86.698 7.86543L86.6792 7.69689V7.50962L86.7544 7.41598L87.3372 7.1538H87.4688L87.732 7.22871L87.826 7.19125L87.8636 7.02271L87.8072 6.7418L87.826 6.62944L87.9576 6.59198L88.4088 6.64816L89.048 6.87289L89.1796 6.85416L89.3112 6.72307L89.424 6.47962L89.5556 6.27362L89.706 6.17998L90.0444 6.04889L90.1384 6.10507L90.176 6.62944L90.2512 6.76053L90.8152 6.55453Z" fill="#94a3b8"/>
<path id="KAZ3197" d="M58.4604 73.1487L58.3664 70.7329L58.404 70.7891L58.4792 70.7516L58.5356 70.6205L58.5544 70.452L58.5732 70.2647L58.6672 69.9464H58.7236L58.78 70.0775L58.874 70.1711L59.0056 70.1898L59.062 70.3958L59.1184 70.5456L59.2312 70.6393L59.2876 70.8265L59.4192 70.864L59.4944 70.9202L59.6072 70.9951L59.6824 71.0325V71.1075L59.6448 71.2573L59.7012 71.4445L59.7388 71.5569L59.814 71.5195L59.8704 71.5007L59.9644 71.4445L60.0208 71.5382L60.0584 71.688V71.8753L59.9832 72.1187V72.2498V72.3996L60.0396 72.6244L60.0772 72.8678L60.1712 73.0925L60.2276 73.2611L60.284 73.336L60.3028 73.5795L60.2464 73.7105L60.2276 73.8042V73.954L60.284 74.1787L60.2464 74.3473L59.5508 73.8791L58.4604 73.1487ZM64.044 68.6729L64.0628 68.6916L64.2132 68.7291L64.2508 68.7478L64.232 68.8227L64.1568 68.9164L64.138 68.9538L64.1568 68.9913L64.1944 68.9725L64.2508 68.9351L64.326 68.8789L64.3824 68.8602H64.514L64.702 68.9164L64.7584 68.9538L64.8148 68.9913L64.8336 69.0662V69.1224V69.1785L64.7772 69.2534H64.702L64.5892 69.1598L64.4952 69.1785L64.4012 69.1973H64.2884L64.1756 69.1411L64.1004 69.0849L63.9124 68.9913L63.7808 68.9164H63.7432L63.4236 68.8976L63.4048 68.9164L63.3484 68.9538L63.3108 69.0475L63.292 69.1411L63.1416 69.01L63.0852 68.9351L63.0476 68.8227L63.0852 68.7104L63.1416 68.6729L63.198 68.6542L63.5552 68.6729L63.6492 68.6542L63.6868 68.6355L63.8184 68.5044H63.8748L63.9312 68.5418L64.0064 68.6355L64.044 68.6729ZM64.796 68.6355V68.7104L64.7772 68.7478L64.7208 68.7665L64.6832 68.7478L64.5892 68.6542L64.5516 68.6355L64.4012 68.6542H64.3636L64.3448 68.6167V68.5605L64.4012 68.5044L64.5704 68.4669H64.6268L64.6832 68.4856L64.7396 68.5231L64.7584 68.5605L64.796 68.6355ZM75.8504 60.8262L75.0608 61.4442L74.9856 61.7438L76.358 61.5191L77.5424 62.3244L78.1816 62.418L79.3284 62.9611L79.9488 63.0173L80.1932 62.9424L80.3436 63.0735L85.8332 65.2833L86.228 65.3395L87.3372 66.332L88.3148 66.8002L94.8572 68.3545L95.628 68.2984L96.098 68.3358L96.2108 68.9913L96.286 69.628L96.7748 70.0213L96.9628 70.6955L96.6056 71.2947L96.3048 72.8304L96.286 73.5982L96.7184 73.9727L97.32 74.3473L97.6772 74.778L97.7336 79.6845L98.1848 80.0216L98.3728 79.9842L98.6548 80.0965L98.918 80.3025L98.9744 80.4898L99.4068 81.0329L100.478 81.8382V82.2502H100.065L99.7452 82.6247L99.8768 82.8682L99.9144 83.2989L99.7264 83.8045L99.2564 83.5236L99.2376 84.1791L98.8992 84.7596L98.7864 85.3215L98.3916 85.696L98.4668 86.314L98.5984 85.7896L98.7676 85.7147L98.7488 85.9394L98.9368 85.9582L98.9744 86.4076L99.294 86.6698L99.4068 86.7447L99.2 86.9694L96.944 88.0744L94.7256 89.5538L93.748 90.4153L93.3344 90.2654L92.6388 90.6025L91.21 92.0071L90.4204 91.876V91.6887L90.458 91.6138L90.552 91.5764L90.6084 91.464L90.6272 91.1269L90.8152 88.0369L89.4992 88.7485H89.424L88.5216 86.9133L88.1456 86.108L87.9576 85.9582L87.0176 85.3589L86.5476 84.872L85.57 83.5798L85.4196 83.4487L85.2692 83.43L85.1 83.4862L83.7464 84.2353L83.2952 84.4975L83.126 84.5349L82.2424 84.46L79.6292 84.2165L78.9336 84.1604L77.5424 84.0293L77.11 84.1042L74.1772 84.5724L72.1092 84.9656L71.9212 84.872L71.5828 84.4787L70.7932 83.5985L69.7404 82.3813L69.1576 81.7071L68.1424 80.6022L67.8604 80.1527L67.8228 80.0029L67.7852 79.6845L67.7664 79.5347L67.6724 79.3475L67.5596 79.2164L66.3188 78.3924L64.89 77.4373L63.0664 76.2387V75.9578V75.7144V74.984L63.0476 74.6469V74.2911L63.0852 74.0102L63.1416 73.6356L63.1792 73.3173V73.13V72.8865L63.1228 72.6056L63.0852 72.2873L63.0288 71.8378L62.9536 71.6131L62.8972 71.5195L62.8032 71.4633L62.6528 71.4258L62.5212 71.4071L62.4272 71.4258L62.2392 71.5007L61.788 71.5195L61.694 71.482L61.6188 71.4258L61.5624 71.3696V71.2947V71.2198L61.5812 71.0325V70.864V70.7891L61.6188 70.7142L61.6564 70.6767L61.694 70.6393L61.7504 70.5644L61.788 70.4895L61.8068 70.4145L61.788 70.3209V70.246L61.8068 70.1898L61.8632 70.1524L61.976 70.1336V69.9838L61.9572 69.9276L61.9008 69.8902L61.9196 69.834L61.976 69.8153L62.0324 69.7591L62.0136 69.7029L62.0324 69.6467L62.0888 69.628L62.1452 69.6842L62.2016 69.6655L62.1828 69.5718L62.1452 69.4969L61.976 69.4033L62.0324 69.3471L62.07 69.2722L62.1452 69.2347L62.2016 69.2534L62.2392 69.3096L62.3896 69.2722L62.4272 69.2347H62.5212L62.6152 69.2534L62.728 69.2722L62.822 69.3284L62.8972 69.3845L63.0852 69.4407H63.1792L63.3296 69.3845H63.4048L63.4424 69.4407L63.5928 69.422L63.7432 69.4595L63.7808 69.4782L63.9124 69.4595H63.95L63.9876 69.4969L64.0816 69.628L64.1192 69.6655H64.1568H64.2132L64.3072 69.6093H64.3636H64.42L64.4764 69.6467L64.6268 69.7404L64.6644 69.7591L64.702 69.7778L64.796 69.7404L64.8712 69.6842L64.9276 69.5905L65.0404 69.2534L65.2096 69.01L65.4164 68.8602L65.8676 68.6729L65.9616 68.6167L66.0368 68.5418L66.0744 68.5044L66.2624 68.0924L66.3 68.0362L66.488 67.8676L66.5444 67.8489H66.6572L66.958 67.774H67.052L67.2024 67.6429L67.616 67.3995L67.8228 67.2309L67.8792 67.1934H67.9544L68.1236 67.2496H68.1988L68.2552 67.2309L68.3116 67.1934L68.368 67.1373L68.4056 67.0624L68.4244 66.95L68.462 66.8751L68.5184 66.8002L68.556 66.7253L68.5936 66.5755L68.6312 66.5005L68.65 66.4444L68.6688 66.3507L68.7252 66.2571V66.2009V66.0885L68.7064 65.9575L68.6876 65.8638L68.65 65.714L68.6124 65.6578L68.5748 65.6391L68.4432 65.6016H68.368L68.3116 65.6204L68.1236 65.714H68.0484L67.9732 65.6953L67.7664 65.5829L67.2776 65.5267H67.146H67.0708L66.9204 65.4705L66.7888 65.3956L66.7324 65.3395L66.5444 65.0398L66.4128 64.89L66.394 64.8525L66.3564 64.7964V64.7402V64.684L66.394 64.5529L66.4316 64.3282L66.5068 64.1034L66.5256 63.9911V63.86V63.7476L66.488 63.6915L66.4504 63.6727L66.2436 63.6165H66.206L66.1308 63.6727L66.112 63.654L65.9992 63.5604L65.8676 63.5229H65.736L65.5668 63.448H65.5104L65.3788 63.4667L65.4352 63.654L65.4728 63.7289L65.5104 63.7851L65.5856 63.8413L65.83 63.9536L66.3376 64.2907L66.3564 64.3282V64.3844L66.3 64.4218L66.1308 64.5155L66.0932 64.5529L65.9616 64.7215L65.8864 64.7776L65.83 64.8151L65.4728 64.9275H65.3976L65.3224 64.9087L65.266 64.8713L64.984 64.5716L64.9652 64.6465L64.9088 64.8151L64.89 64.89L64.7584 65.2271L64.702 65.4331L64.608 64.9275L64.4012 64.2907L64.3636 64.1971L64.3072 64.1222L64.2508 64.0473L64.1756 64.0285L64.1192 64.0098L64.0628 63.9911L63.9312 64.0285L63.8184 64.1034L63.762 64.1409L63.6304 64.2907L63.4612 64.4031L63.2356 64.6091L63.1604 64.6465L62.9912 64.684L62.8596 64.8151L62.822 64.9087L62.7844 65.0024L62.7656 65.2271L62.7468 65.4705L62.7656 65.5829L62.7844 65.6953L62.8408 65.7702L63.0852 65.92L63.1792 66.0885L63.292 66.2196L63.4048 66.2384L64.4012 65.9013H64.4952L64.5704 65.9387L64.796 66.2758L64.984 66.4444L65.1908 66.5567L65.4164 66.6316L65.6232 66.3507L65.6608 66.332L65.8676 66.2758L65.9052 66.2571L65.9428 66.2009L65.9992 66.0698L66.018 65.9949L66.1872 66.0698L66.2248 66.126V66.1634V66.2945L66.2436 66.4444L66.2812 66.5005L66.3188 66.5755L66.3752 66.7253L66.488 66.8938L66.5632 66.9687L66.582 67.0436V67.3995V67.4931L66.5444 67.5867L66.5068 67.6616L66.4504 67.7365L66.018 68.1673L65.9616 68.2234L65.8864 68.2609L65.7924 68.2796H65.7172L65.3976 68.186H64.9088L64.8336 68.1673L64.5704 68.0549L64.4764 68.0362L63.6868 68.0736L63.5928 68.0362L63.3484 67.8489L63.2544 67.8115L63.1416 67.7927L63.0288 67.8115L62.916 67.8489L62.4836 68.1485L62.2956 68.2234L61.9384 68.2796H61.8444L61.7692 68.2609L61.7128 68.2047L61.7504 68.1298L61.8632 68.0362L61.9384 67.9613L61.976 67.8676V67.7553V67.6429L61.9008 67.3058V66.9875V66.9125L61.8444 66.8002L61.788 66.6878L61.6752 66.5755L61.6188 66.538L61.5812 66.5193L61.318 66.5005L60.9608 66.5567H60.9232L60.8856 66.538L60.7728 66.4256L60.754 66.4069H60.66L60.6036 66.4444L60.566 66.5005L60.5848 66.6129L60.6788 66.744L60.8104 67.0062L60.942 67.2309L61.1488 67.4744L61.2992 67.6804L61.412 67.8489L61.4872 68.0175L61.5436 68.1111L61.5624 68.2234L61.5248 68.4295L61.4308 68.6729L61.2992 69.0662L61.224 69.2909L61.1676 69.4595L61.0924 69.628L61.0736 69.7778V69.8902L61.13 70.0213V70.1336L61.0548 70.2085H60.942L60.8292 70.1898L60.6976 70.1524L60.6036 70.2085L60.5096 70.3396L60.378 70.4895L60.3028 70.6018L60.2276 70.7142L60.1524 70.7516L60.1712 70.4707L60.1148 70.3771L60.0208 70.3022L59.9456 70.2834L59.8516 70.3209L59.7952 70.4145L59.7576 70.5269V70.6018L59.7952 70.7142L59.814 70.8078L59.7952 70.8453L59.7388 70.8265L59.6824 70.7704L59.6072 70.6767L59.4944 70.6018L59.4192 70.5082L59.3628 70.4145L59.3252 70.3958H59.2876L59.25 70.3771L59.2124 70.2834V70.1524L59.3252 69.6655L59.4944 69.3096L59.5696 69.216L59.72 69.1224L59.7576 69.0849L59.814 68.9725L59.7952 68.8789L59.7388 68.7665L59.6824 68.6916L59.6072 68.6167H59.532L59.438 68.6355L59.3628 68.6916L59.0432 68.9725L58.9492 68.9913L58.7612 68.9725L58.5544 68.9913L58.7236 68.2796L61.2804 64.8713L62.4272 63.6727L63.574 62.83L64.6832 62.5678L64.8148 61.7625L65.266 61.3131L66.3188 61.388L67.4656 59.6276L67.898 58.504L68.8944 57.0995L70.0224 56.8185H71.3384L72.2032 58.2044L72.7672 58.3916L73.444 59.0658L74.1396 60.0958L74.0456 60.3955L74.478 60.5265L74.9104 60.5827L75.4368 60.8449L75.8504 60.8262Z" fill="#94a3b8"/>
<path id="KAZ3198" d="M16.0476 67.2871L15.9724 67.3246L15.8596 67.2309L15.7844 67.0811L15.5776 66.4818V66.3507H15.7092L15.8972 66.4818L15.9912 66.5567L16.0476 66.6504L16.1228 66.8189V66.9875L16.0476 67.2871ZM46.5976 68.1673L46.09 67.9238H45.8644L45.5072 67.7927L45.0372 67.8302L44.774 67.6429L44.6048 67.3433L44.1536 67.3995L43.646 67.156L43.6272 66.5193L43.2512 66.1447L42.9316 66.3507L42.0104 65.5267L40.9576 66.4257L39.3784 66.5006L35.7876 67.2497L35.6372 67.3807L35.374 67.362L34.998 67.4744L34.2648 68.4669L33.8324 68.8977L34.1144 69.2347L33.0992 69.8715L30.8244 70.4333L30.016 70.246L30.0724 70.1711L30.11 70.1337L30.2416 70.0962L30.2792 70.0587L30.4296 69.834L30.486 69.7217L30.58 69.4595L30.6552 69.3284L30.7868 69.1973L30.8244 69.1411L30.8432 69.0849L30.8808 68.9351L30.9184 68.8602L31.0124 68.6917L31.0312 68.5793L31.0124 68.4669L30.9936 68.392L31.0124 68.3171L31.1252 68.1673L31.1628 68.0737L31.1816 67.9613L31.2192 67.5118L31.3696 66.9126V66.4631L31.238 66.1073L31.0312 65.8451L30.7868 65.6017L30.8808 65.6204L31.0312 65.7327L31.1064 65.7889V65.7327L31.0312 65.6766L30.9936 65.5642V65.4518L31.0124 65.3207L30.9372 65.3582L30.8244 65.4706L30.7304 65.5455L30.6364 65.508L30.6176 65.3769L30.6928 65.1897L30.8244 64.9087V65.0398L30.8996 65.096L30.9748 65.1147L31.05 65.0586L31.0876 64.9462L31.1064 64.7027L31.144 64.5904L31.1816 64.7215L31.2192 64.7027L31.2568 64.5904L31.2944 64.4967H31.332L31.4448 64.5155L31.4824 64.4967L31.5576 64.4593L31.5764 64.3657L31.5952 64.1035L31.5012 63.9537L31.3696 63.8787L31.2192 63.86L31.1252 63.8226L31.1064 63.7289V63.5229L31.0312 63.0547L30.9372 62.8675L30.9184 62.7926L30.8808 62.7551L30.674 62.7738H30.5988L30.5236 62.6802L30.3544 62.3993L30.2792 62.3431L30.0724 62.3618L29.64 62.4367L29.3956 62.3993H28.8692L28.7564 62.3618L28.6812 62.3244L28.512 62.1371L28.4368 62.0997L28.136 62.0622H28.0608L28.0044 62.1371L27.9856 62.212V62.3806L27.9668 62.4367L27.76 62.7177L27.6848 62.7738L27.2524 62.9424H27.1208L26.9704 62.83L26.914 62.8487L26.8764 62.9049L26.8952 62.9986L26.914 63.0173L27.0456 63.0547L27.0832 63.0735L27.1396 63.1858L27.1584 63.2607L27.1772 63.3357L27.1396 63.3544L26.5568 63.3169L26.444 63.2607L26.3688 63.2046V63.1484L26.35 63.0547L26.3312 63.0735L26.2748 63.0173L26.1244 62.8675L26.0868 62.83L26.0492 62.7926L26.0304 62.7177L26.068 62.6802L26.1056 62.624L26.1432 62.5678V62.4929L26.0492 62.4555L25.9552 62.5866L25.8612 62.83L25.786 62.8675H25.6356L25.4852 62.83L25.3724 62.7738L25.5228 62.5678L25.5604 62.5304L25.4664 62.4929L25.3536 62.5491L25.1656 62.6802H25.0528L24.9588 62.624L24.8648 62.5491L24.7896 62.4555L24.6204 62.3244L24.564 62.212L24.658 61.9311L24.6392 61.7813L24.5828 61.6877L24.47 61.6689L24.376 61.7438L24.3384 61.8749L24.3008 62.006L24.2632 62.1371L24.1692 62.1558L24.0752 62.0247L23.9624 61.8L23.8684 61.7064L23.7556 61.6502L23.4736 61.594L23.2104 61.5004L22.6276 61.3693L22.4396 61.2569L22.308 61.2757L22.1012 61.4255L21.932 61.5191L21.3116 61.6689L21.2364 61.7064L21.1048 61.8937L21.0108 61.9311L20.9544 61.9124L20.8416 61.8187L20.804 61.8L20.7476 61.8187L20.7288 61.8749L20.71 61.9124L20.7288 61.9311L20.71 62.006L20.334 62.624L20.2588 62.6989L20.2212 62.5866L20.24 62.4929L20.3152 62.3618L20.334 62.2869L20.3152 62.2307L20.2588 62.2682L20.0896 62.4555L19.9768 62.5117L19.8452 62.5491L19.7512 62.5117L19.6948 62.4929L19.6572 62.624V62.9424L19.6196 63.0547L19.5444 63.1484L19.4692 63.2046L19.394 63.1671L19.4692 63.0547L19.5256 62.9611V62.8862L19.4128 62.8487L19.2624 62.9049L19.2248 62.9237L19.1684 62.9798L19.1308 62.9611L19.0932 62.9237L18.9428 62.7926L18.9052 62.7738L18.83 62.7551L18.7736 62.8487L18.6232 63.2795L18.548 63.3544L18.5668 63.2795L18.5856 63.036L18.5104 63.0922L18.4916 63.1671L18.454 63.2607L18.4164 63.3169L18.3976 63.3357H18.3036L18.266 63.3544L18.2096 63.4106L18.0216 63.7851L17.9276 63.8975L17.8336 63.8787V63.8226L17.8712 63.7289L17.89 63.6727L17.8336 63.6353L17.7772 63.654L17.6268 63.7477L17.232 64.1784L17.1004 64.4031L17.0252 64.4967L16.9312 64.5529L16.762 64.5342L16.6868 64.5529L16.6492 64.5904L16.574 64.684L16.5364 64.7402L16.3672 64.7964L16.3108 64.9087H16.2544L16.1228 64.8713L16.0664 64.9275L16.0476 65.0586L16.0288 65.1335L15.8972 65.096L15.8408 65.0024L15.8032 64.9649L15.7656 64.9837V65.1335L15.7468 65.1897L15.7092 65.1709L15.6152 65.0398L15.54 65.0024H15.5024L15.4836 65.0586L15.5024 65.2271V65.2833L15.2016 64.89L15.1264 64.8526L15.1076 64.9837L15.1452 65.2833L15.0512 65.2271L15.0136 65.2646L14.976 65.3395L14.9196 65.4144L14.882 65.2646L14.8256 65.1709L14.5624 65.0586L14.4684 65.0024L14.4308 64.9087V64.9837V65.096L14.506 65.1709L14.5436 65.3395L14.5812 65.4144H14.5248L14.3744 65.3395V65.2833L14.3932 65.2271V65.1897L14.3744 65.1522L14.2804 65.0773L14.2428 65.0398L14.2052 65.0773V65.1335L14.0548 65.1147L13.8856 65.0586L13.754 64.9462L13.6788 64.8151L13.6976 64.9837L13.9984 65.3395L14.0736 65.5455L13.9796 65.508H13.8104H13.7916L13.7352 65.4331L13.6976 65.3207L13.6412 65.2458L13.5472 65.2271V65.2833L13.6224 65.3582L13.6412 65.4893L13.66 65.6204L13.7728 65.6953L13.9608 65.8638L13.9796 65.9387V65.9949V66.0698L13.9608 66.1447L13.754 65.9949L13.6788 65.92L13.6036 65.8264L13.5472 65.714L13.4908 65.6391L13.4156 65.6017H13.284L13.378 65.6766L13.4156 65.7515V65.8451L13.4344 65.9013L13.6036 66.0886L13.5472 66.1447L13.472 66.0886L13.1148 65.9762H13.0584L13.0396 66.0137L13.0584 66.0698L13.0772 66.126L13.1336 66.1447H13.19L13.2652 66.2009L13.284 66.332L13.3028 66.4444V66.5567L12.4192 66.0324L12.0808 65.7702L11.8928 65.5829L11.7988 65.5267H11.6672L11.5544 65.5455H11.4416L11.1596 65.3207L11.0468 65.1709L10.9152 65.0773L10.7272 65.0211H10.3136L10.1444 64.9462L10.2572 64.7964L10.182 64.7402L10.1632 64.6466L10.1444 64.5529L10.1068 64.478L9.93759 64.3844L9.84359 64.3469L9.76839 64.3282L9.88119 64.1784L9.99399 63.86L10.2384 63.654L10.5204 63.5978L10.7836 63.6915L10.8776 63.7664L10.9528 63.8787L11.0656 64.1409L11.1784 64.1784L11.8928 64.0473L12.0244 63.9349L12.2876 63.6166L10.8776 61.388L10.182 59.5715L10.1256 59.4217L10.088 59.3093L10.0128 59.2531L9.84359 59.2344L9.67439 59.1782L9.56159 59.0658L9.33599 58.7475L8.47119 57.2493L8.18919 57.0058L7.86959 56.856L6.06479 56.8935L5.08719 56.4253L4.97439 56.4066L4.89919 56.4627L4.86159 56.5751V56.9871L4.84279 57.3055L4.80519 57.4366L4.72999 57.4553L3.88399 56.856L3.73359 56.7062L3.63959 56.5938L3.62079 56.5189L3.65839 56.444L3.71479 56.3129L3.80879 56.2193V56.1631L3.78999 56.1257L3.63959 55.8635L3.31999 55.4702L3.28239 55.3766L3.33879 55.3204L3.71479 55.0957L3.90279 54.9271L3.95919 54.796L3.88399 54.7024L3.62079 54.6837L3.56439 54.59V54.4777L3.58319 54.3466L3.62079 54.2342L3.58319 54.1031L3.54559 54.0469L3.45159 53.9533L3.43279 53.8784L3.45159 53.8409L3.52679 53.766L3.60199 53.6349L11.8364 54.8709L14.2428 55.7137L14.3744 55.1893L16.4424 55.002L20.2024 52.3989L20.5408 52.3053L20.7664 52.0993L20.992 51.9869L21.2176 51.9682L21.6688 51.3689L22.1764 50.9569L22.6464 50.9007L23.154 50.7135L24.9212 50.9382L25.2596 51.0506L25.316 51.2753L25.1844 51.8184L25.8988 52.0993L26.2748 52.1742L26.6884 52.1929L26.8576 51.9682L28.4556 52.4926L28.7564 52.3615V52.0618L28.9068 51.2378L29.5836 50.1704L29.546 49.3464L30.2416 48.4849L30.5048 48.5598H32.1404L32.6292 48.41L32.7796 48.3164L32.7232 48.1104L32.8548 47.9418L33.7384 47.0804L34.058 47.38L34.5844 47.6609L34.622 47.8669L34.7912 47.9793L35.1296 47.4924L35.4868 48.3351L35.6184 49.1217L35.5996 49.7771L35.656 50.1142L35.562 50.3577L37.2728 50.7509L37.4984 50.1329L37.7052 49.8146L37.8932 49.6835L38.1376 49.7209L38.288 49.9831L38.4948 50.1517L38.9084 50.1891L39.134 50.9569L39.1152 51.3315L39.0024 51.4813L38.8896 52.3427L39.0964 53.0918L39.2656 53.9158L39.2468 54.6649L39.698 55.208L40.1116 56.9122L40.168 57.6987L39.8296 60.0584L39.8108 61.0322L40.1868 61.6127L40.6004 62.624L41.1644 63.4667L42.1044 64.3469L45.6764 65.6953L45.7892 66.3882L46.1652 66.95L46.2592 67.2871L46.3532 67.6991L46.5976 68.1673Z" fill="#94a3b8"/>
<path id="KAZ3201" d="M37.7428 37.5294L37.4044 38.0725L37.3292 38.4284L37.0284 38.7654L37.2352 39.4958L37.1788 40.2636L37.4232 40.6944L37.63 40.8442L37.7616 41.1064L37.6488 41.5184L37.5924 41.818L37.3856 42.2487L37.3104 42.642L37.066 42.9978L36.784 43.26L36.596 43.5222L36.5772 43.8031L36.0508 44.084L35.5056 44.0278L35.2612 44.0465L35.1296 44.29L34.5656 44.4585L34.34 44.6645L34.152 45.0765L33.9264 45.1327L33.9452 45.5634L33.7196 46.3687L33.7384 47.0804L32.8548 47.9418L32.7232 48.1104L32.7796 48.3164L32.6292 48.41L32.1404 48.5598H30.5048L30.2416 48.4849L29.546 49.3464L29.5836 50.1704L28.9068 51.2378L28.7564 52.0618V52.3614L28.4556 52.4925L26.8576 51.9682L26.6884 52.1929L26.2748 52.1742L25.8988 52.0993L25.1844 51.8184L25.316 51.2753L25.2596 51.0505L24.9212 50.9382L23.154 50.7134L22.6464 50.9007L22.1764 50.9569L21.6688 51.3689L21.2176 51.9682L20.992 51.9869L20.7664 52.0993L20.5408 52.3053L20.2024 52.3989L16.4424 55.002L14.3744 55.1893L14.2428 55.7136L11.8364 54.8709L3.602 53.6349V53.56L3.5268 53.4664L3.4328 53.3914L2.9816 53.2791L0.688004 52.4738V52.4551L1.3272 50.676L1.9476 48.9718L2.0604 48.822L2.2296 48.7096L2.568 48.5224L2.662 48.4287L2.756 48.3538L2.9816 48.0542L3.1696 47.6984L3.2636 47.3238L3.2072 46.968L2.9816 46.6684L2.3048 46.144L2.0416 46.0504L2.3424 44.3274L2.6244 42.6045L2.7184 42.3236L2.8876 42.1551L3.9028 41.7056L4.2036 41.3873L4.5044 41.0127L4.5984 40.8067L4.5796 40.5445L4.3352 40.2074L4.2976 40.0014L4.354 39.9078L4.5232 39.7393L4.5608 39.6269L4.542 39.5145L4.4668 39.4396L4.4292 39.3647L4.4856 39.2149L4.5608 39.1587L4.8804 39.0276L4.9368 38.934L5.0872 38.5969L5.2376 38.3909L5.4256 38.2036L5.6324 38.0913H5.8392L5.952 38.1662L6.2528 38.5594L6.4596 38.6905L6.516 38.7467L6.5724 38.8404L6.61 38.9153L6.6476 38.9714L6.7416 39.0089L6.798 39.0464L7.0048 39.2898L7.0988 39.4209L7.268 39.5894L7.456 39.8704L7.644 40.0389L7.6816 40.1138L7.7004 40.2074L7.738 40.3198L7.7944 40.3947L8.02 40.582L8.114 40.7693L8.1516 40.9753L8.1892 41.1813L8.2456 41.3873L8.2832 41.4434L8.3208 41.5933L8.3584 41.6494L8.4148 41.7056L8.6028 41.8554L8.678 42.024L8.7156 42.1925L8.772 42.2862L8.9412 42.3049L9.0728 42.2862L9.1104 42.3049L9.3172 42.5109L9.5992 42.6607L9.6556 42.6794L9.712 42.642L9.806 42.4922L9.8812 42.436L10.8212 42.0802L11.2724 41.7993L11.6296 41.3873L11.7048 41.2562L11.7424 41.1813V41.1064L11.686 40.8254L11.6484 40.7131L11.592 40.6382L11.2724 40.5258L11.2536 40.3573L11.2912 40.0951L11.216 39.8142L11.028 39.4396L10.8964 38.934L10.7648 37.904L10.7836 37.3984L10.7648 37.1736L10.652 37.0238L10.4264 36.9676L10.3136 36.9114L10.276 36.7616L10.3512 36.668L10.464 36.6867L11.0656 37.0425L11.2912 37.0987L11.4792 37.0613L12.3252 36.4245L12.7388 35.8814L12.9268 35.7129L13.566 35.5631L13.9608 35.3945L14.1488 35.226L14.2052 34.9825L14.13 34.7578L13.9796 34.5705L13.8668 34.3833L13.9232 34.1773L14.036 33.99L14.0736 33.8776L14.1112 33.6342L14.1488 33.5031L14.2052 33.3907L14.2804 33.3158L14.3744 33.2784L14.7504 33.3907H15.8408L15.916 33.3345L16.1416 33.0349L16.7996 32.4544L16.9876 32.3607L17.8148 32.1922L18.36 31.9113L18.4352 31.8551L18.4728 31.7802L18.454 31.6865L18.4164 31.5554V31.4056L18.454 31.3494L18.5292 31.2933L18.5856 31.2371L18.5292 31.1622L18.5104 31.106L18.548 31.0685L18.6044 31.0498L18.8864 31.0311L18.9616 31.0124L19.018 30.9374L19.0556 30.8064L19.1684 30.7876L19.2436 30.7689L19.2812 30.694L19.3 30.5254L19.2624 30.0947L19.2812 29.9824L19.3564 29.9074L19.4504 29.8887L19.5068 29.8325V29.6453L19.5256 29.4767H19.6196L19.7888 29.6265H20.0144L20.052 29.664L19.958 29.7764L19.8828 29.9074L19.9392 29.9824H20.052H20.1648L20.3716 29.8887L20.4844 29.7576L20.5032 29.5516L20.2964 28.9336L20.2776 28.6902L20.3904 28.5591L20.6348 28.6153L20.71 28.6714L20.804 28.7464L20.8792 28.84L20.9168 28.9524L20.992 29.1022L21.1048 29.1584L22.2328 29.2333L22.3268 29.1958L22.4396 29.1396L22.5336 29.1022L22.6088 29.1584L22.7216 29.3644L22.778 29.4205L22.872 29.458L23.0788 29.4767L23.154 29.5142L23.2104 29.664V29.8325L23.1728 29.9449L23.0976 30.0198L23.0036 30.076L22.5712 30.1509L22.5336 30.2071L22.59 30.3194L22.6652 30.4318L22.7028 30.5254L22.8532 30.6753L23.1916 30.7127L23.5676 30.6565L23.812 30.5254L23.906 30.4131L23.9624 30.3007L24.0188 30.2258H24.1316L24.2632 30.2633L24.3008 30.3382L24.3196 30.4505V30.6191L24.4324 30.8251L24.6392 30.8064L24.8648 30.6753L25.0528 30.5254V30.2633L24.9776 30.0198L24.9588 29.7951L25.222 29.4954L25.3536 29.2894L25.4476 29.1958L25.5792 29.1584H25.7108L25.8236 29.2145L25.9552 29.2894L26.068 29.3269L26.2184 29.3456H26.35L26.4628 29.3082L26.5568 29.2145L26.6696 28.9898L26.726 28.8774L26.8388 28.8213L27.102 28.84L27.2336 28.8213L27.3276 28.7464L27.384 28.5216L27.4592 28.4467L27.5908 28.5216L27.666 28.7838L27.7224 29.0647L27.7788 29.2894L28.0984 29.8887L28.2112 30.3569L28.2488 30.4318L28.3052 30.5254L28.3804 30.6378L28.4556 30.7127L28.5496 30.7689L28.5872 30.7876L28.6812 30.7127L29.0948 30.7502L29.1136 30.8064L29.17 30.7689L29.2264 30.7127L29.264 30.6378L29.3016 30.6004L29.358 30.5816L29.4708 30.5629L29.5084 30.5442L29.5272 30.488L29.5648 30.4318L29.6212 30.4131L29.6776 30.4318L29.7716 30.5442L29.8092 30.5629L30.0724 30.5442L30.1664 30.5816L30.11 30.7127L30.204 30.7314L30.3168 30.8064L30.392 30.8251L30.4484 30.8064L30.5236 30.7502L30.58 30.6753L30.6364 30.6191L30.8056 30.5442L31.3696 30.5629L31.332 30.4318L31.3508 30.3756H31.4072H31.4824H31.52L31.5576 30.4505L31.5764 30.488L31.6328 30.5067L31.708 30.4693L32.0464 30.5254L32.1216 30.5067L32.2344 30.4505L32.3284 30.5254H32.3472L32.5164 30.5816L32.5728 30.6565L32.6668 30.8251L32.7232 30.9L33.1932 31.0873L33.3812 31.2371L33.4376 31.2933L33.4752 31.4056L33.4376 31.4805L33.2872 31.5554L33.3624 31.6491V31.7802L33.3436 31.9113L33.3624 32.0236L33.5316 32.1734L33.588 32.2671L33.6256 32.3982L33.7384 32.5293L34.5844 32.7914L34.81 32.7353L34.9416 32.7727L35.1108 32.9225L35.2048 33.0162L35.3176 33.2596L35.4116 33.3345L35.656 33.372L35.75 33.4282L35.7876 33.5405L35.8252 33.8214L35.8628 33.9151L35.9004 33.99L35.9192 34.0649L35.9004 34.1773L36.0508 34.3645L36.126 34.4394L36.314 34.5518L36.3704 34.6267L36.4268 34.7391L36.502 34.8327L36.6148 34.8889L36.9908 34.9638L37.0284 35.0013L37.1224 35.0762L37.16 35.1136L37.3668 35.1698L37.442 35.1885L37.4608 35.2634L37.4796 35.3196L37.4608 35.3945L37.442 35.4694L37.1788 35.8065L37.1412 35.9564L37.1224 36.2747L37.1036 36.4245L37.0096 36.7429L36.972 36.8927L36.9908 37.0238L37.066 37.1736L37.2352 37.3984L37.3292 37.492L37.442 37.5669L37.536 37.5856L37.7428 37.5294Z" fill="#94a3b8"/>
<path id="KAZ3202" d="M126.968 22.5289L127.099 22.6787L127.231 23.278L127.344 27.4729L127.118 27.7163L126.648 28.0534L126.347 28.84V29.5703L126.911 29.458L127.231 29.4767L127.344 29.7389L127.87 29.9262L128.359 30.2071L127.983 30.4505L127.569 30.5254L126.874 30.8063L126.422 31.1434L126.31 31.4993L126.103 31.8925L125.802 32.2671L124.937 32.136L124.091 32.2858L123.847 32.2483L123.753 32.4918L123.828 32.6791L124.072 33.0723L124.185 33.3533L124.166 33.5031L124.43 33.3907L124.674 33.1098L125.106 33.2596L125.313 33.4282L125.069 33.7278L124.618 34.0836L123.809 34.3458L123.546 34.4956L123.621 34.7391L123.208 34.9825L122.963 35.0762L122.832 35.2634L122.061 35.0762L121.704 35.5256L121.685 35.7503L121.478 36.0687L121.102 36.1811H120.914L120.726 36.3122L120.406 36.4807L120.369 36.6493L120.406 36.7429L120.275 36.8927L120.294 37.1736L120.463 37.286L120.218 37.5294L119.654 37.3047L119.485 37.5294L119.26 37.6043L119.184 38.3534L117.962 38.2411L117.474 38.3534L117.267 38.4845L117.248 38.2036L117.398 37.9976L117.474 37.6605L117.549 37.1736L117.417 37.08L117.643 36.668L117.135 36.1811H116.928L116.797 35.9938L116.552 36.0313L116.421 35.8814L116.252 35.8627L116.195 36.0313L115.688 36.2747L115.255 37.0425L114.992 37.1549L114.804 37.3234L114.296 37.4358L114.165 37.5669L114.202 37.7916L114.014 37.9602L113.544 38.2223L113.281 38.2598L113.093 38.3722L112.905 39.0838L112.83 39.7767L112.68 39.6082L112.454 39.4022L111.834 39.6456L111.552 40.8067L110.066 41.4247L109.878 40.8629L110.236 40.2636L109.972 40.0202L109.86 39.7393L109.559 39.7205L108.412 40.0389L107.961 40.0951L107.585 39.9827L107.641 39.5894L107.472 39.5145L107.152 39.0651L106.852 39.14L106.776 38.8965L106.438 38.9714L106.212 39.4396L105.949 39.8703H105.705L105.573 39.758L105.648 40.17L105.385 40.3573L104.859 40.5071L103.317 40.0014L103.58 39.3273L103.806 38.4845L103.881 37.8665L103.994 37.5482L104.088 37.0987L104.126 36.3122L103.129 35.9189L102.622 36.0874L102.152 36.3496L101.306 36.9114L99.6888 36.9302L99.8768 37.2111L99.9896 37.7167L99.6512 37.9789L98.8992 38.2036L97.696 38.3722L97.0756 38.6156L96.4928 38.9527L96.0228 38.5782L95.816 38.2411L96.0228 37.8665V37.3047L95.534 36.8927L94.1992 37.1174L92.5448 36.5743L92.1124 36.2373L91.7928 35.7691L91.3416 35.7878L91.1724 35.638L91.0784 35.1885L90.6272 34.8702L90.082 34.9638L89.6684 35.5818L89.0856 35.6193L89.0104 34.3271L88.2208 32.9225L88.2584 32.4731L88.0704 32.2109L88.296 31.8925L88.5028 31.7053L88.6156 31.5554L88.484 31.4056L88.5404 31.1247L88.6344 30.8438L88.7284 30.0573L88.484 29.5516L87.732 29.046L87.8072 28.5965L88.1268 28.634L89.0104 28.3343L89.7248 27.5665L89.9128 26.574L90.1572 25.8811L90.5332 25.4503L90.6084 23.7649L91.4356 24.0271L91.7928 24.5702L92.244 24.4203L93.2968 24.3829L93.5412 24.9073L94.0864 24.926L95.628 25.2256L96.098 25.1133L97.038 25.0196L97.0944 23.9147L97.5832 23.8211L98.166 23.9896L99.2376 24.6638L99.67 24.8136L99.764 24.5889V24.3829L100.102 24.2893L100.572 23.7462L100.234 23.2967L100.215 22.9409L100.516 22.9222L101.437 22.4353L101.663 22.454L101.794 22.1918L101.964 22.0607L102.001 21.8547L102.189 21.5551L102.584 21.3491L102.904 21.0494L103.468 20.7873L103.43 20.7123L103.298 19.5513L103.637 19.2329L103.787 18.4089L103.524 17.9594L103.317 17.3976L102.847 17.1916L102.528 16.8171L102.227 16.1991L102.546 15.9931L102.659 15.8433L102.81 15.656L103.11 15.5436L102.998 15.45L102.922 15.1691L103.411 15.0754L103.674 15.0005L103.599 14.8694L103.505 14.4762H103.712L103.844 14.3825L104.144 14.3076L104.295 14.3638L104.332 14.4949L104.708 14.5323L104.972 14.3451L105.197 14.1391L105.648 14.5136L105.818 14.7571L105.987 14.8507L106.137 15.4313L106.419 15.4125L106.457 15.1503L106.231 14.9256L106.288 14.7196L106.438 14.4762L107.19 14.008L107.98 13.9893L108.262 14.1765L108.412 14.4013L108.581 15.0193L108.6 15.5436L108.75 15.4125L108.995 15.4687H109.465L109.653 15.5998L109.596 15.8807L109.408 16.1616L109.258 16.48L109.54 16.4987L110.142 16.4613L110.593 16.7796L110.875 17.2665L111.194 17.4351L111.288 16.9107L111.646 16.7796L111.815 16.2365L112.435 16.1242L113.601 16.1054L113.732 16.2365L113.77 16.3302V16.7609L114.353 16.892L114.503 17.0043L114.766 17.0418L115.011 16.9669L116.12 16.3489L116.44 16.9107L116.91 17.4163L117.116 17.7534L116.966 18.0156L116.928 18.7834L116.684 19.1767L116.947 19.7011L117.568 19.9258L119.015 19.9633L119.955 19.3078L120.331 19.2142L120.82 19.3078L121.384 19.1393L121.628 19.1205L121.779 18.9333L122.042 19.2891V19.6823L122.249 20.1505L122.343 21.0682L122.794 21.1056L124.712 21.7798L125.539 22.4165L126.968 22.5289ZM115.744 34.1773L115.97 33.8589L116.082 33.4282L116.12 32.96L115.988 32.6229L115.838 32.548L115.631 32.2296L115.274 31.9487L115.067 31.8925L114.766 32.0236L114.616 32.1734L114.484 32.4169L114.447 32.6978L114.484 32.9974L114.654 33.2783L114.879 33.5593L115.086 33.8402L115.274 34.1773L115.481 34.3083L115.744 34.1773Z" fill="#94a3b8"/>
<path id="KAZ3203" d="M125.802 32.2671L127.268 32.8289L127.4 33.1473L127.494 33.5218L127.55 33.8589L127.419 34.2522L127.268 35.5818L127.043 35.6942L127.099 36.2185L126.986 36.7054L127.494 37.1923L128.584 37.0425L128.942 36.9302L129.167 36.7429L129.318 36.9114L129.618 36.9863L130.145 37.2111L130.088 37.7916L130.389 38.1474L130.822 37.7542L131.292 38.2224L131.461 38.2411L131.705 38.5407L131.856 38.8591L131.743 38.9714L132.062 39.4022L132.438 39.7018L131.95 40.0763L131.48 40.3011L131.386 40.4883L131.198 40.6943L131.48 41.1625L131.874 41.3124L132.965 40.6382L133.435 40.2636H134.713L134.976 39.9265L135.352 40.0389L137.101 39.7205L137.665 39.964L137.984 39.4209L138.191 39.4022L138.473 39.2523L138.981 39.2149L139.526 39.4209L139.639 38.5782L139.808 37.8291L140.804 36.7803L141.444 36.8178L141.838 37.2298L142.741 37.5294L143.756 38.0351L143.963 38.5594L143.906 39.2523L143.982 39.6831L144.264 39.8891L143.963 40.4322L142.948 41.4247L142.402 41.6869L142.008 41.7993L141.782 42.0427L141.744 42.2113L141.782 42.4547L141.801 42.7543L141.782 43.1102L141.669 43.8405L140.767 44.5522L139.827 44.9267L139.188 45.9193L139.47 46.3874L139.996 46.6871L140.447 47.174L140.466 47.4549L141.105 48.0167L140.786 48.3163L140.353 48.5036L140.372 49.3276L140.767 49.7396L141.782 49.6085L142.553 49.6647L142.609 50.3763L142.515 50.7322L142.478 51.0693L142.064 51.5374L141.462 51.912L140.992 51.9494L140.842 52.1929L140.767 52.4925L140.56 52.6611L140.673 52.8858L141.03 53.0918L141.143 53.354L141.613 53.3914L142.026 53.5787L141.575 53.766L141.669 54.2716L142.214 54.59L142.76 54.796L142.139 55.1518L141.951 55.7511L141.65 56.238L141.218 57.8485L141.331 57.9984L141.444 58.3354L141.632 59.1782L140.804 59.4029L140.823 59.6651L140.729 60.0396L140.541 60.3018L140.316 60.4142L140.579 60.564L141.162 61.2007L142.102 61.4629L142.346 60.9573L143.549 60.8824L143.7 63.2982L143.643 64.2345L143.248 64.4218L143.154 64.478L143.023 64.4593L142.684 64.5903L142.29 64.6278L142.196 64.6653L142.102 64.7402L142.045 64.8338L141.989 64.9274L141.932 65.0211L141.613 65.096H141.575L141.5 65.0398V65.0023L141.519 64.9649L141.5 64.9087L141.35 64.6653L141.18 64.4967L140.974 64.4218L140.748 64.4593L140.635 64.4967H140.579H140.522L140.485 64.478L140.259 64.1971L140.146 64.1409L140.09 64.1784L140.128 64.3843L140.278 64.6278L140.466 64.8338L140.598 65.0023L140.466 64.9462L140.203 64.7963L139.77 64.6278L139.658 64.5342L139.582 64.4031L139.639 64.3656L139.658 64.3094L139.639 64.2345L139.62 64.1784L139.526 64.272L139.432 64.3094L139.338 64.2907L139.094 64.2345H139.037L138.812 64.3282L138.774 64.3656L138.718 64.4405L138.699 64.5716L138.68 64.6465H138.642L138.548 64.5529L138.172 64.3282L138.135 64.4405H138.078L138.041 64.3656L137.796 64.4031L137.026 64.1971L135.822 64.1409L134.619 64.272L133.548 64.2158L130.615 66.0698L127.945 69.01L104.915 69.1411L96.2108 68.9913L96.098 68.3358L95.628 68.2984L94.8572 68.3545L88.3148 66.8002L87.3372 66.332L86.228 65.3394L85.8332 65.2833L80.3436 63.0734L80.1932 62.9424L79.9488 63.0173L79.3284 62.9611L78.1816 62.418L77.5424 62.3243L76.358 61.5191L74.9856 61.7438L75.0608 61.4442L75.8504 60.8262L81.6596 56.6125L82.1108 56.1256L81.9228 55.7136L81.0392 54.2529L82.1296 53.2416L82.1672 52.53L83.1448 52.0056L83.69 51.8371L83.4832 51.3502L83.5208 50.9756L83.502 50.7884L84.0472 50.7696L84.5736 49.4962L86.0964 49.234L88.1644 49.5523L89.142 49.3463L89.5744 48.822L90.176 48.4849L91.0972 48.3538L92.6764 46.9118L93.2028 46.7433L93.4284 46.0503L93.9548 45.8443L94.3684 45.2825L97.3576 42.5109L98.448 41.1251L98.4856 40.7505L98.3916 40.5445L98.4292 40.4696L98.4856 40.376L98.4292 40.2262V39.9827L98.6924 39.8516L100.046 39.4396L100.516 38.9527L100.798 38.3909L100.328 38.0538L100.14 37.8103L99.9896 37.7167L99.8768 37.2111L99.6888 36.9302L101.306 36.9114L102.152 36.3496L102.622 36.0874L103.129 35.9189L104.126 36.3122L104.088 37.0987L103.994 37.5482L103.881 37.8665L103.806 38.4845L103.58 39.3273L103.317 40.0014L104.859 40.5071L105.385 40.3573L105.648 40.17L105.573 39.758L105.705 39.8703H105.949L106.212 39.4396L106.438 38.9714L106.776 38.8965L106.852 39.14L107.152 39.0651L107.472 39.5145L107.641 39.5894L107.585 39.9827L107.961 40.0951L108.412 40.0389L109.559 39.7205L109.86 39.7393L109.972 40.0202L110.236 40.2636L109.878 40.8629L110.066 41.4247L111.552 40.8067L111.834 39.6456L112.454 39.4022L112.68 39.6082L112.83 39.7767L112.905 39.0838L113.093 38.3722L113.281 38.2598L113.544 38.2224L114.014 37.9602L114.202 37.7916L114.165 37.5669L114.296 37.4358L114.804 37.3234L114.992 37.1549L115.255 37.0425L115.688 36.2747L116.195 36.0313L116.252 35.8627L116.421 35.8814L116.552 36.0313L116.797 35.9938L116.928 36.1811H117.135L117.643 36.668L117.417 37.08L117.549 37.1736L117.474 37.6605L117.398 37.9976L117.248 38.2036L117.267 38.4845L117.474 38.3534L117.962 38.2411L119.184 38.3534L119.26 37.6043L119.485 37.5294L119.654 37.3047L120.218 37.5294L120.463 37.286L120.294 37.1736L120.275 36.8927L120.406 36.7429L120.369 36.6493L120.406 36.4807L120.726 36.3122L120.914 36.1811H121.102L121.478 36.0687L121.685 35.7503L121.704 35.5256L122.061 35.0762L122.832 35.2634L122.963 35.0762L123.208 34.9825L123.621 34.7391L123.546 34.4956L123.809 34.3458L124.618 34.0836L125.069 33.7278L125.313 33.4282L125.106 33.2596L124.674 33.1098L124.43 33.3907L124.166 33.5031L124.185 33.3533L124.072 33.0723L123.828 32.6791L123.753 32.4918L123.847 32.2483L124.091 32.2858L124.937 32.136L125.802 32.2671Z" fill="#94a3b8"/>
<path id="KAZ3204" d="M124.58 15.8245V15.8433L125.163 17.0231L124.862 17.0793L124.599 17.2853L124.561 17.8658L124.749 18.2778L125.05 18.0156L125.313 17.6973L125.52 17.5662L125.633 17.6785L125.783 17.6411L126.046 17.7909L125.746 18.2591L125.539 18.7647L125.144 19.4763L124.994 19.7011L125.426 19.4951L125.652 19.6074L125.558 19.9071L125.482 20.5625L126.046 20.6936L126.385 20.0569L126.892 19.9258L127.25 20.3565L127.118 20.9371L126.968 21.1618L126.874 21.5176L126.686 21.9858L126.535 21.7049L126.046 21.4053L125.896 21.3865L126.009 22.0045L126.629 22.2105L126.968 22.5289L125.539 22.4165L124.712 21.7798L122.794 21.1056L122.343 21.0682L122.249 20.1505L122.042 19.6823V19.2891L121.779 18.9333L121.628 19.1205L121.384 19.1393L120.82 19.3078L120.331 19.2142L119.955 19.3078L119.015 19.9633L117.568 19.9258L116.947 19.7011L116.684 19.1767L116.928 18.7834L116.966 18.0156L117.116 17.7534L116.91 17.4163L116.44 16.9107L116.12 16.3489L115.011 16.9669L114.766 17.0418L114.503 17.0043L114.353 16.892L113.77 16.7609V16.3302L113.732 16.2365L113.601 16.1054L112.435 16.1242L111.815 16.2365L111.646 16.7796L111.288 16.9107L111.194 17.4351L110.875 17.2665L110.593 16.7796L110.142 16.4613L109.54 16.4987L109.258 16.48L109.408 16.1616L109.596 15.8807L109.653 15.5998L109.465 15.4687H108.995L108.75 15.4125L108.6 15.5436L108.581 15.0193L108.412 14.4013L108.262 14.1765L107.98 13.9893L107.19 14.008L106.438 14.4762L106.288 14.7196L106.231 14.9256L106.457 15.1503L106.419 15.4125L106.137 15.4313L105.987 14.8507L105.818 14.7571L105.648 14.5136L105.197 14.1391L104.972 14.3451L104.708 14.5323L104.332 14.4949L104.295 14.3638L104.144 14.3076L103.844 14.3825L103.712 14.4762H103.505L103.599 14.8694L103.674 15.0005L103.411 15.0754L102.922 15.1691L102.998 15.45L103.11 15.5436L102.81 15.656L102.659 15.8433L102.546 15.9931L102.227 16.1991L102.528 16.8171L102.847 17.1916L103.317 17.3976L103.524 17.9594L103.787 18.4089L103.637 19.2329L103.298 19.5513L103.43 20.7123L103.468 20.7873L102.904 21.0494L102.584 21.3491L102.189 21.5551L102.001 21.8547L101.964 22.0607L101.794 22.1918L101.663 22.454L101.437 22.4353L100.516 22.9222L100.215 22.9409L100.234 23.2967L100.572 23.7462L100.102 24.2893L99.764 24.3829V24.5889L99.67 24.8136L99.2376 24.6638L98.166 23.9896L97.5832 23.8211L97.0944 23.9147L97.038 25.0196L96.098 25.1133L95.628 25.2256L94.0864 24.926L93.5412 24.9073L93.2968 24.3829L92.244 24.4203L91.7928 24.5702L91.4356 24.0271L90.6084 23.7649L90.6272 22.5102L90.7776 21.3303L91.1348 20.9371L91.1912 20.3565V20.0007L91.0596 19.6449L90.9092 19.4576L90.8528 19.1767L91.116 18.6523L92.1124 18.5025L92.5448 18.2029L92.1124 17.7909L91.8492 17.304L91.8304 16.48L91.68 15.5811L91.0972 15.4687L90.9092 14.8133L91.3228 14.3451L91.4168 13.5398L91.0972 13.0903L90.7964 13.0342L90.552 12.2851L90.458 11.6109L90.9468 11.2738L92.0748 10.7682L91.6988 10.1127L91.1536 9.86926L90.8716 9.47598L91.4168 9.23253L90.8152 6.57326V6.55453L92.4132 5.97398L92.6952 5.93653L93.2968 5.95526L93.5788 5.89907L93.6728 5.84289L93.8608 5.65562L93.9548 5.59944L94.8572 5.56198L94.9888 5.52453L95.252 5.37471L95.4024 5.33726H95.7596L95.9288 5.28107L96.0604 5.16871L96.1544 4.98144L96.2484 4.85035L96.38 4.79417L96.6808 4.86907L96.9816 4.81289L97.8088 4.83162L98.166 4.71926L98.4292 4.49453L98.6172 4.17616L98.7112 4.0638L98.8428 3.97017L99.012 3.91398H99.1436L99.5948 4.13871L100.309 4.02635L100.384 3.93271L100.422 3.72671L100.516 3.68926L100.572 3.61435L100.591 3.50198L100.629 3.37089L100.704 3.31471L100.836 3.29598L100.948 3.25853L100.967 3.08998L100.591 2.86526L100.422 2.67798L100.497 2.43453L100.403 2.34089L100.366 2.30344L100.648 2.15362L100.76 2.11617L100.817 2.15362L100.873 2.19107L100.948 2.22853L101.042 2.2098L101.268 2.11617H101.381L101.738 2.2098L102.039 2.09744H102.152L102.264 2.13489L102.321 2.11617L102.377 2.02253V1.94762L102.358 1.7978V1.72289L102.434 1.62926L102.659 1.47944L102.678 1.36707V1.19853V1.04871L102.716 0.91762L102.772 0.786529L102.866 0.84271L103.317 0.91762L103.43 0.973801L103.524 1.06744L103.693 1.34835L103.787 1.46071L103.881 1.51689L104.013 1.44198L104.05 1.34835L104.069 1.19853L104.032 0.898892L103.919 0.823983L103.825 0.786529L103.768 0.692892L103.712 0.43071L103.693 0.374529V0.29962L103.731 0.243438L103.806 0.187256H103.881L104.708 0.486892L104.821 0.63671L104.896 0.898892L104.99 1.06744L105.178 0.992529L105.573 0.617983L105.667 0.580529L106.325 0.880165L107.228 0.992529L107.829 1.32962L107.961 1.46071L108.318 1.98507L108.45 2.07871L108.826 2.11617L108.995 2.17235L109.634 2.60307L109.709 2.6218L109.803 2.54689L109.954 2.28471L110.048 2.2098L110.442 2.07871L110.499 2.02253V1.96635L110.518 1.83526L110.574 1.70416L110.762 1.40453L110.837 1.36707L111.213 1.51689H111.307L111.42 1.47944L111.514 1.42326L111.608 1.32962L111.796 1.19853L112.04 1.16107L112.304 1.21726L112.51 1.31089L112.435 1.42326L112.36 1.55435L112.322 1.68544L112.379 1.81653L112.698 2.22853L113.15 2.8278L113.225 3.05253V3.14616V3.31471L113.206 3.52071L113.187 3.63307L113.15 3.74544L113.131 3.89526L113.206 4.10126L113.168 4.19489L113.112 4.28853L113.093 4.41962L113.074 4.56944L113.112 4.6818L113.281 4.8878L113.319 4.98144L113.3 5.20616L113.356 5.46835L113.544 5.67435L113.77 5.80544L113.958 5.84289H114.146L114.24 5.86162L114.334 5.95526L114.484 6.19871L114.541 6.36726V6.5358L114.484 6.64816L114.39 6.70435L114.146 6.77926L113.996 6.91035L113.977 7.13507L114.014 7.69689L113.996 7.79053V7.82798L114.09 7.94035L114.108 8.03398L114.09 8.29616L114.108 8.33362L114.127 8.37107L114.221 8.3898L114.24 8.42726V8.50216L114.221 8.63326V8.74562L114.202 9.06398L113.939 9.12016H113.864L113.77 9.08271L113.601 8.98907L113.507 8.97035L113.338 8.95162L113.244 9.02653L113.187 9.17635L113.225 9.45726L113.507 9.47598L113.563 9.49471L113.582 9.6258V9.81307L113.563 10.0003L113.526 10.1127L113.714 10.2063L113.77 10.2625L113.845 10.3936L113.996 10.6745L114.071 10.7682H114.165L114.334 10.6558L114.447 10.506L114.691 10.0753L114.804 9.98162L114.936 10.0191L115.086 10.094L115.218 10.1127H115.368L115.406 10.1502L115.443 10.2251L115.481 10.3187L115.518 10.712L115.612 10.6933L115.857 10.5622L115.97 10.5434L116.007 10.5809L116.101 10.6745L116.158 10.712L116.233 10.7307L116.308 10.712L116.458 10.6371L116.59 10.5247L116.628 10.4123L116.59 10.0753L116.609 9.90671L116.665 9.77562L116.74 9.66326L116.834 9.6258L117.737 9.71944L117.85 9.75689L117.925 9.79435L118 9.88798L118.282 10.3936L118.376 10.5247L118.508 10.5809L118.639 10.5622L118.733 10.506L118.79 10.3749V10.1502L118.696 10.0191L118.583 9.96289L118.432 9.94416L118.32 9.88798L118.226 9.81307V9.77562V9.68198V9.58835L118.282 9.4198L118.376 9.2138L118.395 9.12016L118.357 9.04526L118.244 8.95162L118.094 8.85798L118.038 8.78307V8.65198L118.113 8.5958L118.62 8.67071L118.771 8.76435L118.94 8.95162L119.09 9.19507L119.147 9.4198L119.203 9.51344L119.41 9.56962L119.466 9.71944L119.448 9.81307L119.297 10.1689L120.143 10.506V10.5247L120.068 10.6933L120.012 10.7307L119.936 10.712H119.861L119.842 10.7307L119.805 10.8431L119.786 10.8618H119.748L119.617 10.8056L119.56 10.8431V10.918L119.579 11.0303L119.598 11.0865L119.673 11.2176L119.786 11.3113L119.842 11.4423L119.786 11.6109L119.673 11.8918L119.636 12.0603V12.1727L119.73 12.2663L119.861 12.3038H120.012L120.106 12.2289L120.294 12.0042L120.425 11.7794L120.482 11.742H120.557L121.008 11.948L121.14 11.8918L121.121 11.6109L121.027 11.3862L120.933 11.2363L120.82 11.1427H120.67L120.256 11.2176L120.237 11.1614L120.256 11.0303L120.312 10.8618L120.35 10.7869L120.557 10.5622L120.782 10.506L121.986 10.6371L122.249 10.6183L122.324 10.6371L122.362 10.7494L122.399 10.8805V11.1802L122.625 11.2925L122.681 11.4049L122.719 11.6109L122.794 11.7233L124.166 12.0416L124.223 12.0229L124.26 11.9667L124.279 11.7982L124.317 11.7607L124.467 11.7794H124.505L124.561 11.8356L124.674 11.9667L124.73 11.9854L124.843 11.948L124.9 11.9105L124.918 11.7982L124.9 11.6109L124.937 11.4798L125.2 11.4049L125.294 11.2925L125.276 11.1989L125.238 11.1053L125.219 11.0491L125.276 11.0116L125.52 10.9554L125.595 10.9742L125.614 11.1614L125.652 11.1802L125.915 11.1053L125.708 12.3225L125.652 12.5285L125.558 12.6409L125.426 12.6596L124.749 12.5285L124.618 12.5473L124.505 12.6034L124.411 12.7158L124.317 12.9031L124.524 13.0529L124.11 13.2027L124.035 13.2963L123.922 13.9893L123.734 14.0267L123.64 14.0829L123.565 14.1765L123.527 14.3263L123.546 14.42L123.696 14.6073L123.565 14.8694L124.317 15.2814L124.11 15.7496L124.411 15.9743L124.467 15.9556L124.58 15.8245Z" fill="#94a3b8"/>
<path id="KAZ3205" d="M151.483 29.1022L151.389 29.1209L151.22 29.7202L150.58 30.0198V30.2071L150.486 30.5442L150.261 30.7689L150.016 30.9374L149.866 30.8438L149.227 30.9374L149.039 31.3682L149.227 31.4431L149.189 31.7427L148.964 31.9674L147.76 32.6229L147.46 32.6791L147.347 32.4918L147.14 32.5667L147.027 32.7915L146.52 33.1098L146.35 33.0911L146.106 33.3158L146.068 33.3907L146.012 33.4656L145.974 33.4844L145.993 33.5967L146.068 33.6904L146.144 33.784L146.106 33.9338L146.219 34.0087L146.332 34.0274L146.407 34.1211L146.444 34.3458L146.463 34.3833L146.52 34.4582L146.595 34.4769L146.614 34.5705L146.726 34.8514L146.783 34.9451L146.839 35.0013H147.008L147.065 35.0574L147.102 35.1136L147.14 35.1511L147.441 35.5256L148.644 36.2934L148.813 37.2673L148.776 38.0164L149.001 38.1474L149.246 38.8216L148.982 39.4771L148.569 40.2262L147.648 41.1438L146.219 40.7693L145.241 40.3385L144.64 39.8329L144.264 39.8891L143.982 39.6831L143.906 39.2524L143.963 38.5594L143.756 38.0351L142.741 37.5294L141.838 37.2298L141.444 36.8178L140.804 36.7804L139.808 37.8291L139.639 38.5782L139.526 39.4209L138.981 39.2149L138.473 39.2524L138.191 39.4022L137.984 39.4209L137.665 39.964L137.101 39.7205L135.352 40.0389L134.976 39.9265L134.713 40.2636H133.435L132.965 40.6382L131.874 41.3124L131.48 41.1625L131.198 40.6944L131.386 40.4884L131.48 40.3011L131.95 40.0764L132.438 39.7018L132.062 39.4022L131.743 38.9714L131.856 38.8591L131.705 38.5407L131.461 38.2411L131.292 38.2224L130.822 37.7542L130.389 38.1474L130.088 37.7916L130.145 37.2111L129.618 36.9864L129.318 36.9114L129.167 36.7429L128.942 36.9302L128.584 37.0425L127.494 37.1924L126.986 36.7054L127.099 36.2185L127.043 35.6942L127.268 35.5818L127.419 34.2522L127.55 33.8589L127.494 33.5218L127.4 33.1473L127.268 32.8289L125.802 32.2671L126.103 31.8925L126.31 31.4993L126.422 31.1434L126.874 30.8064L127.569 30.5254L127.983 30.4505L128.359 30.2071L127.87 29.9262L127.344 29.7389L127.231 29.4767L126.911 29.458L126.347 29.5704V28.84L126.648 28.0534L127.118 27.7164L127.344 27.4729L127.231 23.278L127.099 22.6787L126.968 22.5289L126.629 22.2105L126.009 22.0045L125.896 21.3865L126.046 21.4053L126.535 21.7049L126.686 21.9858L126.874 21.5176L126.968 21.1618L127.118 20.9371L127.25 20.3565L126.892 19.9258L126.385 20.0569L126.046 20.6936L125.482 20.5625L125.558 19.9071L125.652 19.6074L125.426 19.4951L124.994 19.7011L125.144 19.4764L125.539 18.7647L125.746 18.2591L126.046 17.7909L125.783 17.6411L125.633 17.6785L125.52 17.5662L125.313 17.6973L125.05 18.0156L124.749 18.2778L124.561 17.8658L124.599 17.2853L124.862 17.0793L125.163 17.0231L124.58 15.8433V15.8245L124.918 15.4874L125.031 15.3751L125.069 15.3189L125.106 15.2253L125.144 15.0942L125.163 15.0193L125.182 14.9818L125.276 14.9444H125.313L125.426 14.9631L125.464 14.9444V14.8133L125.501 14.7009L125.52 14.5885L125.539 14.5698L125.896 14.5885L125.971 14.6073L126.14 14.7009L126.197 14.6634L126.516 14.42L126.667 14.3638H126.817L127.005 14.3825L127.306 14.42L127.381 14.4762L127.4 14.5885L127.381 14.7384L127.4 14.8694L127.456 14.9256H127.607L127.644 14.8882L127.738 14.7009L127.795 14.6822H128.096L128.133 14.7009L128.19 14.7945L128.208 14.9069L128.265 15.0005L128.34 15.0193L128.321 15.2065L128.34 15.3189L128.509 15.4874L128.754 15.6934L128.885 15.7122L128.979 15.5998L129.205 14.8882V14.832L129.148 14.7758L129.073 14.6822L129.036 14.6447L129.073 14.2514L129.13 14.1016L129.186 14.008L129.938 14.0454L129.994 13.9893L130.07 13.6147L130.107 13.5211L130.145 13.4649L130.201 13.4462L130.446 13.4274L130.483 13.39L130.521 13.2776L130.577 13.0529L130.615 12.9405L130.652 12.8656L130.803 12.8282H131.198L131.348 12.8656L131.705 13.0716L131.837 13.0529L132.984 12.1914L133.698 11.6671L133.36 11.0865L133.679 10.8618L133.83 10.7682H133.999L134.469 10.8244L134.638 10.7869L135.164 10.5434L137.138 9.58836L137.082 9.41981V9.28872L137.101 9.15763L137.195 9.00781L137.289 8.87672L137.364 8.83927L138.285 9.08272L138.492 9.02654L138.774 8.82054L138.868 8.76436H138.943L139.094 8.78309H139.15L139.244 8.68945L139.263 8.55836V8.40854L139.282 8.25872L139.394 8.14636L139.507 8.1089L139.77 8.12763L139.883 8.1089L140.203 7.94036L140.297 7.92163H140.41L140.485 7.99654L140.447 8.16509L140.372 8.23999L139.996 8.35236L139.902 8.40854L139.808 8.50218L139.752 8.61454L139.808 8.70818L140.034 8.78309L140.128 8.85799L140.165 9.04527L140.146 9.23254L140.071 9.38236L139.977 9.51345L139.883 9.66327L139.827 9.88799L139.789 9.98163L139.752 10.0378L139.639 10.1502L139.582 10.2251L139.357 10.506H139.075L138.492 10.2813L138.191 10.2625L138.097 10.3L138.022 10.3562V10.4124L138.492 11.2364L138.511 11.33L138.567 11.6109L138.718 11.8544L139.658 12.6409L140.522 13.3151L141.368 14.008L142.214 14.6822L143.079 15.3751L143.7 15.862L144.264 16.4987L144.865 17.1729L145.373 17.9782L146.181 19.3827L146.67 20.2629L147.178 21.1244L147.666 22.0045L148.324 23.2218L148.964 24.4204L149.622 25.6376L150.28 26.8362L151.257 28.6902L151.483 29.1022Z" fill="#94a3b8"/>
<path id="KAZ3206" d="M165.226 71.6318L165.113 71.688L164.436 71.4258L164.492 70.7516L164.248 70.0025L163.778 69.3471L163.458 68.2984L162.236 66.6691L162.048 66.126L161.165 65.7514L161.146 65.5642L160.977 65.4518L160.469 65.4705L160.338 65.302L160.037 65.1334L159.51 65.1147L158.251 64.7964L156.277 63.8225L155.92 63.5978L155.901 63.2982L154.754 62.8675L152.329 62.9985L151.502 61.8562L150.28 61.6315L149.847 61.6876L149.17 61.594L148.87 61.1633L148.418 61.0884L148.061 60.7513L146.745 60.0209L145.993 60.6202L145.692 60.3205L145.241 60.5078L144.79 60.8636L143.906 60.7138L143.549 60.8824L142.346 60.9573L142.102 61.4629L141.162 61.2007L140.579 60.564L140.316 60.4142L140.541 60.3018L140.729 60.0396L140.823 59.6651L140.804 59.4029L141.632 59.1782L141.444 58.3354L141.331 57.9984L141.218 57.8485L141.65 56.238L141.951 55.7511L142.139 55.1518L142.76 54.796L142.214 54.59L141.669 54.2716L141.575 53.766L142.026 53.5787L141.613 53.3914L141.143 53.354L141.03 53.0918L140.673 52.8858L140.56 52.6611L140.767 52.4925L140.842 52.1929L140.992 51.9494L141.462 51.912L142.064 51.5375L142.478 51.0693L142.515 50.7322L142.609 50.3764L142.553 49.6647L141.782 49.6085L140.767 49.7396L140.372 49.3276L140.353 48.5036L140.786 48.3164L141.105 48.0167L140.466 47.4549L140.447 47.174L139.996 46.6871L139.47 46.3874L139.188 45.9193L139.827 44.9267L140.767 44.5522L141.669 43.8405L141.782 43.1102L141.801 42.7544L141.782 42.4547L141.744 42.2113L141.782 42.0427L142.008 41.7993L142.402 41.6869L142.948 41.4247L143.963 40.4322L144.264 39.8891L144.64 39.8329L145.241 40.3385L146.219 40.7693L147.648 41.1438L148.569 40.2262L148.982 39.4771L149.246 38.8216L149.001 38.1474L148.776 38.0164L148.813 37.2673L148.644 36.2934L147.441 35.5256L147.14 35.1511L147.102 35.1136L147.065 35.0574L147.008 35.0013H146.839L146.783 34.9451L146.726 34.8514L146.614 34.5705L146.595 34.4769L146.52 34.4582L146.463 34.3833L146.444 34.3458L146.407 34.1211L146.332 34.0274L146.219 34.0087L146.106 33.9338L146.144 33.784L146.068 33.6904L145.993 33.5967L145.974 33.4844L146.012 33.4656L146.068 33.3907L146.106 33.3158L146.35 33.0911L146.52 33.1098L147.027 32.7914L147.14 32.5667L147.347 32.4918L147.46 32.6791L147.76 32.6229L148.964 31.9674L149.189 31.7427L149.227 31.4431L149.039 31.3682L149.227 30.9374L149.866 30.8438L150.016 30.9374L150.261 30.7689L150.486 30.5442L150.58 30.2071V30.0198L151.22 29.7202L151.389 29.1209L151.483 29.1022L151.746 29.6078L152.235 30.5254L153.062 32.2858L153.87 34.0462L154.34 35.02L154.472 35.3945L154.51 35.5069L154.622 35.6754L154.773 35.8253L154.923 35.9189L155.074 35.9376L154.81 35.5256L154.735 35.3009L154.904 35.2073L154.98 35.2447L155.13 35.432L155.224 35.4694L155.318 35.4507L155.374 35.3945L155.45 35.1511L155.506 35.0387L155.562 34.9825L155.75 34.9076L155.788 34.8702L155.863 34.7765L155.901 34.7391H155.957L156.145 34.7578L156.333 34.7204L156.521 34.608L156.69 34.4394L156.784 34.1773L156.803 34.0836V33.9525V33.8214L156.784 33.7091L156.747 33.5967L156.615 33.4656L156.559 33.372L156.54 33.2784V33.1473L156.578 32.9038L156.615 32.7727L156.672 32.6604L156.747 32.6229L156.86 32.6042L157.254 32.6604L157.424 32.6042L157.48 32.4169L157.499 32.3045L157.518 32.1922L157.574 32.0985L157.63 32.0236L157.724 31.9487L157.8 31.93L158.42 32.2296L158.533 32.2484L158.589 32.1922L158.646 32.1173L158.721 32.0611H158.834L158.871 32.1547V32.4169L158.909 32.548L158.965 32.6229L159.153 32.7353L159.36 32.8476L159.473 32.8664L159.586 32.8851L159.717 32.7353L159.774 32.6978L159.868 32.7165L159.962 32.7727L159.999 32.8664L159.98 32.9787L159.943 33.1473L159.642 33.9151L159.51 34.3458L159.492 34.4582L159.529 34.5144L159.623 34.5705L159.736 34.5893H159.999L160.544 34.402L161.108 34.4207V34.6829L161.184 34.9264L161.278 35.1511L161.409 35.3384L161.296 35.4882L161.221 35.6754L161.184 35.8627L161.24 36.0125L161.372 36.0874L162.368 36.05L162.462 35.9751L162.594 35.7691L162.688 35.6942H162.763L162.951 35.8253H163.045L163.383 35.7691L163.609 35.8065L163.816 35.8814L163.91 35.9376L164.192 36.1998L164.304 36.256L164.53 36.2934H164.662L164.774 36.2373L164.85 36.1624L164.944 36.05L165.038 35.9751L165.113 35.9938L165.188 36.0313L165.244 36.0125L165.301 35.9564L165.357 35.9376H165.432L165.526 35.9938L165.733 35.9564L165.827 36.0125L166.034 36.1998L166.636 35.8065L166.955 35.6567L167.068 35.5069V35.0013L167.2 34.8514L167.369 34.814L167.726 34.9264L168.346 34.9825L168.553 34.9264L168.722 34.7391L168.854 34.4769L168.948 34.1773H168.986H169.08L169.192 34.2147H169.268H169.343L169.418 34.1773L169.944 34.1211L170.452 34.1773L170.565 34.3833L170.64 34.4769L170.734 34.5331L171.26 34.6267L171.354 34.6829L171.618 34.9264L171.73 34.9825L171.824 35.0013H172.031L172.125 35.0387L172.219 35.0949L172.294 35.1698L172.445 35.432L172.501 35.4882L172.689 35.5818L172.821 35.7316V36.1811L172.934 36.4058L173.516 36.8178L173.648 37.0238L173.704 37.1549V37.2673L173.742 37.3796L173.892 37.5482L173.949 37.6605V37.7916L173.855 38.1849L173.93 38.4096L174.043 38.6344L174.137 38.8591L174.156 39.0276L174.137 39.1962V39.346L174.193 39.4771L174.25 39.5145L174.381 39.552L174.438 39.5894L174.475 39.6456L174.532 39.758L174.569 39.8142H174.738L174.908 39.6831L175.077 39.5894L175.227 39.7018L175.359 39.8704L175.509 39.964L175.66 40.0014L175.829 39.9827L175.998 40.0014L176.111 40.1138L176.205 40.2449L176.355 40.3573H176.43L176.6 40.3385L176.675 40.376L176.731 40.4509L176.844 40.7131L176.9 40.7505L176.976 40.7318L177.051 40.6756L177.126 40.6382L177.22 40.6569L177.521 40.788L177.577 40.8442L177.728 41.0876L177.765 41.1813L177.746 41.2936L177.671 41.3498L177.483 41.3873L177.427 41.406L177.408 41.7993L177.427 41.9865L177.521 42.0802L177.784 42.1551L177.897 42.23L177.953 42.3985L177.991 42.6607L178.01 42.7544L178.085 42.8854L178.386 43.2225L178.48 43.4285L178.536 43.9904L178.668 44.1964L178.837 44.29L179.025 44.2338L179.1 44.1776L179.213 44.1027L179.307 44.0653L179.401 44.0465L179.514 44.1027L179.702 44.2525L179.814 44.29L180.002 44.2713L180.078 44.2525L180.153 44.1964L180.303 44.0653L180.378 44.0278L180.454 44.0465L180.529 44.1214L180.585 44.3274L180.66 44.4211L180.736 44.4398L180.811 44.4211L180.98 44.3649H181.074L181.149 44.4024L181.224 44.4773L181.281 44.5709L181.356 44.6084L181.431 44.5896L181.6 44.4585L181.676 44.4211H181.77L181.958 44.4585V44.5147L181.92 44.7956V44.9267L181.976 45.0016L182.07 45.0204L182.146 45.0016L182.221 44.9267L182.352 44.7582L182.559 44.6833L182.747 44.7207L182.86 44.9267L183.048 45.1327L183.217 44.908L183.368 44.5147L183.48 44.29L183.744 44.1027L184.026 43.9904L184.345 43.7094L184.42 43.672L184.439 43.6158L184.458 43.5596L184.439 43.4847L184.402 43.3911L184.627 43.26L184.702 43.1851L184.74 43.1664H184.796L184.834 43.1476L184.909 43.0353L184.966 42.8854L185.041 42.7918H185.191L185.379 42.9042H185.454L185.586 42.8667H185.661L185.718 42.9042V42.9791L185.68 43.054L185.642 43.1476L185.624 43.2038V43.2974L185.68 43.3724L185.793 43.5034L185.699 43.5971L185.605 43.6533L185.53 43.6907L185.304 43.7094L185.21 43.7844L185.041 44.0278L184.966 44.1589L184.947 44.2525L184.984 44.3462L185.078 44.4585L185.191 44.5334H185.285L185.492 44.496L185.605 44.5147L185.924 44.7207L186.018 44.8144V44.9267L185.981 45.0578L185.962 45.2264L186.037 45.3387L186.15 45.4324L186.394 45.5447L186.526 45.6384L186.507 45.7133L186.432 45.7882L186.394 45.9193L186.432 46.0129L186.526 46.1065L186.827 46.35L186.883 46.4062L186.902 46.4624V46.5747L186.94 46.6309L186.996 46.6871L187.052 46.7058L187.165 46.7245L187.56 46.6871L187.692 46.7245L187.823 46.7807L188.068 46.9493L188.143 47.0991L188.237 47.586L188.312 47.792L187.748 47.6234L187.56 47.5298L187.353 47.4736L186.714 47.7358L186.582 47.7171L186.3 47.6234L186.188 47.6422L186.075 47.7171L185.981 47.9793L185.906 48.0916L185.718 48.2414L185.642 48.3164L185.567 48.4475L185.511 48.5973L185.492 48.6909V48.822L185.53 48.9905L185.642 49.2153L185.793 49.3651L185.849 49.4962L185.736 49.7209L185.661 49.8145L185.624 49.8894V49.9644L185.68 50.264V50.3576L185.642 50.4325L185.304 50.9194L185.078 51.1442L185.022 51.2191L184.966 51.3314L184.872 51.5749L184.834 51.6685L184.74 51.7247L184.214 51.9494L183.762 51.912L183.65 51.9682L183.537 52.0618L183.368 52.2865L183.104 52.4176L182.258 52.3427L181.243 52.4925L181.074 52.6049L180.942 52.8296L180.322 54.3278L180.209 55.0769L180.153 55.3391L180.059 55.5076L180.021 55.6575L180.002 55.826L180.378 57.8485V58.0733L180.303 58.5227L180.322 58.7475L180.397 58.9347L180.717 59.4778L180.754 59.6089L180.736 59.74L180.698 59.8711L180.717 59.9834L180.754 60.1145V60.2082L180.717 60.4329L180.698 60.5827L180.66 60.6764L180.604 60.7325L180.397 60.7513L180.284 60.7887L180.19 60.8636L180.153 60.976L180.134 61.1071L180.115 61.2007L180.078 61.2944L180.002 61.388L179.965 61.5191V61.6315L179.927 61.7251L179.626 61.7064L179.025 61.8L178.762 61.7625L178.668 61.7813L178.574 61.8375L178.517 61.9124L178.404 62.1184L178.31 62.212L177.991 62.4367L177.859 62.6053L177.803 62.6427L177.596 62.6802L177.521 62.7176L177.446 62.7925L177.352 62.9985L177.258 63.0734L176.9 63.1484L176.562 63.2794L176.449 63.2982L176.355 63.2607L176.336 63.1671L176.374 63.0734L176.43 62.9611L176.487 62.8487L176.506 62.624L176.412 62.418L176.261 62.2682L176.092 62.1745L175.866 62.1558L175.434 62.2682L175.227 62.2307L174.983 62.1184L174.908 62.0996L174.832 62.1184L174.268 62.0622L173.78 62.1184L173.479 62.2869L173.366 62.3056L173.046 62.2307H172.614L170.866 61.6127L170.076 61.0884L169.888 60.9947L169.474 60.9011L169.38 60.8449L169.136 60.6389L169.023 60.6014L168.91 60.5827L168.779 60.6014L168.666 60.6202L168.553 60.6764L168.516 60.7513V61.0322L168.497 61.1071L168.459 61.2569L168.44 61.3318V61.388L168.478 61.5191V61.594L168.403 61.8562L168.384 61.9873L168.403 62.1184L168.422 62.2307V62.3431L168.384 62.4554L167.707 63.86L167.294 65.4518L167.106 65.8451L167.087 65.9575L167.03 66.3133L166.955 66.5193L166.654 67.0249L166.466 67.4182L166.354 67.8489L166.222 68.7665L166.109 69.3658L166.034 69.5531L165.921 69.8715L165.564 70.4707L165.395 71.1075L165.263 71.4633L165.226 71.6318Z" fill="#94a3b8"/>
<path id="KAZ3207" d="M165.226 71.6318L165.188 71.7816L165.357 72.0438L165.526 72.1187L166.222 72.2123L166.692 72.4183L166.767 72.5494L166.786 72.7929L166.767 73.0363L166.673 73.6356L166.542 74.1038L166.335 74.4409L166.034 74.4971L165.827 74.366L165.432 73.9165L165.207 73.7667L164.981 73.748L164.737 73.8041L163.853 74.2536L163.628 74.3098L163.44 74.2161L163.364 74.1225L163.289 74.0663L162.97 74.0289L162.913 73.9727L162.876 73.8978V73.748L162.857 73.5232L162.782 73.2423L162.65 73.0551L162.5 73.0363L162.312 72.9801L162.124 73.0738L161.748 73.336L159.924 73.9165L159.548 74.1225L159.36 74.1974H159.153L158.589 74.4221L158.476 74.4409L158.1 74.3098H157.875L157.142 74.5907L156.822 74.5532L156.709 74.572L156.615 74.6469L156.54 74.8903L156.465 74.9465L156.352 74.9652L155.995 74.9465L155.675 75.0776L155.356 75.0214L155.149 75.0401L154.961 75.1338L154.773 75.2836L154.322 75.6956L154.115 75.808L154.021 75.8641L153.946 76.0701L154.058 76.22L154.622 76.5758L154.848 76.5945L155.675 76.426L155.788 76.4447L155.882 76.4821L156.108 76.6694L156.86 76.9503L156.935 77.0065L156.954 77.0814L156.935 77.1751L156.86 77.2312L156.559 77.2874L156.39 77.3623L156.296 77.4934V77.5683L156.314 77.6245L156.408 77.7369L156.427 77.8118L156.408 77.8867L156.352 78.0178L156.22 78.5047L156.183 78.7669L156.202 79.0103L156.39 79.9467V80.1901L156.258 80.6583L156.22 80.9018L156.258 81.0141L156.314 81.0891L156.465 81.2576L156.521 81.3512L156.559 81.4636V81.576V81.7071L156.615 81.8381L156.69 81.988L156.86 82.2314L157.405 83.6734L157.95 85.0967L157.931 85.3027L157.856 85.5087L157.63 85.9394L157.687 86.0331L157.875 86.0705L158.044 86.1641L158.1 86.2578L158.138 86.3701L158.157 86.4825V86.6136L158.176 86.726L158.288 86.932L158.307 87.0443L158.288 87.1754L158.213 87.2691L158.138 87.3252L158.025 87.344L157.931 87.3252L157.706 87.138H157.518L157.311 87.2316L156.954 87.4938L156.559 87.6811L156.352 87.7934L156.296 87.9807L156.39 88.1305L156.54 88.2616L156.86 88.4114L157.066 88.4489L157.16 88.5051L157.217 88.6174L157.198 88.7298L157.085 88.8047L156.86 88.8234L156.502 88.9545L156.427 89.0294L156.202 89.1231H156.126L155.957 89.0856H155.882L155.807 89.1231L155.713 89.2916L155.619 89.6661L155.544 89.8347L155.374 90.0969L155.337 90.1905L155.318 90.3403L155.337 90.434L155.374 90.5276L155.412 90.7711L155.468 90.8647L155.581 91.052L155.638 91.1456V91.2205L155.619 91.3141L155.562 91.4265V91.5014L155.675 91.9883L155.713 92.1007L155.75 92.1756L155.807 92.2692L155.901 92.7187L155.863 92.8498L155.807 92.9247L155.638 93.0183L155.431 92.906L155.299 92.7187L155.168 92.494L155.017 92.3067L154.716 92.0258L154.547 91.7636L154.491 91.6887L154.284 91.5576L153.269 91.3516L153.081 91.3329L152.705 91.4078L152.272 91.3891L152.028 91.2767L151.896 91.1081L151.69 90.6212L151.558 90.4527L151.182 90.2841L151.032 90.1156L150.956 90.0032L150.919 89.8909L150.881 89.7598V89.6287L150.9 89.3852L150.881 89.3103L150.75 89.2916L150.58 89.3291L150.223 89.4976H150.035L149.866 89.4227L149.565 89.404L149.189 89.2541L148.644 89.198L148.569 89.1605L148.4 89.0294L148.212 88.9171L147.76 88.7485L147.46 88.7298L147.253 88.7485L147.159 88.7672L146.99 88.8796L146.914 88.9171L146.82 88.8983L146.632 88.8421L146.538 88.8234L146.332 88.8609L146.125 88.8421L145.617 88.8796L145.41 88.8609L145.166 88.6923L145.053 88.6549H144.94H144.846L144.809 88.6736L144.734 88.7298L144.602 88.786L144.546 88.7485L144.527 88.7111L144.47 88.6361L144.17 88.5612L143.869 88.5425L143.775 88.5612L143.53 88.6736H143.455L143.361 88.6361L143.286 88.5612L143.192 88.5051H143.004L142.891 88.4676H142.816L142.741 88.4863L142.553 88.58L142.402 88.6174L141.951 88.5425H141.782L141.707 88.5238L141.632 88.4676L141.5 88.2803L141.462 88.2429L141.293 88.1867L140.786 88.0931L140.692 88.0556L140.598 88.0743L140.41 88.1305L140.222 88.1492H140.128L140.034 88.2241L139.94 88.3365L139.883 88.3552L139.789 88.3365L139.752 88.3552L139.714 88.4301L139.545 88.5238L139.451 88.5425H139.263L139.075 88.6174L138.981 88.6361L138.868 88.6174L138.624 88.5051H138.511L138.417 88.5425L138.285 88.6736L138.191 88.6923L138.154 88.6736L138.097 88.58L138.06 88.5425H138.003L137.909 88.58L137.853 88.5987L137.458 88.4676H137.044L136.706 88.3927H136.593L136.292 88.4863H136.18L135.822 88.374L135.653 88.3552L135.409 88.374L135.258 88.2241L134.375 88.0931L134.694 87.8683L134.318 87.5312L133.773 87.3065L133.378 86.9881L133.247 86.7634L133.19 86.5949L133.153 86.4076L133.059 86.108L133.36 85.49L133.66 85.0405L133.284 84.8158H132.871L132.72 84.6285L132.551 84.7034L132.175 84.6098L131.78 84.4412L132.946 82.4561L133.172 81.8756L133.209 81.164L132.833 80.6958L132.382 80.2651L131.611 79.8156L130.596 79.6658L129.919 79.0291L129.675 78.3549L129.581 77.4747L127.814 75.8454L127.626 75.4147L127.55 74.8529L127.099 74.7592L126.648 74.7405L126.253 74.1225L126.404 73.5794L127.532 73.5045L127.438 73.1861L127.344 72.8303L127.25 71.7629L127.362 70.1898L127.945 69.01L130.615 66.0698L133.548 64.2158L134.619 64.272L135.822 64.1409L137.026 64.1971L137.796 64.4031L138.041 64.3656L138.078 64.4405H138.135L138.172 64.3281L138.548 64.5529L138.642 64.6465H138.68L138.699 64.5716L138.718 64.4405L138.774 64.3656L138.812 64.3281L139.037 64.2345H139.094L139.338 64.2907L139.432 64.3094L139.526 64.272L139.62 64.1783L139.639 64.2345L139.658 64.3094L139.639 64.3656L139.582 64.4031L139.658 64.5341L139.77 64.6278L140.203 64.7963L140.466 64.9461L140.598 65.0023L140.466 64.8338L140.278 64.6278L140.128 64.3843L140.09 64.1783L140.146 64.1409L140.259 64.1971L140.485 64.478L140.522 64.4967H140.579H140.635L140.748 64.4592L140.974 64.4218L141.18 64.4967L141.35 64.6652L141.5 64.9087L141.519 64.9649L141.5 65.0023V65.0398L141.575 65.096H141.613L141.932 65.0211L141.989 64.9274L142.045 64.8338L142.102 64.7401L142.196 64.6652L142.29 64.6278L142.684 64.5903L143.023 64.4592L143.154 64.478L143.248 64.4218L143.643 64.2345L143.7 63.2981L143.549 60.8823L143.906 60.7138L144.79 60.8636L145.241 60.5078L145.692 60.3205L145.993 60.6201L146.745 60.0209L148.061 60.7512L148.418 61.0883L148.87 61.1632L149.17 61.594L149.847 61.6876L150.28 61.6314L151.502 61.8561L152.329 62.9985L154.754 62.8674L155.901 63.2981L155.92 63.5978L156.277 63.8225L158.251 64.7963L159.51 65.1147L160.037 65.1334L160.338 65.302L160.469 65.4705L160.977 65.4518L161.146 65.5641L161.165 65.7514L162.048 66.126L162.236 66.6691L163.458 68.2983L163.778 69.3471L164.248 70.0025L164.492 70.7516L164.436 71.4258L165.113 71.688L165.226 71.6318ZM140.898 86.5761L141.03 86.1641L141.049 85.6023L140.88 85.4525L140.598 85.5461L140.447 85.696L140.278 85.902L140.146 86.1641L140.015 86.2765V86.5761L140.165 86.7072L140.466 86.6885L140.71 86.7634L140.898 86.5761Z" fill="#94a3b8"/>
<path id="KAZ3236" d="M19.8828 75.6395L19.9768 75.6582L20.0332 75.6395L20.1084 75.5458H20.146L20.1648 75.6207L20.2024 75.6395L20.24 75.6956V75.8455V75.9204L20.2776 75.9766L20.334 76.0889L20.3528 76.1264L20.2588 76.1076H20.2024L20.1272 76.1451L20.0708 76.1638L20.052 76.1264L20.0896 76.0515V76.014L20.0332 75.9953V75.9578L20.052 75.9016L20.0144 75.8267L19.8076 75.6769L19.7324 75.5646L19.7512 75.4522H19.7888L19.8076 75.5458L19.8828 75.6395ZM17.0064 75.6956L17.0628 75.7331L17.1192 75.7144L17.138 75.8642V76.0327L17.1944 76.1451L17.3636 76.2013L17.4388 76.2762H17.514L17.6644 76.1638L17.7208 76.1451L17.6456 76.3511L17.514 76.426L17.3636 76.4073L17.232 76.3324L17.1568 76.2575L17.138 76.2013L17.1192 76.1264L17.1004 76.014L17.044 75.9204L16.8748 75.7518L16.7996 75.5833V75.4522L17.044 74.8716L17.1004 74.8155L17.1756 74.778L17.3824 74.7218V74.8342L17.1004 75.0027L17.044 75.1525L17.0252 75.2462L16.95 75.396V75.5084V75.602L17.0064 75.6956ZM18.454 74.7031L18.4916 74.778L18.4352 74.9091L18.4164 74.9653L18.3788 75.0027L18.36 75.0402L18.3976 75.2836L18.36 75.4147L18.266 75.5084L18.1532 75.5271L18.078 75.4896L18.0404 75.3398L18.0592 75.19L18.0968 75.0215L18.1156 74.8904L18.1344 74.778L18.1908 74.7406L18.2848 74.7218H18.3788L18.4352 74.6844L18.454 74.7031ZM29.2828 72.6244L29.1512 72.6618L28.9256 72.5869L28.7564 72.4371L28.6248 72.2873L28.5872 72.1375L28.6436 72.0438L28.7188 71.9876L28.7752 71.9315L28.794 71.894L28.7752 71.8378L28.8128 71.8191L28.9632 71.8378L29.0572 71.8566L29.1324 71.9689L29.2076 72.1562L29.264 72.3809L29.2828 72.4746V72.6244ZM46.5976 68.1673L46.9172 69.0287L47.6692 74.16V74.1975L46.8984 74.4409L44.3228 75.2649L44.304 75.2836V76.7818V78.2425L44.3228 79.722V81.1827V82.6435V84.1042V85.5462V86.9882V88.4302V89.8535V91.2955V92.7V94.1233V95.5278V98.3369L44.0032 98.3182L43.8528 98.3369L43.4392 98.5242L43.0256 98.5804L42.7436 98.6927L42.1608 98.7302L42.0292 98.674L41.8976 98.5991L41.8036 98.5242L41.7284 98.4305L41.5968 98.1122L41.5404 98.0186L41.4652 97.9249L41.1832 97.7376L41.014 97.5878L40.8824 97.4193L40.2808 96.3705L39.604 95.4529L39.5476 95.3405L39.5288 95.2095V95.0784L39.5476 94.966V94.8724L39.51 94.7413L39.3972 94.6102L38.6264 93.8985L36.8404 92.7L36.126 92.2318L35.8064 92.1007L35.4492 92.0633L33.6444 92.3816L32.836 92.5315L32.5352 92.5876L31.52 92.9996L31.2568 93.1495L30.5424 93.4116L29.5648 94.2356L28.9444 94.8349L28.2488 95.5466L28.0608 95.7338L28.042 95.6027L28.0796 95.4716L28.2676 95.0222L28.3052 94.7975L28.2676 94.554L28.23 94.4229L28.1736 94.3105L28.0796 94.2356L28.042 94.1795L28.0232 94.1045L28.0608 93.8985V93.8236L28.0232 93.7675L27.8916 93.6176L27.948 93.524L27.9856 93.4116L28.0232 93.2993V93.1682L28.0608 93.0745L28.1172 93.0371L28.1924 92.9996L28.2676 92.9435L28.4932 92.5127L28.7564 92.1756L28.794 92.0633L28.8128 91.9884V91.8573V91.7824L28.8316 91.7449L28.9632 91.5951L29.0008 91.5389L29.0196 91.4827V91.3891L29.0384 91.3329L29.1136 91.0895L29.1512 90.8647V90.64L29.0948 90.3966L28.982 90.1344L28.888 89.9845L28.7 89.8535L28.6436 89.7224V89.5913L28.6812 89.5351L28.7188 89.61L28.7564 89.7411L28.8128 89.8722L28.888 89.9284L28.9256 89.9471L29.0948 90.0595L29.1136 90.0969L29.1324 90.1718H29.1512L29.2264 90.4153L29.264 90.5089L29.3204 90.5651L29.358 90.5089L29.4144 90.3966L29.452 90.2467L29.4708 90.1156L29.4332 89.8347L29.3204 89.6662L29.1512 89.5538L28.9444 89.5351L28.9256 89.3853L28.6812 89.2355L28.2112 89.0669L27.76 89.0295H27.6848L27.6284 89.0482L27.572 89.0669L27.5156 89.1044L27.4968 89.1418L27.4404 89.2542L27.4216 89.2916L27.3088 89.2355L26.9892 88.8235L26.82 88.6924L26.7072 88.6736L26.3124 88.7298L26.0116 88.8609L25.8424 88.9733L25.7484 89.0107L25.6544 88.9733L25.3724 88.6362L25.316 88.5425L25.2032 88.3553L25.1468 88.2429L25.0904 88.1493L25.0528 87.9058L24.9964 87.7935L24.7896 87.5313L24.7144 87.4002L24.658 87.3815H24.6016L24.564 87.344L24.5264 87.2691L24.5452 87.2129L24.5828 87.1755L24.6016 87.1005L24.5828 86.9695L24.5264 86.8571L24.4512 86.7822L24.2632 86.8758L24.0376 86.8571L23.9248 86.8758L23.906 86.9133L23.8308 86.9882L23.7932 87.0069L23.7368 86.9882L23.624 86.932L23.5676 86.9133L23.1352 87.0069H22.7216L22.6652 86.9507L22.684 86.8009L22.8344 86.2953L22.8908 86.0331L22.9284 85.1904L22.8908 85.078L22.7592 84.7784L22.7404 84.7222L22.7216 84.666V84.5162L22.7028 84.46L22.6464 84.3851L22.4584 84.254L22.4208 84.1416L22.402 84.048L22.3644 84.0293L22.2704 84.0667L22.1764 84.048L22.1012 83.9918L21.9884 83.8233L21.556 82.9244L21.5184 82.812L21.4996 82.6435L21.4056 82.5124V82.4562L21.4244 82.3064L21.4056 82.2502L21.368 82.1753L21.2364 82.0629L21.2176 82.0067L21.18 81.8756L21.1048 81.782L21.0484 81.6509L21.0108 81.5947L20.9544 81.576L20.8604 81.5385L20.8228 81.5011L20.7852 81.4262V81.37L20.804 81.3138L20.8228 81.2202L20.804 80.6958L20.7852 80.5647L20.7476 80.4524L20.6348 80.3025L20.4468 80.1715L20.052 79.9842L18.4352 79.6846L18.2284 79.5909L18.1344 79.516L18.0404 79.4224L17.9464 79.31L17.9088 79.1789L17.9464 78.8793V78.7482L17.9088 78.6171L17.9464 78.5796L17.9088 78.4485L17.89 78.2425V78.0366L17.9464 77.9242L18.0216 78.0927L18.0968 78.0178L18.1344 77.8306L18.1532 77.7369L18.2096 77.6995V77.6246V77.5309L18.2284 77.4747L18.2848 77.4185L18.3224 77.4373L18.3788 77.4935L18.4164 77.5122L19.1496 77.662L19.3752 77.6433L19.582 77.5684H19.6948L19.7512 77.6807L19.8076 77.6995H20.2212L20.2776 77.7744L20.334 77.7931L20.3904 77.7556L20.4468 77.6433L20.4656 77.6246L20.522 77.6058L20.7476 77.6246L20.8792 77.6433L20.9732 77.6995L21.1424 77.8493L21.274 78.0178L21.3116 78.0553L21.4244 78.0366L21.4808 78.0553L21.4996 78.0927V78.1489L21.462 78.1676L21.4056 78.1864L21.4808 78.28L21.6124 78.3736L21.9884 78.5422L22.12 78.5609H22.2516L22.3832 78.5235L22.496 78.4673L22.7404 78.2238L22.7592 78.1676L22.8344 78.1302H22.9472H23.0036L23.1352 78.0927H23.2104L23.1728 78.2987L23.3044 78.3362L23.624 78.2613L23.9248 78.4111L24.0188 78.3924L24.094 78.3175L24.0752 78.2238L24 78.1489L23.9248 78.0927L23.6616 77.9429L23.4736 77.7556H23.3608L23.1352 77.8306L22.9284 77.8493L22.7968 77.7369L22.6464 77.25L22.5336 77.0627L22.3832 76.9129L22.0072 76.6882L21.8944 76.5571L21.7252 76.5384L21.6876 76.5196L21.6688 76.4822L21.6124 76.426L21.3116 76.2387L21.274 76.1264V75.9766L21.2928 75.8455L21.368 75.7893L21.4056 75.7706L21.4244 75.7144V75.6582L21.4056 75.6207L21.368 75.5833H21.2928L21.2364 75.5646L21.2176 75.4896L21.274 75.3773L21.368 75.3211L21.4996 75.2836L21.5936 75.2649L21.7064 75.2836L21.7628 75.2649L21.8192 75.2087L21.8944 75.0776L21.9508 75.0402L22.1388 74.9091L22.2516 74.8529L22.3644 74.8155L22.4396 74.8716L22.5148 74.984L22.6088 75.0776L22.7028 75.0964L22.7404 75.0027L22.7216 74.8716L22.6464 74.7593L22.59 74.6656L22.5712 74.5907L22.59 74.5158L22.6276 74.4409L22.6464 74.3847L22.6276 74.3286L22.5712 74.1975L22.6088 74.1038L22.6652 73.9915L22.7968 73.7855L22.8344 73.6918L22.872 73.5795L23.2856 73.0925L23.3232 72.9802L23.342 72.8304L23.3608 72.718L23.436 72.7742L23.5488 72.9989L23.718 73.0738H23.9436L24.1692 73.0176L24.3384 72.9053L24.4888 72.7367L24.5264 72.718H24.6204L24.6768 72.6993L24.7332 72.5869L24.7896 72.4558L24.846 72.3435L24.94 72.2686L24.9964 72.3435L25.0528 72.4184L25.0716 72.5307L25.0904 72.6056L25.4852 72.6806L25.5604 72.718L25.692 72.8304L25.7672 72.8678L25.8612 72.8304L26.0116 72.718L26.0868 72.6806L26.1996 72.6993L26.3876 72.7555L26.4816 72.7742L27.8916 72.5869L28.0984 72.6431L28.4368 72.5869L28.6436 72.6431L29.4332 72.9802L29.8844 73.0551L30.11 73.1862L30.2228 73.2236L30.6552 73.1675L30.768 73.1862L31.0312 73.2986H31.144L31.238 73.2611L31.426 73.1487L31.5388 73.13L31.5576 73.1113L31.614 73.0551L31.6516 73.0364L31.7644 73.0738L31.8396 73.0176L31.8772 72.9615L31.8584 72.9053L31.7832 72.8491L31.2944 72.7555L31.2568 72.718L31.2004 72.6431L31.1628 72.6056L31.0124 72.5869L30.8056 72.5307L30.2228 72.2311L30.11 72.2124L30.0724 72.1936L29.9784 72.0625L29.9596 72.0251L29.9032 72.0064L29.734 71.9876L29.5084 71.894L29.4332 71.8378L29.4708 71.7442L29.4144 71.6506V71.5944L29.452 71.5195V71.4633L29.4332 71.3696L29.452 71.2011L29.4708 71.0887L29.5272 71.0138L29.6212 70.9764L29.6964 70.9389L29.734 70.8078L29.8092 70.5831L29.9972 70.2647L30.016 70.246L30.8244 70.4333L33.0992 69.8715L34.1144 69.2347L33.8324 68.8976L34.2648 68.4669L34.998 67.4744L35.374 67.362L35.6372 67.3807L35.7876 67.2496L39.3784 66.5006L40.9576 66.4256L42.0104 65.5267L42.9316 66.3507L43.2512 66.1447L43.6272 66.5193L43.646 67.156L44.1536 67.3995L44.6048 67.3433L44.774 67.6429L45.0372 67.8302L45.5072 67.7927L45.8644 67.9238H46.09L46.5976 68.1673Z" fill="#94a3b8"/>
<path id="KAZ3251" d="M104.915 69.1411L105.498 70.0775L106.513 72.718L107.829 77.4185L108.318 80.5835L108.356 81.0704L108.205 81.2951L107.096 84.6285L106.682 85.1904L106.57 85.3964L106.814 85.49L106.983 85.6398L106.964 85.9207L107.228 86.314L107.434 86.4264L107.923 86.5949L108.299 86.6136L108.525 86.6698L108.844 86.8571L109.202 86.9882L109.296 87.4002L109.446 87.5687L109.634 87.55L109.766 87.6811L109.653 87.8871L109.916 88.0744L109.841 88.2616L109.954 88.4676L109.916 88.9358L109.972 89.4789L110.217 89.8535L110.555 89.9284L110.743 90.022L111.044 90.2842L111.251 90.5651L111.382 90.7711L111.589 90.8647L112.059 91.3891L112.398 91.5202L112.416 91.7075L112.529 91.7824L112.548 91.8573L112.792 92.1007H112.811L112.698 92.1944L112.642 92.3067L112.68 92.3816L112.849 92.5689L112.962 92.6251L113.093 92.6625L112.774 92.906L112.604 92.9996L112.435 93.0184L112.21 92.9622H112.097L112.04 93.0558L112.003 93.1682L111.946 93.2618L111.834 93.4116L111.721 93.6176L111.627 93.8424L111.533 94.0109L111.401 94.0858L111.288 94.0671L111.194 94.0296L111.119 93.9547L111.082 93.8424L111.044 93.7675L110.969 93.6925L110.894 93.6176H110.818L110.386 93.8049L110.179 93.9735L110.066 94.2356L110.029 94.3293L109.972 94.4042L109.897 94.4416L109.822 94.4604L109.728 94.5165L109.672 94.5915L109.352 95.1158L109.239 95.2656L108.863 95.5465L108.6 95.6402L108.525 95.6964L108.468 95.79L108.337 95.9585L108.149 96.0335L107.622 96.0522L107.002 96.2207L106.927 96.2956L106.795 96.4455L106.325 96.8013L106.062 96.8949L105.949 96.9885L105.893 97.1384L105.912 97.2133L105.987 97.3444V97.4193L105.93 97.438L105.667 97.4005L105.592 97.4193L105.423 97.5316H105.348L105.216 97.4755L105.141 97.4942L104.878 97.6627L104.784 97.7751L104.727 97.8875L104.633 97.8687L104.558 97.8875L104.351 97.9998L104.314 98.0185L104.276 98.0747L104.295 98.1122L104.37 98.2058L104.389 98.2807V98.3744L104.314 98.9549L104.276 99.0298L104.201 99.1047L104.05 99.2171L103.881 99.292L103.693 99.3295L103.58 99.3482L103.524 99.4418L103.411 99.6291L103.092 99.7789L102.979 99.91L102.81 100.397L102.716 100.509L102.434 100.64L102.302 100.734L102.246 100.865L102.17 100.828V100.884V101.034V101.09L102.152 101.146L102.095 101.202L102.076 101.296L102.114 101.801L102.152 101.914L102.189 101.97L102.227 101.989L102.34 102.026V102.101L102.358 102.176L102.396 102.251L102.434 102.307L102.415 102.363L102.302 102.532L102.396 102.588L102.358 102.663L102.264 102.719L102.152 102.7L101.964 102.607H101.907L101.87 102.625L101.851 102.682L101.813 102.738L101.738 102.719L101.682 102.775L101.663 102.813L100.591 102.251L100.272 102.007L99.858 101.577L99.7076 101.502L99.5384 101.464L99.5008 101.446L99.5196 101.389L99.5572 101.352L99.7264 101.296L99.8016 101.221L99.858 101.146L99.9144 101.071L99.9896 100.921L100.046 100.715L100.102 100.509V100.341L100.046 100.247V100.191L100.14 100.116L100.084 100.097L100.102 100.041L100.084 99.8913L99.9896 99.91L99.9144 100.041L99.8768 99.9849L99.8204 99.9662L99.764 100.004L99.7076 100.041L99.6512 99.9475L99.6136 99.704L99.5572 99.5916L99.3504 99.3295L99.3128 99.2545L99.2564 99.086L98.8804 99.3295L98.7864 99.3482L98.6924 99.3107L98.4856 99.2171L98.3916 99.1796L97.8088 99.2171L96.8312 99.2733L94.1052 99.4418L93.7292 99.3482L93.5224 99.086L93.1276 97.2882L92.8268 95.79L92.6764 94.2356L92.6576 94.2169H92.5448L90.4392 94.1982L90.4016 94.1795L90.3828 94.1045L90.4204 91.876L91.21 92.0071L92.6388 90.6025L93.3344 90.2655L93.748 90.4153L94.7256 89.5538L96.944 88.0744L99.2 86.9695L99.4068 86.7447L99.294 86.6698L98.9744 86.4076L98.9368 85.9582L98.7488 85.9395L98.7676 85.7147L98.5984 85.7896L98.4668 86.314L98.3916 85.696L98.7864 85.3215L98.8992 84.7596L99.2376 84.1791L99.2564 83.5236L99.7264 83.8045L99.9144 83.2989L99.8768 82.8682L99.7452 82.6247L100.065 82.2502H100.478V81.8382L99.4068 81.0329L98.9744 80.4898L98.918 80.3025L98.6548 80.0965L98.3728 79.9842L98.1848 80.0216L97.7336 79.6845L97.6772 74.778L97.32 74.3473L96.7184 73.9727L96.286 73.5982L96.3048 72.8304L96.6056 71.2947L96.9628 70.6955L96.7748 70.0213L96.286 69.628L96.2108 68.9913L104.915 69.1411Z" fill="#94a3b8"/>
<path id="KAZ3252" d="M135.409 88.374L135.296 88.3927L135.24 88.4489L135.089 88.8422L135.052 88.9171L134.939 89.0295L134.807 89.1418L134.676 89.198H134.544L134.262 89.0669H134.168L133.98 89.0856L132.946 88.9358L132.645 88.9546L132.514 88.9171L132.25 88.7486L132.138 88.6736L132.006 88.58L131.724 88.5051L131.592 88.4302L131.461 88.3178L131.066 88.1306L130.54 88.0369L130.389 87.9807L129.919 87.6062L129.844 87.5313L129.731 87.344L129.675 87.2504L129.581 87.2129L129.393 87.1567L129.242 87.0444L129.036 87.0256L128.942 86.9695L128.716 86.7822L128.584 86.7073L128.434 86.6886L128.302 86.6324L128.058 86.4076L127.926 86.3327L128.058 86.5013L128.096 86.6136V86.7073L128.02 86.7447L127.287 86.8384L127.212 86.8196L127.043 86.6511L126.949 86.6136L126.817 86.726L126.648 87.1567L126.479 87.2504H126.291H126.216L125.426 87.5875L125.2 87.7186L125.144 87.7747L125.088 87.8684L124.918 88.374L124.824 88.5426L124.787 88.6362L124.768 88.7486V88.8422L124.824 89.0482L124.843 89.1606L124.824 89.2729L124.712 89.5351L124.467 90.0782L124.411 90.3029L124.392 90.5464L124.43 90.7524L124.505 90.9396L124.843 91.5951V91.6887L124.712 91.7262L124.43 91.6138L124.016 91.5389L123.96 91.464V91.3329V91.1269L123.903 91.052L123.79 91.0146L123.471 90.9958L123.377 90.9584L123.302 90.9209L123.208 90.846L123.038 90.7711H122.832L122.249 90.8647H122.098L121.929 90.8273L121.779 90.7524L121.666 90.64L121.497 90.3404L121.403 90.228L121.252 90.1531L120.594 89.9846H120.275L120.106 89.9658L119.56 89.5913L119.26 89.4789L118.677 89.4415L118.602 89.4602L118.47 89.5351H118.395L118.263 89.4976L117.718 89.198L117.436 89.1231L117.361 89.1044L117.286 89.0482L117.229 89.0107L117.154 89.0295L116.985 89.0856L116.665 89.1044L116.515 89.1606L116.007 89.4789L115.932 89.4976L115.876 89.4789L115.688 89.3104L115.65 89.2916H115.594L115.518 89.3291L115.293 89.2542H115.18L115.105 89.3291L115.048 89.4227L114.992 89.5164L114.917 89.5913L114.842 89.6287L114.748 89.61L114.635 89.5538L114.541 89.5164L114.447 89.5538L114.353 89.7411L114.296 89.816L114.221 89.8722L114.052 89.9284L114.014 89.9846L113.996 90.1156L114.014 90.3591L113.977 90.4527L113.902 90.5276L113.507 90.6026L113.338 90.6962L113.394 90.9396L113.432 90.9958L113.601 91.1456L113.638 91.2018L113.62 91.2767L113.582 91.3329L113.507 91.3704H113.432L113.225 91.2206L113.15 91.2955L113.093 91.3891L113.037 91.5202L112.999 91.6326L113.018 91.7075L113.056 91.7824L113.018 91.8573L112.868 92.0446L112.811 92.1007H112.792L112.548 91.8573L112.529 91.7824L112.416 91.7075L112.398 91.5202L112.059 91.3891L111.589 90.8647L111.382 90.7711L111.251 90.5651L111.044 90.2842L110.743 90.022L110.555 89.9284L110.217 89.8535L109.972 89.4789L109.916 88.9358L109.954 88.4676L109.841 88.2616L109.916 88.0744L109.653 87.8871L109.766 87.6811L109.634 87.55L109.446 87.5687L109.296 87.4002L109.202 86.9882L108.844 86.8571L108.525 86.6698L108.299 86.6136L107.923 86.5949L107.434 86.4264L107.228 86.314L106.964 85.9207L106.983 85.6398L106.814 85.49L106.57 85.3964L106.682 85.1904L107.096 84.6286L108.205 81.2951L108.356 81.0704L108.318 80.5835L107.829 77.4186L106.513 72.718L105.498 70.0775L104.915 69.1411L127.945 69.01L127.362 70.1898L127.25 71.7629L127.344 72.8304L127.438 73.1862L127.532 73.5046L126.404 73.5795L126.253 74.1226L126.648 74.7406L127.099 74.7593L127.55 74.8529L127.626 75.4147L127.814 75.8455L129.581 77.4747L129.675 78.3549L129.919 79.0291L130.596 79.6658L131.611 79.8156L132.382 80.2651L132.833 80.6958L133.209 81.164L133.172 81.8756L132.946 82.4562L131.78 84.4413L132.175 84.6098L132.551 84.7035L132.72 84.6286L132.871 84.8158H133.284L133.66 85.0406L133.36 85.49L133.059 86.108L133.153 86.4076L133.19 86.5949L133.247 86.7635L133.378 86.9882L133.773 87.3066L134.318 87.5313L134.694 87.8684L134.375 88.0931L135.258 88.2242L135.409 88.374Z" fill="#94a3b8"/>
<path id="KAZ4829" d="M140.898 86.5762L140.71 86.7634L140.466 86.6885L140.165 86.7072L140.015 86.5762V86.2765L140.146 86.1642L140.278 85.902L140.447 85.696L140.598 85.5462L140.88 85.4525L141.049 85.6023L141.03 86.1642L140.898 86.5762Z" fill="#94a3b8"/>
<path id="KAZ4830" d="M115.744 34.1772L115.481 34.3083L115.274 34.1772L115.086 33.8402L114.879 33.5592L114.654 33.2783L114.484 32.9974L114.447 32.6978L114.484 32.4169L114.616 32.1734L114.766 32.0236L115.067 31.8925L115.274 31.9487L115.631 32.2296L115.838 32.548L115.988 32.6229L116.12 32.96L116.082 33.4282L115.97 33.8589L115.744 34.1772Z" fill="#94a3b8"/>
</g>
<defs>
<clipPath id="clip0_9_261">
<rect width="188" height="103" fill="white" transform="translate(0.5)"/>
</clipPath>
</defs>
</svg>
