<svg width="21" height="20" viewBox="0 0 21 20" fill="none" xmlns="http://www.w3.org/2000/svg">
<path d="M15.5004 5.967C15.4504 5.95866 15.3921 5.95866 15.3421 5.967C14.1921 5.92533 13.2754 4.98366 13.2754 3.81699C13.2754 2.62533 14.2337 1.66699 15.4254 1.66699C16.6171 1.66699 17.5754 2.63366 17.5754 3.81699C17.5671 4.98366 16.6504 5.92533 15.5004 5.967Z" stroke="#100A14" stroke-width="1.5" stroke-linecap="round" stroke-linejoin="round"/>
<path d="M14.6422 12.0338C15.7839 12.2255 17.0422 12.0255 17.9255 11.4338C19.1005 10.6505 19.1005 9.36713 17.9255 8.58379C17.0339 7.99213 15.7589 7.79212 14.6172 7.99212" stroke="#100A14" stroke-width="1.5" stroke-linecap="round" stroke-linejoin="round"/>
<path d="M5.47539 5.96651C5.52539 5.95817 5.58372 5.95817 5.63372 5.96651C6.78372 5.92484 7.70039 4.98317 7.70039 3.81651C7.70039 2.62484 6.74206 1.6665 5.55039 1.6665C4.35873 1.6665 3.40039 2.63317 3.40039 3.81651C3.40872 4.98317 4.32539 5.92484 5.47539 5.96651Z" stroke="#100A14" stroke-width="1.5" stroke-linecap="round" stroke-linejoin="round"/>
<path d="M6.33353 12.0333C5.19186 12.225 3.93353 12.025 3.0502 11.4333C1.8752 10.65 1.8752 9.36664 3.0502 8.58331C3.94186 7.99164 5.21686 7.79163 6.35853 7.99163" stroke="#100A14" stroke-width="1.5" stroke-linecap="round" stroke-linejoin="round"/>
<path d="M10.4994 12.1916C10.4494 12.1833 10.3911 12.1833 10.3411 12.1916C9.19108 12.1499 8.27441 11.2083 8.27441 10.0416C8.27441 8.84994 9.23275 7.8916 10.4244 7.8916C11.6161 7.8916 12.5744 8.85827 12.5744 10.0416C12.5661 11.2083 11.6494 12.1583 10.4994 12.1916Z" stroke="#100A14" stroke-width="1.5" stroke-linecap="round" stroke-linejoin="round"/>
<path d="M8.07461 14.8168C6.89961 15.6001 6.89961 16.8835 8.07461 17.6668C9.40794 18.5585 11.5913 18.5585 12.9246 17.6668C14.0996 16.8835 14.0996 15.6001 12.9246 14.8168C11.5996 13.9335 9.40794 13.9335 8.07461 14.8168Z" stroke="#100A14" stroke-width="1.5" stroke-linecap="round" stroke-linejoin="round"/>
</svg>
