<svg xmlns="http://www.w3.org/2000/svg" viewBox="0 0 705.07 235.42">
  <g id="Calque_2" data-name="Calque 2">
    <g id="Notes">
      <g>
        <path d="M162.76,52.07h0A44.53,44.53,0,0,0,118.23,7.54h-1.49A44.52,44.52,0,0,0,72.21,52.07C73.05,8.59,37.08-1.62,0,.2V177.75c0,31.66,28.6,57.67,63.55,57.67,22.64,0,42.6-10.92,53.86-27.22l.07-.23.07.23c11.26,16.3,31.23,27.22,53.87,27.22,35,0,63.55-26,63.55-57.67V.2c-37.09-1.82-73.05,8.39-72.21,51.87" fill="#6f63a4"/>
        <path d="M632.86,52.07h0A44.52,44.52,0,0,0,588.33,7.54h-1.49a44.53,44.53,0,0,0-44.53,44.53C543.15,8.59,507.19-1.62,470.11.2V177.75c0,31.66,28.59,57.67,63.54,57.67,22.64,0,42.61-10.92,53.87-27.22l.07-.23.07.23c11.26,16.3,31.22,27.22,53.86,27.22,35,0,63.55-26,63.55-57.67V.2C668-1.62,632,8.59,632.86,52.07" fill="#47a2b3"/>
        <path d="M470.1,117.78A117.57,117.57,0,1,1,352.53.21,117.56,117.56,0,0,1,470.1,117.78" fill="#c95d61"/>
        <path d="M299.21,93.68A23.82,23.82,0,1,0,323,117.5a23.82,23.82,0,0,0-23.82-23.82m0,41.65a17.84,17.84,0,1,1,17.84-17.83,17.83,17.83,0,0,1-17.84,17.83" fill="#fff"/>
        <path d="M345.29,82.94a12.86,12.86,0,0,0-12.85,12.84v1.58h0v10.51h-6.29v5.68h6.29V140c0,6.49-4,8.13-8.56,7.92v5.7c8.63,1,14.55-4.06,14.55-13.41V113.55h9.87v-5.68h-9.87V95.78a6.85,6.85,0,1,1,13.69,0v.09h6v-.09a12.85,12.85,0,0,0-12.84-12.84" fill="#fff"/>
        <rect x="196.74" y="81.72" width="5.99" height="58.18" fill="#fff"/>
        <path d="M144.35,93.68a23.82,23.82,0,1,0,23.82,23.82,23.81,23.81,0,0,0-23.82-23.82m0,41.65a17.84,17.84,0,1,1,17.83-17.83,17.83,17.83,0,0,1-17.83,17.83" fill="#fff"/>
        <path d="M250.08,101.71A23.83,23.83,0,1,0,256,119.1l.06-37.38h-6Zm-17.84,33.62a17.84,17.84,0,1,1,17.84-17.83,17.83,17.83,0,0,1-17.84,17.83" fill="#fff"/>
        <path d="M171.78,112.25V139.9h6V113h0v-.78a12.5,12.5,0,0,1,12.48-12.48h.78v-6h-.78a18.51,18.51,0,0,0-18.49,18.49" fill="#fff"/>
        <path d="M629,95.06c-11.61,0-20,8.42-20,20V139.9h6V115.09c0-8.4,5.64-14,14-14s14,5.64,14,14v24.69h6V115.09c0-11.79-8.21-20-20-20" fill="#fff"/>
        <path d="M536.4,93.16a16.73,16.73,0,0,0-14.07,7c-3-4.36-8-7-14.12-7-9.92,0-17.12,7.21-17.12,17.13V139.9h6V110.29c0-6.66,4.48-11.14,11.14-11.14s11.07,4.48,11.07,11.14V139.9h6V110.29c0-6.66,4.47-11.14,11.13-11.14s11.08,4.48,11.08,11.14V139.9h6V110.29c0-10.08-7-17.13-17.06-17.13" fill="#fff"/>
        <path d="M581.1,93.66a23.83,23.83,0,1,0,21.18,34.58h-7a17.79,17.79,0,0,1-31.76-7.75h41.4v-3A23.86,23.86,0,0,0,581.1,93.66M563.52,114.5a17.83,17.83,0,0,1,35.16,0Z" fill="#fff"/>
        <path d="M463.61,93.68a23.82,23.82,0,1,0,23.82,23.82,23.81,23.81,0,0,0-23.82-23.82m0,41.65a17.84,17.84,0,1,1,17.83-17.83,17.83,17.83,0,0,1-17.83,17.83" fill="#fff"/>
        <path d="M98.24,98.3A12.38,12.38,0,0,0,96.79,100a13.06,13.06,0,0,0-11.15-5,12.82,12.82,0,0,0-9.3,5,11.78,11.78,0,0,0-1.52-1.8c-3.44-3.35-9-4.92-16.13-4.58l-2.53.13V125c0,9,7.94,16.31,17.69,16.31a18.39,18.39,0,0,0,12.69-5,18.34,18.34,0,0,0,12.68,5c9.76,0,17.7-7.32,17.7-16.31V93.85l-2.54-.13c-7.11-.34-12.69,1.23-16.14,4.58M111.58,125c0,6-5.54,11-12.36,11a12.72,12.72,0,0,1-10.5-5.23l-1.56-2.22a.76.76,0,0,0-1.25,0l-1.56,2.22A12.71,12.71,0,0,1,73.85,136c-6.81,0-12.36-4.92-12.36-11V99c4.3.13,7.67,1.21,9.62,3.1,1.61,1.57,2.37,3.74,2.33,6.64v14.29a5.33,5.33,0,0,0,5.33-5.33v-9.57a7.76,7.76,0,1,1,15.52,0v9.57a5.34,5.34,0,0,0,5.34,5.33V108.76c0-2.9.71-5.07,2.33-6.63,2-1.9,5.32-3,9.62-3.11Z" fill="#fff"/>
        <path d="M417.45,98.3A11.72,11.72,0,0,0,416,100a13.07,13.07,0,0,0-11.16-5,12.8,12.8,0,0,0-9.29,5A12.38,12.38,0,0,0,394,98.3c-3.44-3.35-9-4.92-16.13-4.58l-2.53.13V125c0,9,7.93,16.31,17.69,16.31a18.39,18.39,0,0,0,12.69-5,18.34,18.34,0,0,0,12.68,5c9.76,0,17.69-7.32,17.69-16.31V93.85l-2.53-.13c-7.11-.34-12.7,1.23-16.14,4.58M430.79,125c0,6-5.55,11-12.36,11a12.71,12.71,0,0,1-10.5-5.23l-1.56-2.22a.76.76,0,0,0-1.25,0l-1.56,2.22a12.71,12.71,0,0,1-10.5,5.23c-6.81,0-12.36-4.92-12.36-11V99c4.3.13,7.67,1.21,9.62,3.1,1.61,1.57,2.37,3.74,2.33,6.64v14.29a5.33,5.33,0,0,0,5.33-5.33v-9.57a7.76,7.76,0,1,1,15.52,0v9.57a5.33,5.33,0,0,0,5.33,5.33V108.76c0-2.9.72-5.07,2.33-6.63,2-1.9,5.32-3,9.63-3.11Z" fill="#fff"/>
      </g>
    </g>
  </g>
</svg>